<svg width="404" height="176" viewBox="0 0 404 176" fill="none" xmlns="http://www.w3.org/2000/svg">
<rect width="404" height="176" rx="2" fill="white"/>
<path d="M138.046 73.7V72.41C138.046 71.15 138.046 69.89 138.046 68.63C138.046 67.35 138.026 66.07 137.986 64.79L135.496 64.52V63.11H144.436V64.52L141.976 64.79C141.936 66.05 141.916 67.3 141.916 68.54C141.916 69.76 141.916 70.92 141.916 72.02H150.046C150.046 70.78 150.046 69.57 150.046 68.39C150.046 67.19 150.026 65.99 149.986 64.79L147.556 64.52V63.11H156.496V64.52L154.006 64.79C153.966 66.05 153.946 67.31 153.946 68.57C153.946 69.83 153.946 71.11 153.946 72.41V73.7C153.946 74.96 153.946 76.23 153.946 77.51C153.946 78.77 153.966 80.04 154.006 81.32L156.496 81.59V83H147.556V81.59L149.986 81.32C150.026 80.06 150.046 78.79 150.046 77.51C150.046 76.21 150.046 74.9 150.046 73.58H141.916C141.916 75.02 141.916 76.37 141.916 77.63C141.916 78.89 141.936 80.12 141.976 81.32L144.436 81.59V83H135.496V81.59L137.986 81.32C138.026 80.06 138.046 78.8 138.046 77.54C138.046 76.28 138.046 75 138.046 73.7Z" fill="#2C323D"/>
<path d="M173.895 83L168.765 83.27L168.525 80.66C167.805 81.58 167.015 82.27 166.155 82.73C165.295 83.19 164.385 83.42 163.425 83.42C162.805 83.42 162.235 83.32 161.715 83.12C161.215 82.94 160.785 82.64 160.425 82.22C160.085 81.78 159.815 81.22 159.615 80.54C159.435 79.86 159.345 79.02 159.345 78.02L159.465 70.61L157.515 70.19V69.02L162.765 68.39L163.125 68.72L162.975 72.92V77.9C162.975 79.04 163.145 79.83 163.485 80.27C163.845 80.71 164.355 80.93 165.015 80.93C165.575 80.93 166.145 80.78 166.725 80.48C167.325 80.16 167.895 79.74 168.435 79.22L168.525 70.61L166.635 70.19V69.08L171.765 68.39L172.155 68.72L172.065 72.92V81.38L173.895 81.77V83Z" fill="#2C323D"/>
<path d="M186.217 68.21C188.197 68.21 189.447 69.13 189.967 70.97C190.787 69.97 191.617 69.26 192.457 68.84C193.317 68.42 194.207 68.21 195.127 68.21C196.487 68.21 197.507 68.63 198.187 69.47C198.867 70.31 199.207 71.65 199.207 73.49V76.7C199.207 77.38 199.207 78.15 199.207 79.01C199.207 79.85 199.217 80.65 199.237 81.41L201.067 81.77V83H193.747V81.77L195.607 81.38C195.627 80.64 195.637 79.85 195.637 79.01C195.637 78.15 195.637 77.38 195.637 76.7V73.94C195.637 72.68 195.467 71.83 195.127 71.39C194.807 70.95 194.267 70.73 193.507 70.73C192.447 70.73 191.347 71.24 190.207 72.26C190.227 72.46 190.237 72.67 190.237 72.89C190.257 73.11 190.267 73.34 190.267 73.58V76.7C190.267 77.38 190.267 78.15 190.267 79.01C190.267 79.85 190.277 80.65 190.297 81.41L192.097 81.77V83H184.747V81.77L186.667 81.38C186.687 80.64 186.697 79.85 186.697 79.01C186.697 78.15 186.697 77.38 186.697 76.7V74C186.697 72.78 186.537 71.93 186.217 71.45C185.917 70.97 185.377 70.73 184.597 70.73C184.017 70.73 183.457 70.87 182.917 71.15C182.377 71.41 181.847 71.77 181.327 72.23V76.7C181.327 77.36 181.327 78.12 181.327 78.98C181.327 79.84 181.337 80.65 181.357 81.41L183.127 81.77V83H175.717V81.77L177.667 81.38C177.687 80.64 177.697 79.84 177.697 78.98C177.697 78.1 177.697 77.34 177.697 76.7V75.11C177.697 74.69 177.697 74.33 177.697 74.03C177.697 73.71 177.687 73.42 177.667 73.16C177.667 72.88 177.657 72.61 177.637 72.35C177.637 72.09 177.627 71.81 177.607 71.51L175.507 71.24V70.1L180.517 68.21L180.997 68.51L181.237 70.85C181.957 70.01 182.737 69.36 183.577 68.9C184.417 68.44 185.297 68.21 186.217 68.21Z" fill="#2C323D"/>
<path d="M208.489 81.23C208.889 81.23 209.259 81.15 209.599 80.99C209.959 80.81 210.459 80.49 211.099 80.03V75.26C210.679 75.4 210.279 75.53 209.899 75.65C209.539 75.77 209.229 75.88 208.969 75.98C207.969 76.38 207.279 76.85 206.899 77.39C206.539 77.91 206.359 78.45 206.359 79.01C206.359 79.79 206.559 80.36 206.959 80.72C207.379 81.06 207.889 81.23 208.489 81.23ZM214.159 83.36C213.359 83.36 212.709 83.16 212.209 82.76C211.709 82.36 211.369 81.81 211.189 81.11C210.829 81.49 210.489 81.83 210.169 82.13C209.849 82.41 209.519 82.65 209.179 82.85C208.859 83.03 208.509 83.17 208.129 83.27C207.749 83.37 207.319 83.42 206.839 83.42C206.279 83.42 205.749 83.34 205.249 83.18C204.769 83.02 204.349 82.78 203.989 82.46C203.629 82.14 203.349 81.75 203.149 81.29C202.949 80.81 202.849 80.26 202.849 79.64C202.849 79.16 202.919 78.71 203.059 78.29C203.219 77.87 203.499 77.47 203.899 77.09C204.319 76.69 204.869 76.31 205.549 75.95C206.249 75.59 207.139 75.24 208.219 74.9C208.619 74.76 209.069 74.62 209.569 74.48C210.069 74.34 210.579 74.2 211.099 74.06V73.22C211.099 72.52 211.049 71.94 210.949 71.48C210.869 71.02 210.719 70.66 210.499 70.4C210.299 70.12 210.029 69.93 209.689 69.83C209.349 69.71 208.939 69.65 208.459 69.65C208.279 69.65 208.079 69.66 207.859 69.68C207.659 69.7 207.449 69.73 207.229 69.77L206.869 71.42C206.769 72.14 206.549 72.67 206.209 73.01C205.889 73.35 205.479 73.52 204.979 73.52C204.019 73.52 203.459 73.07 203.299 72.17C203.479 70.97 204.119 70.01 205.219 69.29C206.319 68.57 207.789 68.21 209.629 68.21C211.389 68.21 212.659 68.63 213.439 69.47C214.239 70.29 214.639 71.68 214.639 73.64V80.18C214.639 80.66 214.709 81.01 214.849 81.23C215.009 81.43 215.229 81.53 215.509 81.53C215.889 81.53 216.239 81.31 216.559 80.87L217.249 81.47C216.889 82.17 216.459 82.66 215.959 82.94C215.479 83.22 214.879 83.36 214.159 83.36Z" fill="#2C323D"/>
<path d="M228.817 68.21C230.137 68.21 231.147 68.64 231.847 69.5C232.547 70.34 232.897 71.7 232.897 73.58V76.7C232.897 77.38 232.897 78.15 232.897 79.01C232.897 79.87 232.907 80.67 232.927 81.41L234.757 81.77V83H227.347V81.77L229.267 81.38C229.287 80.64 229.297 79.85 229.297 79.01C229.297 78.15 229.297 77.38 229.297 76.7V73.85C229.297 72.67 229.137 71.86 228.817 71.42C228.497 70.96 227.957 70.73 227.197 70.73C226.097 70.73 224.977 71.23 223.837 72.23V76.7C223.837 77.36 223.837 78.12 223.837 78.98C223.837 79.84 223.847 80.65 223.867 81.41L225.637 81.77V83H218.227V81.77L220.177 81.38C220.197 80.64 220.207 79.84 220.207 78.98C220.207 78.1 220.207 77.34 220.207 76.7V75.11C220.207 74.69 220.207 74.33 220.207 74.03C220.207 73.71 220.197 73.42 220.177 73.16C220.177 72.88 220.167 72.61 220.147 72.35C220.147 72.09 220.137 71.81 220.117 71.51L218.017 71.24V70.1L223.027 68.21L223.507 68.51L223.717 70.82C225.277 69.08 226.977 68.21 228.817 68.21Z" fill="#2C323D"/>
<path d="M240.287 65.42C239.647 65.42 239.107 65.22 238.667 64.82C238.227 64.42 238.007 63.91 238.007 63.29C238.007 62.65 238.227 62.13 238.667 61.73C239.107 61.33 239.647 61.13 240.287 61.13C240.927 61.13 241.457 61.33 241.877 61.73C242.317 62.13 242.537 62.65 242.537 63.29C242.537 63.91 242.317 64.42 241.877 64.82C241.457 65.22 240.927 65.42 240.287 65.42ZM243.947 83H236.507V81.77L238.487 81.38C238.507 80.64 238.517 79.84 238.517 78.98C238.517 78.1 238.517 77.34 238.517 76.7V75.29C238.517 74.47 238.507 73.79 238.487 73.25C238.467 72.69 238.447 72.11 238.427 71.51L236.297 71.24V70.1L241.697 68.21L242.177 68.51L242.087 72.74V76.7C242.087 77.34 242.087 78.1 242.087 78.98C242.087 79.84 242.097 80.65 242.117 81.41L243.947 81.77V83Z" fill="#2C323D"/>
<path d="M250.896 79.31C250.896 80.05 251.036 80.59 251.316 80.93C251.616 81.27 252.006 81.44 252.486 81.44C252.786 81.44 253.076 81.38 253.356 81.26C253.656 81.14 253.976 80.95 254.316 80.69L255.036 81.44C254.636 82.08 254.106 82.57 253.446 82.91C252.806 83.25 252.016 83.42 251.076 83.42C249.876 83.42 248.936 83.12 248.256 82.52C247.576 81.92 247.236 80.96 247.236 79.64C247.236 79.18 247.236 78.75 247.236 78.35C247.256 77.93 247.266 77.43 247.266 76.85V70.46H245.046V68.9L247.476 68.6L248.616 64.49H251.046L250.926 68.63H254.526V70.46H250.896V79.31Z" fill="#2C323D"/>
<path d="M257.911 90.29C257.131 90.29 256.451 90.09 255.871 89.69C255.311 89.29 255.011 88.79 254.971 88.19C255.091 87.65 255.361 87.24 255.781 86.96C256.221 86.7 256.701 86.57 257.221 86.57C257.621 86.57 258.011 86.65 258.391 86.81C258.791 86.99 259.191 87.33 259.591 87.83L259.771 88.07C260.311 87.55 260.771 86.95 261.151 86.27C261.551 85.61 261.891 84.9 262.171 84.14L262.231 83.96L256.531 70.07L255.001 69.83V68.63H262.861V69.83L260.491 70.16L263.851 79.37L267.121 70.19L264.841 69.83V68.63H270.601V69.83L268.921 70.16L263.791 83.54C263.351 84.68 262.921 85.67 262.501 86.51C262.081 87.37 261.641 88.08 261.181 88.64C260.721 89.2 260.221 89.61 259.681 89.87C259.161 90.15 258.571 90.29 257.911 90.29Z" fill="#2C323D"/>
<path d="M122.303 117.24C121.383 117.24 120.53 117.067 119.743 116.72C118.957 116.373 118.277 115.9 117.703 115.3L118.703 114.14C119.17 114.633 119.717 115.033 120.343 115.34C120.983 115.633 121.643 115.78 122.323 115.78C123.19 115.78 123.863 115.587 124.343 115.2C124.823 114.8 125.063 114.28 125.063 113.64C125.063 113.307 125.003 113.027 124.883 112.8C124.777 112.56 124.623 112.36 124.423 112.2C124.237 112.027 124.01 111.873 123.743 111.74C123.477 111.607 123.19 111.467 122.883 111.32L121.003 110.5C120.697 110.367 120.383 110.207 120.063 110.02C119.743 109.833 119.457 109.607 119.203 109.34C118.95 109.073 118.743 108.76 118.583 108.4C118.423 108.027 118.343 107.6 118.343 107.12C118.343 106.627 118.443 106.167 118.643 105.74C118.857 105.313 119.143 104.947 119.503 104.64C119.877 104.32 120.31 104.073 120.803 103.9C121.31 103.727 121.863 103.64 122.463 103.64C123.25 103.64 123.977 103.793 124.643 104.1C125.31 104.393 125.877 104.78 126.343 105.26L125.443 106.34C125.043 105.953 124.597 105.653 124.103 105.44C123.623 105.213 123.077 105.1 122.463 105.1C121.73 105.1 121.137 105.273 120.683 105.62C120.243 105.953 120.023 106.42 120.023 107.02C120.023 107.34 120.083 107.613 120.203 107.84C120.337 108.053 120.51 108.247 120.723 108.42C120.937 108.58 121.17 108.727 121.423 108.86C121.677 108.98 121.937 109.093 122.203 109.2L124.063 110C124.437 110.16 124.79 110.347 125.123 110.56C125.457 110.76 125.743 111 125.983 111.28C126.223 111.547 126.41 111.867 126.543 112.24C126.69 112.6 126.763 113.02 126.763 113.5C126.763 114.02 126.657 114.507 126.443 114.96C126.243 115.413 125.95 115.813 125.563 116.16C125.177 116.493 124.71 116.76 124.163 116.96C123.617 117.147 122.997 117.24 122.303 117.24Z" fill="#69707D"/>
<path d="M129.187 121.1V107.28H130.547L130.687 108.4H130.747C131.187 108.027 131.667 107.707 132.187 107.44C132.72 107.173 133.274 107.04 133.847 107.04C134.474 107.04 135.027 107.16 135.507 107.4C135.987 107.627 136.387 107.96 136.707 108.4C137.027 108.827 137.267 109.347 137.427 109.96C137.6 110.56 137.687 111.24 137.687 112C137.687 112.827 137.574 113.567 137.347 114.22C137.12 114.86 136.814 115.407 136.427 115.86C136.04 116.313 135.594 116.66 135.087 116.9C134.58 117.127 134.047 117.24 133.487 117.24C133.034 117.24 132.58 117.14 132.127 116.94C131.687 116.74 131.24 116.467 130.787 116.12L130.827 117.82V121.1H129.187ZM133.207 115.86C133.607 115.86 133.974 115.773 134.307 115.6C134.654 115.413 134.947 115.16 135.187 114.84C135.44 114.507 135.634 114.1 135.767 113.62C135.914 113.14 135.987 112.6 135.987 112C135.987 111.467 135.94 110.98 135.847 110.54C135.754 110.1 135.6 109.727 135.387 109.42C135.187 109.1 134.92 108.853 134.587 108.68C134.267 108.507 133.88 108.42 133.427 108.42C133.014 108.42 132.594 108.533 132.167 108.76C131.754 108.987 131.307 109.313 130.827 109.74V114.84C131.267 115.213 131.694 115.48 132.107 115.64C132.52 115.787 132.887 115.86 133.207 115.86Z" fill="#69707D"/>
<path d="M140.281 117V107.28H141.641L141.781 109.04H141.841C142.174 108.427 142.574 107.94 143.041 107.58C143.521 107.22 144.041 107.04 144.601 107.04C144.987 107.04 145.334 107.107 145.641 107.24L145.321 108.68C145.161 108.627 145.014 108.587 144.881 108.56C144.747 108.533 144.581 108.52 144.381 108.52C143.967 108.52 143.534 108.687 143.081 109.02C142.641 109.353 142.254 109.933 141.921 110.76V117H140.281Z" fill="#69707D"/>
<path d="M150.054 117.24C149.014 117.24 148.254 116.92 147.774 116.28C147.308 115.64 147.074 114.693 147.074 113.44V107.28H148.734V113.22C148.734 114.14 148.874 114.807 149.154 115.22C149.448 115.62 149.914 115.82 150.554 115.82C151.061 115.82 151.508 115.693 151.894 115.44C152.281 115.173 152.708 114.753 153.174 114.18V107.28H154.814V117H153.454L153.314 115.48H153.254C152.801 116.013 152.321 116.44 151.814 116.76C151.321 117.08 150.734 117.24 150.054 117.24Z" fill="#69707D"/>
<path d="M161.933 117.24C161.293 117.24 160.693 117.127 160.133 116.9C159.573 116.673 159.086 116.347 158.673 115.92C158.273 115.48 157.953 114.947 157.713 114.32C157.486 113.68 157.373 112.96 157.373 112.16C157.373 111.347 157.5 110.627 157.753 110C158.006 109.36 158.346 108.82 158.773 108.38C159.2 107.94 159.693 107.607 160.253 107.38C160.826 107.153 161.426 107.04 162.053 107.04C162.693 107.04 163.24 107.153 163.693 107.38C164.146 107.607 164.546 107.873 164.893 108.18L164.053 109.26C163.773 109.007 163.473 108.8 163.153 108.64C162.846 108.48 162.5 108.4 162.113 108.4C161.673 108.4 161.266 108.493 160.893 108.68C160.52 108.853 160.2 109.107 159.933 109.44C159.666 109.773 159.453 110.173 159.293 110.64C159.146 111.093 159.073 111.6 159.073 112.16C159.073 112.72 159.146 113.227 159.293 113.68C159.44 114.133 159.64 114.527 159.893 114.86C160.16 115.18 160.48 115.433 160.853 115.62C161.226 115.793 161.633 115.88 162.073 115.88C162.526 115.88 162.94 115.787 163.313 115.6C163.7 115.4 164.046 115.167 164.353 114.9L165.073 116C164.633 116.387 164.146 116.693 163.613 116.92C163.08 117.133 162.52 117.24 161.933 117.24Z" fill="#69707D"/>
<path d="M170.725 117.24C170.071 117.24 169.458 117.127 168.885 116.9C168.325 116.66 167.831 116.327 167.405 115.9C166.991 115.46 166.665 114.927 166.425 114.3C166.185 113.673 166.065 112.96 166.065 112.16C166.065 111.36 166.185 110.647 166.425 110.02C166.678 109.38 167.005 108.84 167.405 108.4C167.818 107.96 168.285 107.627 168.805 107.4C169.325 107.16 169.865 107.04 170.425 107.04C171.038 107.04 171.585 107.147 172.065 107.36C172.558 107.573 172.965 107.88 173.285 108.28C173.618 108.68 173.871 109.16 174.045 109.72C174.218 110.28 174.305 110.907 174.305 111.6C174.305 111.773 174.298 111.947 174.285 112.12C174.285 112.28 174.271 112.42 174.245 112.54H167.685C167.751 113.58 168.071 114.407 168.645 115.02C169.231 115.62 169.991 115.92 170.925 115.92C171.391 115.92 171.818 115.853 172.205 115.72C172.605 115.573 172.985 115.387 173.345 115.16L173.925 116.24C173.498 116.507 173.025 116.74 172.505 116.94C171.985 117.14 171.391 117.24 170.725 117.24ZM167.665 111.36H172.865C172.865 110.373 172.651 109.627 172.225 109.12C171.811 108.6 171.225 108.34 170.465 108.34C170.118 108.34 169.785 108.407 169.465 108.54C169.158 108.673 168.878 108.873 168.625 109.14C168.371 109.393 168.158 109.707 167.985 110.08C167.825 110.453 167.718 110.88 167.665 111.36Z" fill="#69707D"/>
<path d="M181.006 117.24C180.553 117.24 180.08 117.133 179.586 116.92C179.106 116.693 178.653 116.387 178.226 116H178.166L178.026 117H176.706V102.76H178.346V106.64L178.306 108.4C178.746 108.013 179.226 107.693 179.746 107.44C180.266 107.173 180.8 107.04 181.346 107.04C181.973 107.04 182.526 107.16 183.006 107.4C183.486 107.627 183.886 107.96 184.206 108.4C184.54 108.827 184.786 109.347 184.946 109.96C185.12 110.56 185.206 111.233 185.206 111.98C185.206 112.807 185.093 113.547 184.866 114.2C184.64 114.853 184.333 115.407 183.946 115.86C183.56 116.313 183.113 116.66 182.606 116.9C182.1 117.127 181.566 117.24 181.006 117.24ZM180.726 115.86C181.126 115.86 181.493 115.773 181.826 115.6C182.173 115.413 182.466 115.16 182.706 114.84C182.96 114.507 183.153 114.1 183.286 113.62C183.433 113.14 183.506 112.6 183.506 112C183.506 111.467 183.46 110.98 183.366 110.54C183.273 110.1 183.12 109.727 182.906 109.42C182.706 109.1 182.44 108.853 182.106 108.68C181.786 108.507 181.4 108.42 180.946 108.42C180.16 108.42 179.293 108.86 178.346 109.74V114.84C178.773 115.213 179.193 115.48 179.606 115.64C180.033 115.787 180.406 115.86 180.726 115.86Z" fill="#69707D"/>
<path d="M191.541 117.24C190.941 117.24 190.368 117.127 189.821 116.9C189.288 116.673 188.814 116.347 188.401 115.92C187.988 115.48 187.654 114.947 187.401 114.32C187.161 113.68 187.041 112.96 187.041 112.16C187.041 111.347 187.161 110.627 187.401 110C187.654 109.36 187.988 108.82 188.401 108.38C188.814 107.94 189.288 107.607 189.821 107.38C190.368 107.153 190.941 107.04 191.541 107.04C192.141 107.04 192.708 107.153 193.241 107.38C193.788 107.607 194.268 107.94 194.681 108.38C195.094 108.82 195.421 109.36 195.661 110C195.914 110.627 196.041 111.347 196.041 112.16C196.041 112.96 195.914 113.68 195.661 114.32C195.421 114.947 195.094 115.48 194.681 115.92C194.268 116.347 193.788 116.673 193.241 116.9C192.708 117.127 192.141 117.24 191.541 117.24ZM191.541 115.88C191.954 115.88 192.334 115.793 192.681 115.62C193.028 115.433 193.321 115.18 193.561 114.86C193.814 114.527 194.008 114.133 194.141 113.68C194.274 113.227 194.341 112.72 194.341 112.16C194.341 111.6 194.274 111.093 194.141 110.64C194.008 110.173 193.814 109.773 193.561 109.44C193.321 109.107 193.028 108.853 192.681 108.68C192.334 108.493 191.954 108.4 191.541 108.4C191.128 108.4 190.748 108.493 190.401 108.68C190.054 108.853 189.754 109.107 189.501 109.44C189.261 109.773 189.074 110.173 188.941 110.64C188.808 111.093 188.741 111.6 188.741 112.16C188.741 112.72 188.808 113.227 188.941 113.68C189.074 114.133 189.261 114.527 189.501 114.86C189.754 115.18 190.054 115.433 190.401 115.62C190.748 115.793 191.128 115.88 191.541 115.88Z" fill="#69707D"/>
<path d="M201.329 117.24C200.809 117.24 200.369 117.16 200.009 117C199.662 116.84 199.376 116.62 199.149 116.34C198.936 116.06 198.782 115.72 198.689 115.32C198.596 114.92 198.549 114.48 198.549 114V108.62H197.109V107.38L198.629 107.28L198.829 104.56H200.209V107.28H202.829V108.62H200.209V114.02C200.209 114.62 200.316 115.087 200.529 115.42C200.756 115.74 201.149 115.9 201.709 115.9C201.882 115.9 202.069 115.873 202.269 115.82C202.469 115.767 202.649 115.707 202.809 115.64L203.129 116.88C202.862 116.973 202.569 117.053 202.249 117.12C201.942 117.2 201.636 117.24 201.329 117.24Z" fill="#69707D"/>
<path d="M212.971 117.24C212.317 117.24 211.704 117.127 211.131 116.9C210.571 116.66 210.077 116.327 209.651 115.9C209.237 115.46 208.911 114.927 208.671 114.3C208.431 113.673 208.311 112.96 208.311 112.16C208.311 111.36 208.431 110.647 208.671 110.02C208.924 109.38 209.251 108.84 209.651 108.4C210.064 107.96 210.531 107.627 211.051 107.4C211.571 107.16 212.111 107.04 212.671 107.04C213.284 107.04 213.831 107.147 214.311 107.36C214.804 107.573 215.211 107.88 215.531 108.28C215.864 108.68 216.117 109.16 216.291 109.72C216.464 110.28 216.551 110.907 216.551 111.6C216.551 111.773 216.544 111.947 216.531 112.12C216.531 112.28 216.517 112.42 216.491 112.54H209.931C209.997 113.58 210.317 114.407 210.891 115.02C211.477 115.62 212.237 115.92 213.171 115.92C213.637 115.92 214.064 115.853 214.451 115.72C214.851 115.573 215.231 115.387 215.591 115.16L216.171 116.24C215.744 116.507 215.271 116.74 214.751 116.94C214.231 117.14 213.637 117.24 212.971 117.24ZM209.911 111.36H215.111C215.111 110.373 214.897 109.627 214.471 109.12C214.057 108.6 213.471 108.34 212.711 108.34C212.364 108.34 212.031 108.407 211.711 108.54C211.404 108.673 211.124 108.873 210.871 109.14C210.617 109.393 210.404 109.707 210.231 110.08C210.071 110.453 209.964 110.88 209.911 111.36Z" fill="#69707D"/>
<path d="M218.953 117V107.28H220.313L220.453 108.68H220.513C220.979 108.213 221.466 107.827 221.973 107.52C222.493 107.2 223.093 107.04 223.773 107.04C224.799 107.04 225.546 107.36 226.013 108C226.493 108.64 226.733 109.587 226.733 110.84V117H225.093V111.06C225.093 110.14 224.946 109.48 224.653 109.08C224.359 108.667 223.893 108.46 223.253 108.46C222.746 108.46 222.299 108.587 221.913 108.84C221.526 109.093 221.086 109.467 220.593 109.96V117H218.953Z" fill="#69707D"/>
<path d="M229.89 117V102.76H231.53V106.64L231.47 108.64C231.937 108.2 232.423 107.827 232.93 107.52C233.437 107.2 234.03 107.04 234.71 107.04C235.737 107.04 236.483 107.36 236.95 108C237.43 108.64 237.67 109.587 237.67 110.84V117H236.03V111.06C236.03 110.14 235.883 109.48 235.59 109.08C235.297 108.667 234.83 108.46 234.19 108.46C233.683 108.46 233.237 108.587 232.85 108.84C232.463 109.093 232.023 109.467 231.53 109.96V117H229.89Z" fill="#69707D"/>
<path d="M243.009 117.24C242.196 117.24 241.516 117 240.969 116.52C240.436 116.04 240.169 115.36 240.169 114.48C240.169 113.413 240.642 112.6 241.589 112.04C242.536 111.467 244.049 111.067 246.129 110.84C246.129 110.533 246.096 110.233 246.029 109.94C245.976 109.647 245.876 109.387 245.729 109.16C245.582 108.933 245.376 108.753 245.109 108.62C244.856 108.473 244.529 108.4 244.129 108.4C243.569 108.4 243.042 108.507 242.549 108.72C242.056 108.933 241.616 109.173 241.229 109.44L240.589 108.3C241.042 108.007 241.596 107.727 242.249 107.46C242.902 107.18 243.622 107.04 244.409 107.04C245.596 107.04 246.456 107.407 246.989 108.14C247.522 108.86 247.789 109.827 247.789 111.04V117H246.429L246.289 115.84H246.229C245.762 116.227 245.262 116.56 244.729 116.84C244.196 117.107 243.622 117.24 243.009 117.24ZM243.489 115.92C243.956 115.92 244.396 115.813 244.809 115.6C245.222 115.373 245.662 115.047 246.129 114.62V111.92C245.316 112.027 244.629 112.153 244.069 112.3C243.522 112.447 243.076 112.62 242.729 112.82C242.396 113.02 242.149 113.253 241.989 113.52C241.842 113.773 241.769 114.053 241.769 114.36C241.769 114.92 241.936 115.32 242.269 115.56C242.602 115.8 243.009 115.92 243.489 115.92Z" fill="#69707D"/>
<path d="M250.847 117V107.28H252.207L252.347 108.68H252.407C252.874 108.213 253.36 107.827 253.867 107.52C254.387 107.2 254.987 107.04 255.667 107.04C256.694 107.04 257.44 107.36 257.907 108C258.387 108.64 258.627 109.587 258.627 110.84V117H256.987V111.06C256.987 110.14 256.84 109.48 256.547 109.08C256.254 108.667 255.787 108.46 255.147 108.46C254.64 108.46 254.194 108.587 253.807 108.84C253.42 109.093 252.98 109.467 252.487 109.96V117H250.847Z" fill="#69707D"/>
<path d="M265.625 117.24C264.985 117.24 264.385 117.127 263.825 116.9C263.265 116.673 262.778 116.347 262.365 115.92C261.965 115.48 261.645 114.947 261.405 114.32C261.178 113.68 261.065 112.96 261.065 112.16C261.065 111.347 261.191 110.627 261.445 110C261.698 109.36 262.038 108.82 262.465 108.38C262.891 107.94 263.385 107.607 263.945 107.38C264.518 107.153 265.118 107.04 265.745 107.04C266.385 107.04 266.931 107.153 267.385 107.38C267.838 107.607 268.238 107.873 268.585 108.18L267.745 109.26C267.465 109.007 267.165 108.8 266.845 108.64C266.538 108.48 266.191 108.4 265.805 108.4C265.365 108.4 264.958 108.493 264.585 108.68C264.211 108.853 263.891 109.107 263.625 109.44C263.358 109.773 263.145 110.173 262.985 110.64C262.838 111.093 262.765 111.6 262.765 112.16C262.765 112.72 262.838 113.227 262.985 113.68C263.131 114.133 263.331 114.527 263.585 114.86C263.851 115.18 264.171 115.433 264.545 115.62C264.918 115.793 265.325 115.88 265.765 115.88C266.218 115.88 266.631 115.787 267.005 115.6C267.391 115.4 267.738 115.167 268.045 114.9L268.765 116C268.325 116.387 267.838 116.693 267.305 116.92C266.771 117.133 266.211 117.24 265.625 117.24Z" fill="#69707D"/>
<path d="M274.416 117.24C273.763 117.24 273.149 117.127 272.576 116.9C272.016 116.66 271.523 116.327 271.096 115.9C270.683 115.46 270.356 114.927 270.116 114.3C269.876 113.673 269.756 112.96 269.756 112.16C269.756 111.36 269.876 110.647 270.116 110.02C270.369 109.38 270.696 108.84 271.096 108.4C271.509 107.96 271.976 107.627 272.496 107.4C273.016 107.16 273.556 107.04 274.116 107.04C274.729 107.04 275.276 107.147 275.756 107.36C276.249 107.573 276.656 107.88 276.976 108.28C277.309 108.68 277.563 109.16 277.736 109.72C277.909 110.28 277.996 110.907 277.996 111.6C277.996 111.773 277.989 111.947 277.976 112.12C277.976 112.28 277.963 112.42 277.936 112.54H271.376C271.443 113.58 271.763 114.407 272.336 115.02C272.923 115.62 273.683 115.92 274.616 115.92C275.083 115.92 275.509 115.853 275.896 115.72C276.296 115.573 276.676 115.387 277.036 115.16L277.616 116.24C277.189 116.507 276.716 116.74 276.196 116.94C275.676 117.14 275.083 117.24 274.416 117.24ZM271.356 111.36H276.556C276.556 110.373 276.343 109.627 275.916 109.12C275.503 108.6 274.916 108.34 274.156 108.34C273.809 108.34 273.476 108.407 273.156 108.54C272.849 108.673 272.569 108.873 272.316 109.14C272.063 109.393 271.849 109.707 271.676 110.08C271.516 110.453 271.409 110.88 271.356 111.36Z" fill="#69707D"/>
<path d="M282.938 117.24C282.244 117.24 281.584 117.113 280.958 116.86C280.331 116.607 279.784 116.287 279.318 115.9L280.138 114.8C280.564 115.147 280.998 115.427 281.438 115.64C281.891 115.853 282.411 115.96 282.998 115.96C283.638 115.96 284.118 115.813 284.438 115.52C284.758 115.227 284.918 114.867 284.918 114.44C284.918 114.187 284.851 113.967 284.718 113.78C284.585 113.593 284.411 113.433 284.198 113.3C283.998 113.153 283.764 113.027 283.498 112.92C283.231 112.813 282.964 112.707 282.698 112.6C282.351 112.48 282.004 112.347 281.658 112.2C281.311 112.04 280.998 111.853 280.718 111.64C280.451 111.413 280.231 111.153 280.058 110.86C279.884 110.567 279.798 110.213 279.798 109.8C279.798 109.413 279.871 109.053 280.018 108.72C280.178 108.373 280.398 108.08 280.678 107.84C280.971 107.587 281.324 107.393 281.738 107.26C282.151 107.113 282.618 107.04 283.138 107.04C283.751 107.04 284.311 107.147 284.818 107.36C285.338 107.573 285.784 107.833 286.158 108.14L285.378 109.18C285.044 108.927 284.698 108.72 284.338 108.56C283.978 108.4 283.584 108.32 283.158 108.32C282.544 108.32 282.091 108.46 281.798 108.74C281.518 109.02 281.378 109.347 281.378 109.72C281.378 109.947 281.438 110.147 281.558 110.32C281.678 110.48 281.838 110.627 282.038 110.76C282.238 110.88 282.465 110.993 282.718 111.1C282.985 111.193 283.258 111.293 283.538 111.4C283.884 111.533 284.231 111.673 284.578 111.82C284.938 111.967 285.258 112.153 285.538 112.38C285.818 112.593 286.045 112.86 286.218 113.18C286.405 113.5 286.498 113.887 286.498 114.34C286.498 114.74 286.418 115.113 286.258 115.46C286.111 115.807 285.885 116.113 285.578 116.38C285.285 116.647 284.911 116.853 284.458 117C284.018 117.16 283.511 117.24 282.938 117.24Z" fill="#69707D"/>
<path d="M82.0287 142V127.76H83.6687V131.64L83.6087 133.64C84.0754 133.2 84.562 132.827 85.0687 132.52C85.5754 132.2 86.1687 132.04 86.8487 132.04C87.8754 132.04 88.622 132.36 89.0887 133C89.5687 133.64 89.8087 134.587 89.8087 135.84V142H88.1687V136.06C88.1687 135.14 88.022 134.48 87.7287 134.08C87.4354 133.667 86.9687 133.46 86.3287 133.46C85.822 133.46 85.3754 133.587 84.9887 133.84C84.602 134.093 84.162 134.467 83.6687 134.96V142H82.0287Z" fill="#69707D"/>
<path d="M95.7476 142.24C94.7076 142.24 93.9476 141.92 93.4676 141.28C93.0009 140.64 92.7676 139.693 92.7676 138.44V132.28H94.4276V138.22C94.4276 139.14 94.5676 139.807 94.8476 140.22C95.1409 140.62 95.6076 140.82 96.2476 140.82C96.7543 140.82 97.2009 140.693 97.5876 140.44C97.9743 140.173 98.4009 139.753 98.8676 139.18V132.28H100.508V142H99.1476L99.0076 140.48H98.9476C98.4943 141.013 98.0143 141.44 97.5076 141.76C97.0143 142.08 96.4276 142.24 95.7476 142.24Z" fill="#69707D"/>
<path d="M103.786 142V132.28H105.146L105.286 133.68H105.347C105.773 133.213 106.233 132.827 106.727 132.52C107.233 132.2 107.78 132.04 108.367 132.04C109.113 132.04 109.693 132.207 110.106 132.54C110.533 132.86 110.847 133.313 111.047 133.9C111.553 133.34 112.06 132.893 112.566 132.56C113.086 132.213 113.646 132.04 114.246 132.04C115.246 132.04 115.986 132.36 116.466 133C116.96 133.64 117.206 134.587 117.206 135.84V142H115.566V136.06C115.566 135.14 115.42 134.48 115.127 134.08C114.833 133.667 114.38 133.46 113.767 133.46C113.033 133.46 112.22 133.96 111.326 134.96V142H109.687V136.06C109.687 135.14 109.54 134.48 109.246 134.08C108.953 133.667 108.493 133.46 107.867 133.46C107.133 133.46 106.32 133.96 105.426 134.96V142H103.786Z" fill="#69707D"/>
<path d="M122.609 142.24C121.795 142.24 121.115 142 120.569 141.52C120.035 141.04 119.769 140.36 119.769 139.48C119.769 138.413 120.242 137.6 121.189 137.04C122.135 136.467 123.649 136.067 125.729 135.84C125.729 135.533 125.695 135.233 125.629 134.94C125.575 134.647 125.475 134.387 125.329 134.16C125.182 133.933 124.975 133.753 124.709 133.62C124.455 133.473 124.129 133.4 123.729 133.4C123.169 133.4 122.642 133.507 122.149 133.72C121.655 133.933 121.215 134.173 120.829 134.44L120.189 133.3C120.642 133.007 121.195 132.727 121.849 132.46C122.502 132.18 123.222 132.04 124.009 132.04C125.195 132.04 126.055 132.407 126.589 133.14C127.122 133.86 127.389 134.827 127.389 136.04V142H126.029L125.889 140.84H125.829C125.362 141.227 124.862 141.56 124.329 141.84C123.795 142.107 123.222 142.24 122.609 142.24ZM123.089 140.92C123.555 140.92 123.995 140.813 124.409 140.6C124.822 140.373 125.262 140.047 125.729 139.62V136.92C124.915 137.027 124.229 137.153 123.669 137.3C123.122 137.447 122.675 137.62 122.329 137.82C121.995 138.02 121.749 138.253 121.589 138.52C121.442 138.773 121.369 139.053 121.369 139.36C121.369 139.92 121.535 140.32 121.869 140.56C122.202 140.8 122.609 140.92 123.089 140.92Z" fill="#69707D"/>
<path d="M130.447 142V132.28H131.807L131.947 133.68H132.007C132.473 133.213 132.96 132.827 133.467 132.52C133.987 132.2 134.587 132.04 135.267 132.04C136.293 132.04 137.04 132.36 137.507 133C137.987 133.64 138.227 134.587 138.227 135.84V142H136.587V136.06C136.587 135.14 136.44 134.48 136.147 134.08C135.853 133.667 135.387 133.46 134.747 133.46C134.24 133.46 133.793 133.587 133.407 133.84C133.02 134.093 132.58 134.467 132.087 134.96V142H130.447Z" fill="#69707D"/>
<path d="M140.564 137.62V136.36H145.164V137.62H140.564Z" fill="#69707D"/>
<path d="M150.128 142.24C149.608 142.24 149.168 142.16 148.808 142C148.461 141.84 148.174 141.62 147.948 141.34C147.734 141.06 147.581 140.72 147.488 140.32C147.394 139.92 147.348 139.48 147.348 139V133.62H145.908V132.38L147.428 132.28L147.628 129.56H149.008V132.28H151.628V133.62H149.008V139.02C149.008 139.62 149.114 140.087 149.328 140.42C149.554 140.74 149.948 140.9 150.508 140.9C150.681 140.9 150.868 140.873 151.068 140.82C151.268 140.767 151.448 140.707 151.608 140.64L151.928 141.88C151.661 141.973 151.368 142.053 151.048 142.12C150.741 142.2 150.434 142.24 150.128 142.24Z" fill="#69707D"/>
<path d="M157.332 142.24C156.732 142.24 156.159 142.127 155.612 141.9C155.079 141.673 154.605 141.347 154.192 140.92C153.779 140.48 153.445 139.947 153.192 139.32C152.952 138.68 152.832 137.96 152.832 137.16C152.832 136.347 152.952 135.627 153.192 135C153.445 134.36 153.779 133.82 154.192 133.38C154.605 132.94 155.079 132.607 155.612 132.38C156.159 132.153 156.732 132.04 157.332 132.04C157.932 132.04 158.499 132.153 159.032 132.38C159.579 132.607 160.059 132.94 160.472 133.38C160.885 133.82 161.212 134.36 161.452 135C161.705 135.627 161.832 136.347 161.832 137.16C161.832 137.96 161.705 138.68 161.452 139.32C161.212 139.947 160.885 140.48 160.472 140.92C160.059 141.347 159.579 141.673 159.032 141.9C158.499 142.127 157.932 142.24 157.332 142.24ZM157.332 140.88C157.745 140.88 158.125 140.793 158.472 140.62C158.819 140.433 159.112 140.18 159.352 139.86C159.605 139.527 159.799 139.133 159.932 138.68C160.065 138.227 160.132 137.72 160.132 137.16C160.132 136.6 160.065 136.093 159.932 135.64C159.799 135.173 159.605 134.773 159.352 134.44C159.112 134.107 158.819 133.853 158.472 133.68C158.125 133.493 157.745 133.4 157.332 133.4C156.919 133.4 156.539 133.493 156.192 133.68C155.845 133.853 155.545 134.107 155.292 134.44C155.052 134.773 154.865 135.173 154.732 135.64C154.599 136.093 154.532 136.6 154.532 137.16C154.532 137.72 154.599 138.227 154.732 138.68C154.865 139.133 155.052 139.527 155.292 139.86C155.545 140.18 155.845 140.433 156.192 140.62C156.539 140.793 156.919 140.88 157.332 140.88Z" fill="#69707D"/>
<path d="M163.689 137.62V136.36H168.289V137.62H163.689Z" fill="#69707D"/>
<path d="M170.72 142V127.76H172.36V131.64L172.3 133.64C172.767 133.2 173.253 132.827 173.76 132.52C174.267 132.2 174.86 132.04 175.54 132.04C176.567 132.04 177.313 132.36 177.78 133C178.26 133.64 178.5 134.587 178.5 135.84V142H176.86V136.06C176.86 135.14 176.713 134.48 176.42 134.08C176.127 133.667 175.66 133.46 175.02 133.46C174.513 133.46 174.067 133.587 173.68 133.84C173.293 134.093 172.853 134.467 172.36 134.96V142H170.72Z" fill="#69707D"/>
<path d="M184.439 142.24C183.399 142.24 182.639 141.92 182.159 141.28C181.692 140.64 181.459 139.693 181.459 138.44V132.28H183.119V138.22C183.119 139.14 183.259 139.807 183.539 140.22C183.832 140.62 184.299 140.82 184.939 140.82C185.446 140.82 185.892 140.693 186.279 140.44C186.666 140.173 187.092 139.753 187.559 139.18V132.28H189.199V142H187.839L187.699 140.48H187.639C187.186 141.013 186.706 141.44 186.199 141.76C185.706 142.08 185.119 142.24 184.439 142.24Z" fill="#69707D"/>
<path d="M192.478 142V132.28H193.838L193.978 133.68H194.038C194.465 133.213 194.925 132.827 195.418 132.52C195.925 132.2 196.471 132.04 197.058 132.04C197.805 132.04 198.385 132.207 198.798 132.54C199.225 132.86 199.538 133.313 199.738 133.9C200.245 133.34 200.751 132.893 201.258 132.56C201.778 132.213 202.338 132.04 202.938 132.04C203.938 132.04 204.678 132.36 205.158 133C205.651 133.64 205.898 134.587 205.898 135.84V142H204.258V136.06C204.258 135.14 204.111 134.48 203.818 134.08C203.525 133.667 203.071 133.46 202.458 133.46C201.725 133.46 200.911 133.96 200.018 134.96V142H198.378V136.06C198.378 135.14 198.231 134.48 197.938 134.08C197.645 133.667 197.185 133.46 196.558 133.46C195.825 133.46 195.011 133.96 194.118 134.96V142H192.478Z" fill="#69707D"/>
<path d="M211.3 142.24C210.487 142.24 209.807 142 209.26 141.52C208.727 141.04 208.46 140.36 208.46 139.48C208.46 138.413 208.933 137.6 209.88 137.04C210.827 136.467 212.34 136.067 214.42 135.84C214.42 135.533 214.387 135.233 214.32 134.94C214.267 134.647 214.167 134.387 214.02 134.16C213.873 133.933 213.667 133.753 213.4 133.62C213.147 133.473 212.82 133.4 212.42 133.4C211.86 133.4 211.333 133.507 210.84 133.72C210.347 133.933 209.907 134.173 209.52 134.44L208.88 133.3C209.333 133.007 209.887 132.727 210.54 132.46C211.193 132.18 211.913 132.04 212.7 132.04C213.887 132.04 214.747 132.407 215.28 133.14C215.813 133.86 216.08 134.827 216.08 136.04V142H214.72L214.58 140.84H214.52C214.053 141.227 213.553 141.56 213.02 141.84C212.487 142.107 211.913 142.24 211.3 142.24ZM211.78 140.92C212.247 140.92 212.687 140.813 213.1 140.6C213.513 140.373 213.953 140.047 214.42 139.62V136.92C213.607 137.027 212.92 137.153 212.36 137.3C211.813 137.447 211.367 137.62 211.02 137.82C210.687 138.02 210.44 138.253 210.28 138.52C210.133 138.773 210.06 139.053 210.06 139.36C210.06 139.92 210.227 140.32 210.56 140.56C210.893 140.8 211.3 140.92 211.78 140.92Z" fill="#69707D"/>
<path d="M219.138 142V132.28H220.498L220.638 133.68H220.698C221.165 133.213 221.651 132.827 222.158 132.52C222.678 132.2 223.278 132.04 223.958 132.04C224.985 132.04 225.731 132.36 226.198 133C226.678 133.64 226.918 134.587 226.918 135.84V142H225.278V136.06C225.278 135.14 225.131 134.48 224.838 134.08C224.545 133.667 224.078 133.46 223.438 133.46C222.931 133.46 222.485 133.587 222.098 133.84C221.711 134.093 221.271 134.467 220.778 134.96V142H219.138Z" fill="#69707D"/>
<path d="M234.079 142V132.28H235.719V142H234.079ZM234.919 130.28C234.599 130.28 234.326 130.18 234.099 129.98C233.886 129.78 233.779 129.527 233.779 129.22C233.779 128.9 233.886 128.647 234.099 128.46C234.326 128.26 234.599 128.16 234.919 128.16C235.239 128.16 235.506 128.26 235.719 128.46C235.946 128.647 236.059 128.9 236.059 129.22C236.059 129.527 235.946 129.78 235.719 129.98C235.506 130.18 235.239 130.28 234.919 130.28Z" fill="#69707D"/>
<path d="M239.001 142V132.28H240.361L240.501 133.68H240.561C241.028 133.213 241.515 132.827 242.021 132.52C242.541 132.2 243.141 132.04 243.821 132.04C244.848 132.04 245.595 132.36 246.061 133C246.541 133.64 246.781 134.587 246.781 135.84V142H245.141V136.06C245.141 135.14 244.995 134.48 244.701 134.08C244.408 133.667 243.941 133.46 243.301 133.46C242.795 133.46 242.348 133.587 241.961 133.84C241.575 134.093 241.135 134.467 240.641 134.96V142H239.001Z" fill="#69707D"/>
<path d="M252.999 142.24C252.479 142.24 252.039 142.16 251.679 142C251.332 141.84 251.046 141.62 250.819 141.34C250.606 141.06 250.452 140.72 250.359 140.32C250.266 139.92 250.219 139.48 250.219 139V133.62H248.779V132.38L250.299 132.28L250.499 129.56H251.879V132.28H254.499V133.62H251.879V139.02C251.879 139.62 251.986 140.087 252.199 140.42C252.426 140.74 252.819 140.9 253.379 140.9C253.552 140.9 253.739 140.873 253.939 140.82C254.139 140.767 254.319 140.707 254.479 140.64L254.799 141.88C254.532 141.973 254.239 142.053 253.919 142.12C253.612 142.2 253.306 142.24 252.999 142.24Z" fill="#69707D"/>
<path d="M260.363 142.24C259.71 142.24 259.097 142.127 258.523 141.9C257.963 141.66 257.47 141.327 257.043 140.9C256.63 140.46 256.303 139.927 256.063 139.3C255.823 138.673 255.703 137.96 255.703 137.16C255.703 136.36 255.823 135.647 256.063 135.02C256.317 134.38 256.643 133.84 257.043 133.4C257.457 132.96 257.923 132.627 258.443 132.4C258.963 132.16 259.503 132.04 260.063 132.04C260.677 132.04 261.223 132.147 261.703 132.36C262.197 132.573 262.603 132.88 262.923 133.28C263.257 133.68 263.51 134.16 263.683 134.72C263.857 135.28 263.943 135.907 263.943 136.6C263.943 136.773 263.937 136.947 263.923 137.12C263.923 137.28 263.91 137.42 263.883 137.54H257.323C257.39 138.58 257.71 139.407 258.283 140.02C258.87 140.62 259.63 140.92 260.563 140.92C261.03 140.92 261.457 140.853 261.843 140.72C262.243 140.573 262.623 140.387 262.983 140.16L263.563 141.24C263.137 141.507 262.663 141.74 262.143 141.94C261.623 142.14 261.03 142.24 260.363 142.24ZM257.303 136.36H262.503C262.503 135.373 262.29 134.627 261.863 134.12C261.45 133.6 260.863 133.34 260.103 133.34C259.757 133.34 259.423 133.407 259.103 133.54C258.797 133.673 258.517 133.873 258.263 134.14C258.01 134.393 257.797 134.707 257.623 135.08C257.463 135.453 257.357 135.88 257.303 136.36Z" fill="#69707D"/>
<path d="M266.345 142V132.28H267.705L267.845 134.04H267.905C268.238 133.427 268.638 132.94 269.105 132.58C269.585 132.22 270.105 132.04 270.665 132.04C271.052 132.04 271.398 132.107 271.705 132.24L271.385 133.68C271.225 133.627 271.078 133.587 270.945 133.56C270.812 133.533 270.645 133.52 270.445 133.52C270.032 133.52 269.598 133.687 269.145 134.02C268.705 134.353 268.318 134.933 267.985 135.76V142H266.345Z" fill="#69707D"/>
<path d="M275.03 142.24C274.217 142.24 273.537 142 272.99 141.52C272.457 141.04 272.19 140.36 272.19 139.48C272.19 138.413 272.664 137.6 273.61 137.04C274.557 136.467 276.07 136.067 278.15 135.84C278.15 135.533 278.117 135.233 278.05 134.94C277.997 134.647 277.897 134.387 277.75 134.16C277.604 133.933 277.397 133.753 277.13 133.62C276.877 133.473 276.55 133.4 276.15 133.4C275.59 133.4 275.064 133.507 274.57 133.72C274.077 133.933 273.637 134.173 273.25 134.44L272.61 133.3C273.064 133.007 273.617 132.727 274.27 132.46C274.924 132.18 275.644 132.04 276.43 132.04C277.617 132.04 278.477 132.407 279.01 133.14C279.544 133.86 279.81 134.827 279.81 136.04V142H278.45L278.31 140.84H278.25C277.784 141.227 277.284 141.56 276.75 141.84C276.217 142.107 275.644 142.24 275.03 142.24ZM275.51 140.92C275.977 140.92 276.417 140.813 276.83 140.6C277.244 140.373 277.684 140.047 278.15 139.62V136.92C277.337 137.027 276.65 137.153 276.09 137.3C275.544 137.447 275.097 137.62 274.75 137.82C274.417 138.02 274.17 138.253 274.01 138.52C273.864 138.773 273.79 139.053 273.79 139.36C273.79 139.92 273.957 140.32 274.29 140.56C274.624 140.8 275.03 140.92 275.51 140.92Z" fill="#69707D"/>
<path d="M286.709 142.24C286.069 142.24 285.469 142.127 284.909 141.9C284.349 141.673 283.862 141.347 283.449 140.92C283.049 140.48 282.729 139.947 282.489 139.32C282.262 138.68 282.149 137.96 282.149 137.16C282.149 136.347 282.275 135.627 282.529 135C282.782 134.36 283.122 133.82 283.549 133.38C283.975 132.94 284.469 132.607 285.029 132.38C285.602 132.153 286.202 132.04 286.829 132.04C287.469 132.04 288.015 132.153 288.469 132.38C288.922 132.607 289.322 132.873 289.669 133.18L288.829 134.26C288.549 134.007 288.249 133.8 287.929 133.64C287.622 133.48 287.275 133.4 286.889 133.4C286.449 133.4 286.042 133.493 285.669 133.68C285.295 133.853 284.975 134.107 284.709 134.44C284.442 134.773 284.229 135.173 284.069 135.64C283.922 136.093 283.849 136.6 283.849 137.16C283.849 137.72 283.922 138.227 284.069 138.68C284.215 139.133 284.415 139.527 284.669 139.86C284.935 140.18 285.255 140.433 285.629 140.62C286.002 140.793 286.409 140.88 286.849 140.88C287.302 140.88 287.715 140.787 288.089 140.6C288.475 140.4 288.822 140.167 289.129 139.9L289.849 141C289.409 141.387 288.922 141.693 288.389 141.92C287.855 142.133 287.295 142.24 286.709 142.24Z" fill="#69707D"/>
<path d="M294.854 142.24C294.334 142.24 293.894 142.16 293.534 142C293.188 141.84 292.901 141.62 292.674 141.34C292.461 141.06 292.308 140.72 292.214 140.32C292.121 139.92 292.074 139.48 292.074 139V133.62H290.634V132.38L292.154 132.28L292.354 129.56H293.734V132.28H296.354V133.62H293.734V139.02C293.734 139.62 293.841 140.087 294.054 140.42C294.281 140.74 294.674 140.9 295.234 140.9C295.408 140.9 295.594 140.873 295.794 140.82C295.994 140.767 296.174 140.707 296.334 140.64L296.654 141.88C296.388 141.973 296.094 142.053 295.774 142.12C295.468 142.2 295.161 142.24 294.854 142.24Z" fill="#69707D"/>
<path d="M298.552 142V132.28H300.192V142H298.552ZM299.392 130.28C299.072 130.28 298.799 130.18 298.572 129.98C298.359 129.78 298.252 129.527 298.252 129.22C298.252 128.9 298.359 128.647 298.572 128.46C298.799 128.26 299.072 128.16 299.392 128.16C299.712 128.16 299.979 128.26 300.192 128.46C300.419 128.647 300.532 128.9 300.532 129.22C300.532 129.527 300.419 129.78 300.192 129.98C299.979 130.18 299.712 130.28 299.392 130.28Z" fill="#69707D"/>
<path d="M307.254 142.24C306.654 142.24 306.081 142.127 305.534 141.9C305.001 141.673 304.527 141.347 304.114 140.92C303.701 140.48 303.367 139.947 303.114 139.32C302.874 138.68 302.754 137.96 302.754 137.16C302.754 136.347 302.874 135.627 303.114 135C303.367 134.36 303.701 133.82 304.114 133.38C304.527 132.94 305.001 132.607 305.534 132.38C306.081 132.153 306.654 132.04 307.254 132.04C307.854 132.04 308.421 132.153 308.954 132.38C309.501 132.607 309.981 132.94 310.394 133.38C310.807 133.82 311.134 134.36 311.374 135C311.627 135.627 311.754 136.347 311.754 137.16C311.754 137.96 311.627 138.68 311.374 139.32C311.134 139.947 310.807 140.48 310.394 140.92C309.981 141.347 309.501 141.673 308.954 141.9C308.421 142.127 307.854 142.24 307.254 142.24ZM307.254 140.88C307.667 140.88 308.047 140.793 308.394 140.62C308.741 140.433 309.034 140.18 309.274 139.86C309.527 139.527 309.721 139.133 309.854 138.68C309.987 138.227 310.054 137.72 310.054 137.16C310.054 136.6 309.987 136.093 309.854 135.64C309.721 135.173 309.527 134.773 309.274 134.44C309.034 134.107 308.741 133.853 308.394 133.68C308.047 133.493 307.667 133.4 307.254 133.4C306.841 133.4 306.461 133.493 306.114 133.68C305.767 133.853 305.467 134.107 305.214 134.44C304.974 134.773 304.787 135.173 304.654 135.64C304.521 136.093 304.454 136.6 304.454 137.16C304.454 137.72 304.521 138.227 304.654 138.68C304.787 139.133 304.974 139.527 305.214 139.86C305.467 140.18 305.767 140.433 306.114 140.62C306.461 140.793 306.841 140.88 307.254 140.88Z" fill="#69707D"/>
<path d="M314.314 142V132.28H315.674L315.814 133.68H315.874C316.341 133.213 316.827 132.827 317.334 132.52C317.854 132.2 318.454 132.04 319.134 132.04C320.161 132.04 320.907 132.36 321.374 133C321.854 133.64 322.094 134.587 322.094 135.84V142H320.454V136.06C320.454 135.14 320.307 134.48 320.014 134.08C319.721 133.667 319.254 133.46 318.614 133.46C318.107 133.46 317.661 133.587 317.274 133.84C316.887 134.093 316.447 134.467 315.954 134.96V142H314.314Z" fill="#69707D"/>
<path d="M197.206 45.192C196.065 45.192 195.169 44.776 194.518 43.944C193.868 43.112 193.542 41.9174 193.542 40.36C193.542 38.824 193.868 37.6507 194.518 36.84C195.169 36.0294 196.065 35.624 197.206 35.624C198.348 35.624 199.244 36.0294 199.894 36.84C200.545 37.6507 200.87 38.824 200.87 40.36C200.87 41.9174 200.545 43.112 199.894 43.944C199.244 44.776 198.348 45.192 197.206 45.192ZM197.206 36.696C196.492 36.696 195.905 36.9947 195.446 37.592C194.998 38.1787 194.774 39.1014 194.774 40.36C194.774 41.0107 194.833 41.576 194.95 42.056C195.068 42.5254 195.233 42.9147 195.446 43.224C195.67 43.5334 195.932 43.7627 196.23 43.912C196.529 44.0614 196.854 44.136 197.206 44.136C197.558 44.136 197.884 44.0614 198.182 43.912C198.481 43.7627 198.737 43.5334 198.95 43.224C199.174 42.9147 199.345 42.5254 199.462 42.056C199.58 41.576 199.638 41.0107 199.638 40.36C199.638 39.1014 199.409 38.1787 198.95 37.592C198.502 36.9947 197.921 36.696 197.206 36.696ZM197.206 41.32C196.94 41.32 196.705 41.2294 196.502 41.048C196.31 40.856 196.214 40.5894 196.214 40.248C196.214 39.9174 196.31 39.6614 196.502 39.48C196.705 39.288 196.94 39.192 197.206 39.192C197.473 39.192 197.702 39.288 197.894 39.48C198.097 39.6614 198.198 39.9174 198.198 40.248C198.198 40.5894 198.097 40.856 197.894 41.048C197.702 41.2294 197.473 41.32 197.206 41.32Z" fill="#315FCC"/>
<path d="M210.448 43.912V45H203.568V43.912H206.464V37.416H204.288V36.568C204.832 36.4827 205.307 36.3814 205.712 36.264C206.117 36.136 206.48 35.9867 206.8 35.816H207.776V43.912H210.448Z" fill="#315FCC"/>
</svg>
