<svg width="404" height="176" viewBox="0 0 404 176" fill="none" xmlns="http://www.w3.org/2000/svg">
<rect width="404" height="176" rx="2" fill="white"/>
<path d="M105.237 83V81.59L107.697 81.23L113.967 62.99H116.427L122.697 81.38L124.737 81.62V83H116.067V81.62L118.707 81.29L117.267 76.85H110.727L109.287 81.2L111.897 81.59V83H105.237ZM116.757 75.29L114.027 66.95L111.237 75.29H116.757Z" fill="#2C323D"/>
<path d="M141.315 83L136.185 83.27L135.945 80.66C135.225 81.58 134.435 82.27 133.575 82.73C132.715 83.19 131.805 83.42 130.845 83.42C130.225 83.42 129.655 83.32 129.135 83.12C128.635 82.94 128.205 82.64 127.845 82.22C127.505 81.78 127.235 81.22 127.035 80.54C126.855 79.86 126.765 79.02 126.765 78.02L126.885 70.61L124.935 70.19V69.02L130.185 68.39L130.545 68.72L130.395 72.92V77.9C130.395 79.04 130.565 79.83 130.905 80.27C131.265 80.71 131.775 80.93 132.435 80.93C132.995 80.93 133.565 80.78 134.145 80.48C134.745 80.16 135.315 79.74 135.855 79.22L135.945 70.61L134.055 70.19V69.08L139.185 68.39L139.575 68.72L139.485 72.92V81.38L141.315 81.77V83Z" fill="#2C323D"/>
<path d="M149.409 88.43C150.989 88.43 152.179 88.17 152.979 87.65C153.799 87.15 154.209 86.52 154.209 85.76C154.209 85.2 154.009 84.72 153.609 84.32C153.229 83.92 152.559 83.72 151.599 83.72H148.269C147.509 83.72 146.849 83.66 146.289 83.54C146.009 83.92 145.799 84.28 145.659 84.62C145.539 84.96 145.479 85.35 145.479 85.79C145.479 86.73 145.819 87.4 146.499 87.8C147.179 88.22 148.149 88.43 149.409 88.43ZM143.469 73.1C143.469 71.6 143.979 70.41 144.999 69.53C146.039 68.65 147.479 68.21 149.319 68.21C151.139 68.21 152.559 68.63 153.579 69.47L156.969 68.18L157.419 68.48V70.58H154.509C154.929 71.28 155.139 72.12 155.139 73.1C155.139 74.58 154.629 75.76 153.609 76.64C152.589 77.52 151.159 77.96 149.319 77.96C148.419 77.96 147.589 77.85 146.829 77.63C146.449 78.15 146.259 78.7 146.259 79.28C146.259 79.66 146.379 79.96 146.619 80.18C146.879 80.4 147.339 80.51 147.999 80.51H151.749C153.709 80.51 155.109 80.88 155.949 81.62C156.789 82.36 157.209 83.36 157.209 84.62C157.209 85.32 157.039 85.99 156.699 86.63C156.359 87.29 155.849 87.87 155.169 88.37C154.489 88.87 153.639 89.26 152.619 89.54C151.619 89.84 150.459 89.99 149.139 89.99C147.979 89.99 146.989 89.89 146.169 89.69C145.369 89.51 144.719 89.26 144.219 88.94C143.719 88.62 143.359 88.24 143.139 87.8C142.919 87.38 142.809 86.92 142.809 86.42C142.809 85.78 143.019 85.19 143.439 84.65C143.859 84.13 144.549 83.64 145.509 83.18C144.869 82.96 144.399 82.65 144.099 82.25C143.819 81.83 143.679 81.35 143.679 80.81C143.679 80.23 143.849 79.66 144.189 79.1C144.549 78.52 145.099 77.9 145.839 77.24C145.079 76.84 144.489 76.29 144.069 75.59C143.669 74.89 143.469 74.06 143.469 73.1ZM149.349 69.53C148.529 69.53 147.899 69.86 147.459 70.52C147.019 71.16 146.799 72.02 146.799 73.1C146.799 74.18 146.999 75.04 147.399 75.68C147.819 76.32 148.439 76.64 149.259 76.64C150.099 76.64 150.739 76.31 151.179 75.65C151.619 74.99 151.839 74.11 151.839 73.01C151.839 71.95 151.619 71.11 151.179 70.49C150.759 69.85 150.149 69.53 149.349 69.53Z" fill="#2C323D"/>
<path d="M169.458 68.21C171.438 68.21 172.688 69.13 173.208 70.97C174.028 69.97 174.858 69.26 175.698 68.84C176.558 68.42 177.448 68.21 178.368 68.21C179.728 68.21 180.748 68.63 181.428 69.47C182.108 70.31 182.448 71.65 182.448 73.49V76.7C182.448 77.38 182.448 78.15 182.448 79.01C182.448 79.85 182.458 80.65 182.478 81.41L184.308 81.77V83H176.988V81.77L178.848 81.38C178.868 80.64 178.878 79.85 178.878 79.01C178.878 78.15 178.878 77.38 178.878 76.7V73.94C178.878 72.68 178.708 71.83 178.368 71.39C178.048 70.95 177.508 70.73 176.748 70.73C175.688 70.73 174.588 71.24 173.448 72.26C173.468 72.46 173.478 72.67 173.478 72.89C173.498 73.11 173.508 73.34 173.508 73.58V76.7C173.508 77.38 173.508 78.15 173.508 79.01C173.508 79.85 173.518 80.65 173.538 81.41L175.338 81.77V83H167.988V81.77L169.908 81.38C169.928 80.64 169.938 79.85 169.938 79.01C169.938 78.15 169.938 77.38 169.938 76.7V74C169.938 72.78 169.778 71.93 169.458 71.45C169.158 70.97 168.618 70.73 167.838 70.73C167.258 70.73 166.698 70.87 166.158 71.15C165.618 71.41 165.088 71.77 164.568 72.23V76.7C164.568 77.36 164.568 78.12 164.568 78.98C164.568 79.84 164.578 80.65 164.598 81.41L166.368 81.77V83H158.958V81.77L160.908 81.38C160.928 80.64 160.938 79.84 160.938 78.98C160.938 78.1 160.938 77.34 160.938 76.7V75.11C160.938 74.69 160.938 74.33 160.938 74.03C160.938 73.71 160.928 73.42 160.908 73.16C160.908 72.88 160.898 72.61 160.878 72.35C160.878 72.09 160.868 71.81 160.848 71.51L158.748 71.24V70.1L163.758 68.21L164.238 68.51L164.478 70.85C165.198 70.01 165.978 69.36 166.818 68.9C167.658 68.44 168.538 68.21 169.458 68.21Z" fill="#2C323D"/>
<path d="M193.466 68.21C194.346 68.21 195.146 68.36 195.866 68.66C196.606 68.94 197.226 69.34 197.726 69.86C198.246 70.38 198.646 71.02 198.926 71.78C199.206 72.52 199.346 73.34 199.346 74.24C199.346 74.9 199.286 75.45 199.166 75.89H189.986C190.066 77.63 190.516 78.93 191.336 79.79C192.176 80.63 193.226 81.05 194.486 81.05C195.386 81.05 196.136 80.88 196.736 80.54C197.336 80.18 197.886 79.72 198.386 79.16L199.256 79.94C198.676 81.06 197.876 81.92 196.856 82.52C195.856 83.12 194.656 83.42 193.256 83.42C192.196 83.42 191.236 83.25 190.376 82.91C189.516 82.57 188.766 82.08 188.126 81.44C187.506 80.78 187.026 79.99 186.686 79.07C186.346 78.13 186.176 77.07 186.176 75.89C186.176 74.69 186.376 73.62 186.776 72.68C187.176 71.72 187.716 70.91 188.396 70.25C189.076 69.59 189.856 69.09 190.736 68.75C191.616 68.39 192.526 68.21 193.466 68.21ZM193.256 69.65C192.896 69.65 192.536 69.74 192.176 69.92C191.816 70.08 191.486 70.35 191.186 70.73C190.886 71.11 190.626 71.61 190.406 72.23C190.206 72.83 190.076 73.58 190.016 74.48H194.126C194.846 74.48 195.326 74.33 195.566 74.03C195.806 73.73 195.926 73.31 195.926 72.77C195.926 71.85 195.666 71.1 195.146 70.52C194.626 69.94 193.996 69.65 193.256 69.65Z" fill="#2C323D"/>
<path d="M212.116 68.21C213.436 68.21 214.446 68.64 215.146 69.5C215.846 70.34 216.196 71.7 216.196 73.58V76.7C216.196 77.38 216.196 78.15 216.196 79.01C216.196 79.87 216.206 80.67 216.226 81.41L218.056 81.77V83H210.646V81.77L212.566 81.38C212.586 80.64 212.596 79.85 212.596 79.01C212.596 78.15 212.596 77.38 212.596 76.7V73.85C212.596 72.67 212.436 71.86 212.116 71.42C211.796 70.96 211.256 70.73 210.496 70.73C209.396 70.73 208.276 71.23 207.136 72.23V76.7C207.136 77.36 207.136 78.12 207.136 78.98C207.136 79.84 207.146 80.65 207.166 81.41L208.936 81.77V83H201.526V81.77L203.476 81.38C203.496 80.64 203.506 79.84 203.506 78.98C203.506 78.1 203.506 77.34 203.506 76.7V75.11C203.506 74.69 203.506 74.33 203.506 74.03C203.506 73.71 203.496 73.42 203.476 73.16C203.476 72.88 203.466 72.61 203.446 72.35C203.446 72.09 203.436 71.81 203.416 71.51L201.316 71.24V70.1L206.326 68.21L206.806 68.51L207.016 70.82C208.576 69.08 210.276 68.21 212.116 68.21Z" fill="#2C323D"/>
<path d="M224.849 79.31C224.849 80.05 224.989 80.59 225.269 80.93C225.569 81.27 225.959 81.44 226.439 81.44C226.739 81.44 227.029 81.38 227.309 81.26C227.609 81.14 227.929 80.95 228.269 80.69L228.989 81.44C228.589 82.08 228.059 82.57 227.399 82.91C226.759 83.25 225.969 83.42 225.029 83.42C223.829 83.42 222.889 83.12 222.209 82.52C221.529 81.92 221.189 80.96 221.189 79.64C221.189 79.18 221.189 78.75 221.189 78.35C221.209 77.93 221.219 77.43 221.219 76.85V70.46H218.999V68.9L221.429 68.6L222.569 64.49H224.999L224.879 68.63H228.479V70.46H224.849V79.31Z" fill="#2C323D"/>
<path d="M235.704 81.23C236.104 81.23 236.474 81.15 236.814 80.99C237.174 80.81 237.674 80.49 238.314 80.03V75.26C237.894 75.4 237.494 75.53 237.114 75.65C236.754 75.77 236.444 75.88 236.184 75.98C235.184 76.38 234.494 76.85 234.114 77.39C233.754 77.91 233.574 78.45 233.574 79.01C233.574 79.79 233.774 80.36 234.174 80.72C234.594 81.06 235.104 81.23 235.704 81.23ZM241.374 83.36C240.574 83.36 239.924 83.16 239.424 82.76C238.924 82.36 238.584 81.81 238.404 81.11C238.044 81.49 237.704 81.83 237.384 82.13C237.064 82.41 236.734 82.65 236.394 82.85C236.074 83.03 235.724 83.17 235.344 83.27C234.964 83.37 234.534 83.42 234.054 83.42C233.494 83.42 232.964 83.34 232.464 83.18C231.984 83.02 231.564 82.78 231.204 82.46C230.844 82.14 230.564 81.75 230.364 81.29C230.164 80.81 230.064 80.26 230.064 79.64C230.064 79.16 230.134 78.71 230.274 78.29C230.434 77.87 230.714 77.47 231.114 77.09C231.534 76.69 232.084 76.31 232.764 75.95C233.464 75.59 234.354 75.24 235.434 74.9C235.834 74.76 236.284 74.62 236.784 74.48C237.284 74.34 237.794 74.2 238.314 74.06V73.22C238.314 72.52 238.264 71.94 238.164 71.48C238.084 71.02 237.934 70.66 237.714 70.4C237.514 70.12 237.244 69.93 236.904 69.83C236.564 69.71 236.154 69.65 235.674 69.65C235.494 69.65 235.294 69.66 235.074 69.68C234.874 69.7 234.664 69.73 234.444 69.77L234.084 71.42C233.984 72.14 233.764 72.67 233.424 73.01C233.104 73.35 232.694 73.52 232.194 73.52C231.234 73.52 230.674 73.07 230.514 72.17C230.694 70.97 231.334 70.01 232.434 69.29C233.534 68.57 235.004 68.21 236.844 68.21C238.604 68.21 239.874 68.63 240.654 69.47C241.454 70.29 241.854 71.68 241.854 73.64V80.18C241.854 80.66 241.924 81.01 242.064 81.23C242.224 81.43 242.444 81.53 242.724 81.53C243.104 81.53 243.454 81.31 243.774 80.87L244.464 81.47C244.104 82.17 243.674 82.66 243.174 82.94C242.694 83.22 242.094 83.36 241.374 83.36Z" fill="#2C323D"/>
<path d="M250.66 79.31C250.66 80.05 250.8 80.59 251.08 80.93C251.38 81.27 251.77 81.44 252.25 81.44C252.55 81.44 252.84 81.38 253.12 81.26C253.42 81.14 253.74 80.95 254.08 80.69L254.8 81.44C254.4 82.08 253.87 82.57 253.21 82.91C252.57 83.25 251.78 83.42 250.84 83.42C249.64 83.42 248.7 83.12 248.02 82.52C247.34 81.92 247 80.96 247 79.64C247 79.18 247 78.75 247 78.35C247.02 77.93 247.03 77.43 247.03 76.85V70.46H244.81V68.9L247.24 68.6L248.38 64.49H250.81L250.69 68.63H254.29V70.46H250.66V79.31Z" fill="#2C323D"/>
<path d="M259.474 65.42C258.834 65.42 258.294 65.22 257.854 64.82C257.414 64.42 257.194 63.91 257.194 63.29C257.194 62.65 257.414 62.13 257.854 61.73C258.294 61.33 258.834 61.13 259.474 61.13C260.114 61.13 260.644 61.33 261.064 61.73C261.504 62.13 261.724 62.65 261.724 63.29C261.724 63.91 261.504 64.42 261.064 64.82C260.644 65.22 260.114 65.42 259.474 65.42ZM263.134 83H255.694V81.77L257.674 81.38C257.694 80.64 257.704 79.84 257.704 78.98C257.704 78.1 257.704 77.34 257.704 76.7V75.29C257.704 74.47 257.694 73.79 257.674 73.25C257.654 72.69 257.634 72.11 257.614 71.51L255.484 71.24V70.1L260.884 68.21L261.364 68.51L261.274 72.74V76.7C261.274 77.34 261.274 78.1 261.274 78.98C261.274 79.84 261.284 80.65 261.304 81.41L263.134 81.77V83Z" fill="#2C323D"/>
<path d="M272.274 83.42C271.254 83.42 270.304 83.25 269.424 82.91C268.544 82.57 267.774 82.08 267.114 81.44C266.474 80.78 265.964 79.98 265.584 79.04C265.224 78.1 265.044 77.03 265.044 75.83C265.044 74.63 265.234 73.56 265.614 72.62C266.014 71.68 266.544 70.88 267.204 70.22C267.864 69.56 268.634 69.06 269.514 68.72C270.394 68.38 271.314 68.21 272.274 68.21C273.234 68.21 274.154 68.38 275.034 68.72C275.914 69.06 276.684 69.56 277.344 70.22C278.004 70.86 278.534 71.66 278.934 72.62C279.334 73.56 279.534 74.63 279.534 75.83C279.534 77.03 279.344 78.1 278.964 79.04C278.584 79.98 278.064 80.78 277.404 81.44C276.764 82.08 276.004 82.57 275.124 82.91C274.244 83.25 273.294 83.42 272.274 83.42ZM272.274 81.95C273.354 81.95 274.174 81.46 274.734 80.48C275.314 79.48 275.604 77.94 275.604 75.86C275.604 73.78 275.314 72.23 274.734 71.21C274.174 70.19 273.354 69.68 272.274 69.68C270.074 69.68 268.974 71.74 268.974 75.86C268.974 77.94 269.254 79.48 269.814 80.48C270.374 81.46 271.194 81.95 272.274 81.95Z" fill="#2C323D"/>
<path d="M292.243 68.21C293.563 68.21 294.573 68.64 295.273 69.5C295.973 70.34 296.323 71.7 296.323 73.58V76.7C296.323 77.38 296.323 78.15 296.323 79.01C296.323 79.87 296.333 80.67 296.353 81.41L298.183 81.77V83H290.773V81.77L292.693 81.38C292.713 80.64 292.723 79.85 292.723 79.01C292.723 78.15 292.723 77.38 292.723 76.7V73.85C292.723 72.67 292.563 71.86 292.243 71.42C291.923 70.96 291.383 70.73 290.623 70.73C289.523 70.73 288.403 71.23 287.263 72.23V76.7C287.263 77.36 287.263 78.12 287.263 78.98C287.263 79.84 287.273 80.65 287.293 81.41L289.063 81.77V83H281.653V81.77L283.603 81.38C283.623 80.64 283.633 79.84 283.633 78.98C283.633 78.1 283.633 77.34 283.633 76.7V75.11C283.633 74.69 283.633 74.33 283.633 74.03C283.633 73.71 283.623 73.42 283.603 73.16C283.603 72.88 283.593 72.61 283.573 72.35C283.573 72.09 283.563 71.81 283.543 71.51L281.443 71.24V70.1L286.453 68.21L286.933 68.51L287.143 70.82C288.703 69.08 290.403 68.21 292.243 68.21Z" fill="#2C323D"/>
<path d="M78.507 117V103.88H82.607C83.2737 103.88 83.887 103.947 84.447 104.08C85.0204 104.2 85.507 104.407 85.907 104.7C86.3204 104.993 86.6404 105.373 86.867 105.84C87.0937 106.307 87.207 106.88 87.207 107.56C87.207 108.587 86.9404 109.407 86.407 110.02C85.8737 110.633 85.1537 111.053 84.247 111.28L87.587 117H85.707L82.547 111.46H80.167V117H78.507ZM80.167 110.1H82.367C83.3937 110.1 84.1804 109.893 84.727 109.48C85.2737 109.053 85.547 108.413 85.547 107.56C85.547 106.693 85.2737 106.087 84.727 105.74C84.1804 105.393 83.3937 105.22 82.367 105.22H80.167V110.1Z" fill="#69707D"/>
<path d="M93.3184 117.24C92.7184 117.24 92.1451 117.127 91.5984 116.9C91.0651 116.673 90.5918 116.347 90.1784 115.92C89.7651 115.48 89.4318 114.947 89.1784 114.32C88.9384 113.68 88.8184 112.96 88.8184 112.16C88.8184 111.347 88.9384 110.627 89.1784 110C89.4318 109.36 89.7651 108.82 90.1784 108.38C90.5918 107.94 91.0651 107.607 91.5984 107.38C92.1451 107.153 92.7184 107.04 93.3184 107.04C93.9184 107.04 94.4851 107.153 95.0184 107.38C95.5651 107.607 96.0451 107.94 96.4584 108.38C96.8718 108.82 97.1984 109.36 97.4384 110C97.6918 110.627 97.8184 111.347 97.8184 112.16C97.8184 112.96 97.6918 113.68 97.4384 114.32C97.1984 114.947 96.8718 115.48 96.4584 115.92C96.0451 116.347 95.5651 116.673 95.0184 116.9C94.4851 117.127 93.9184 117.24 93.3184 117.24ZM93.3184 115.88C93.7318 115.88 94.1118 115.793 94.4584 115.62C94.8051 115.433 95.0984 115.18 95.3384 114.86C95.5918 114.527 95.7851 114.133 95.9184 113.68C96.0518 113.227 96.1184 112.72 96.1184 112.16C96.1184 111.6 96.0518 111.093 95.9184 110.64C95.7851 110.173 95.5918 109.773 95.3384 109.44C95.0984 109.107 94.8051 108.853 94.4584 108.68C94.1118 108.493 93.7318 108.4 93.3184 108.4C92.9051 108.4 92.5251 108.493 92.1784 108.68C91.8318 108.853 91.5318 109.107 91.2784 109.44C91.0384 109.773 90.8518 110.173 90.7184 110.64C90.5851 111.093 90.5184 111.6 90.5184 112.16C90.5184 112.72 90.5851 113.227 90.7184 113.68C90.8518 114.133 91.0384 114.527 91.2784 114.86C91.5318 115.18 91.8318 115.433 92.1784 115.62C92.5251 115.793 92.9051 115.88 93.3184 115.88Z" fill="#69707D"/>
<path d="M104.678 117.24C104.225 117.24 103.752 117.133 103.258 116.92C102.778 116.693 102.325 116.387 101.898 116H101.838L101.698 117H100.378V102.76H102.018V106.64L101.978 108.4C102.418 108.013 102.898 107.693 103.418 107.44C103.938 107.173 104.472 107.04 105.018 107.04C105.645 107.04 106.198 107.16 106.678 107.4C107.158 107.627 107.558 107.96 107.878 108.4C108.212 108.827 108.458 109.347 108.618 109.96C108.792 110.56 108.878 111.233 108.878 111.98C108.878 112.807 108.765 113.547 108.538 114.2C108.312 114.853 108.005 115.407 107.618 115.86C107.232 116.313 106.785 116.66 106.278 116.9C105.772 117.127 105.238 117.24 104.678 117.24ZM104.398 115.86C104.798 115.86 105.165 115.773 105.498 115.6C105.845 115.413 106.138 115.16 106.378 114.84C106.632 114.507 106.825 114.1 106.958 113.62C107.105 113.14 107.178 112.6 107.178 112C107.178 111.467 107.132 110.98 107.038 110.54C106.945 110.1 106.792 109.727 106.578 109.42C106.378 109.1 106.112 108.853 105.778 108.68C105.458 108.507 105.072 108.42 104.618 108.42C103.832 108.42 102.965 108.86 102.018 109.74V114.84C102.445 115.213 102.865 115.48 103.278 115.64C103.705 115.787 104.078 115.86 104.398 115.86Z" fill="#69707D"/>
<path d="M115.213 117.24C114.613 117.24 114.04 117.127 113.493 116.9C112.96 116.673 112.486 116.347 112.073 115.92C111.66 115.48 111.326 114.947 111.073 114.32C110.833 113.68 110.713 112.96 110.713 112.16C110.713 111.347 110.833 110.627 111.073 110C111.326 109.36 111.66 108.82 112.073 108.38C112.486 107.94 112.96 107.607 113.493 107.38C114.04 107.153 114.613 107.04 115.213 107.04C115.813 107.04 116.38 107.153 116.913 107.38C117.46 107.607 117.94 107.94 118.353 108.38C118.766 108.82 119.093 109.36 119.333 110C119.586 110.627 119.713 111.347 119.713 112.16C119.713 112.96 119.586 113.68 119.333 114.32C119.093 114.947 118.766 115.48 118.353 115.92C117.94 116.347 117.46 116.673 116.913 116.9C116.38 117.127 115.813 117.24 115.213 117.24ZM115.213 115.88C115.626 115.88 116.006 115.793 116.353 115.62C116.7 115.433 116.993 115.18 117.233 114.86C117.486 114.527 117.68 114.133 117.813 113.68C117.946 113.227 118.013 112.72 118.013 112.16C118.013 111.6 117.946 111.093 117.813 110.64C117.68 110.173 117.486 109.773 117.233 109.44C116.993 109.107 116.7 108.853 116.353 108.68C116.006 108.493 115.626 108.4 115.213 108.4C114.8 108.4 114.42 108.493 114.073 108.68C113.726 108.853 113.426 109.107 113.173 109.44C112.933 109.773 112.746 110.173 112.613 110.64C112.48 111.093 112.413 111.6 112.413 112.16C112.413 112.72 112.48 113.227 112.613 113.68C112.746 114.133 112.933 114.527 113.173 114.86C113.426 115.18 113.726 115.433 114.073 115.62C114.42 115.793 114.8 115.88 115.213 115.88Z" fill="#69707D"/>
<path d="M125.001 117.24C124.481 117.24 124.041 117.16 123.681 117C123.334 116.84 123.047 116.62 122.821 116.34C122.607 116.06 122.454 115.72 122.361 115.32C122.267 114.92 122.221 114.48 122.221 114V108.62H120.781V107.38L122.301 107.28L122.501 104.56H123.881V107.28H126.501V108.62H123.881V114.02C123.881 114.62 123.987 115.087 124.201 115.42C124.427 115.74 124.821 115.9 125.381 115.9C125.554 115.9 125.741 115.873 125.941 115.82C126.141 115.767 126.321 115.707 126.481 115.64L126.801 116.88C126.534 116.973 126.241 117.053 125.921 117.12C125.614 117.2 125.307 117.24 125.001 117.24Z" fill="#69707D"/>
<path d="M131.043 117.24C130.35 117.24 129.69 117.113 129.063 116.86C128.437 116.607 127.89 116.287 127.423 115.9L128.243 114.8C128.67 115.147 129.103 115.427 129.543 115.64C129.997 115.853 130.517 115.96 131.103 115.96C131.743 115.96 132.223 115.813 132.543 115.52C132.863 115.227 133.023 114.867 133.023 114.44C133.023 114.187 132.957 113.967 132.823 113.78C132.69 113.593 132.517 113.433 132.303 113.3C132.103 113.153 131.87 113.027 131.603 112.92C131.337 112.813 131.07 112.707 130.803 112.6C130.457 112.48 130.11 112.347 129.763 112.2C129.417 112.04 129.103 111.853 128.823 111.64C128.557 111.413 128.337 111.153 128.163 110.86C127.99 110.567 127.903 110.213 127.903 109.8C127.903 109.413 127.977 109.053 128.123 108.72C128.283 108.373 128.503 108.08 128.783 107.84C129.077 107.587 129.43 107.393 129.843 107.26C130.257 107.113 130.723 107.04 131.243 107.04C131.857 107.04 132.417 107.147 132.923 107.36C133.443 107.573 133.89 107.833 134.263 108.14L133.483 109.18C133.15 108.927 132.803 108.72 132.443 108.56C132.083 108.4 131.69 108.32 131.263 108.32C130.65 108.32 130.197 108.46 129.903 108.74C129.623 109.02 129.483 109.347 129.483 109.72C129.483 109.947 129.543 110.147 129.663 110.32C129.783 110.48 129.943 110.627 130.143 110.76C130.343 110.88 130.57 110.993 130.823 111.1C131.09 111.193 131.363 111.293 131.643 111.4C131.99 111.533 132.337 111.673 132.683 111.82C133.043 111.967 133.363 112.153 133.643 112.38C133.923 112.593 134.15 112.86 134.323 113.18C134.51 113.5 134.603 113.887 134.603 114.34C134.603 114.74 134.523 115.113 134.363 115.46C134.217 115.807 133.99 116.113 133.683 116.38C133.39 116.647 133.017 116.853 132.563 117C132.123 117.16 131.617 117.24 131.043 117.24Z" fill="#69707D"/>
<path d="M143.126 117.24C142.313 117.24 141.633 117 141.086 116.52C140.553 116.04 140.286 115.36 140.286 114.48C140.286 113.413 140.759 112.6 141.706 112.04C142.653 111.467 144.166 111.067 146.246 110.84C146.246 110.533 146.213 110.233 146.146 109.94C146.093 109.647 145.993 109.387 145.846 109.16C145.699 108.933 145.493 108.753 145.226 108.62C144.973 108.473 144.646 108.4 144.246 108.4C143.686 108.4 143.159 108.507 142.666 108.72C142.173 108.933 141.733 109.173 141.346 109.44L140.706 108.3C141.159 108.007 141.713 107.727 142.366 107.46C143.019 107.18 143.739 107.04 144.526 107.04C145.713 107.04 146.573 107.407 147.106 108.14C147.639 108.86 147.906 109.827 147.906 111.04V117H146.546L146.406 115.84H146.346C145.879 116.227 145.379 116.56 144.846 116.84C144.313 117.107 143.739 117.24 143.126 117.24ZM143.606 115.92C144.073 115.92 144.513 115.813 144.926 115.6C145.339 115.373 145.779 115.047 146.246 114.62V111.92C145.433 112.027 144.746 112.153 144.186 112.3C143.639 112.447 143.193 112.62 142.846 112.82C142.513 113.02 142.266 113.253 142.106 113.52C141.959 113.773 141.886 114.053 141.886 114.36C141.886 114.92 142.053 115.32 142.386 115.56C142.719 115.8 143.126 115.92 143.606 115.92Z" fill="#69707D"/>
<path d="M150.964 117V107.28H152.324L152.464 109.04H152.524C152.858 108.427 153.258 107.94 153.724 107.58C154.204 107.22 154.724 107.04 155.284 107.04C155.671 107.04 156.018 107.107 156.324 107.24L156.004 108.68C155.844 108.627 155.698 108.587 155.564 108.56C155.431 108.533 155.264 108.52 155.064 108.52C154.651 108.52 154.218 108.687 153.764 109.02C153.324 109.353 152.938 109.933 152.604 110.76V117H150.964Z" fill="#69707D"/>
<path d="M161.642 117.24C160.989 117.24 160.376 117.127 159.802 116.9C159.242 116.66 158.749 116.327 158.322 115.9C157.909 115.46 157.582 114.927 157.342 114.3C157.102 113.673 156.982 112.96 156.982 112.16C156.982 111.36 157.102 110.647 157.342 110.02C157.596 109.38 157.922 108.84 158.322 108.4C158.736 107.96 159.202 107.627 159.722 107.4C160.242 107.16 160.782 107.04 161.342 107.04C161.956 107.04 162.502 107.147 162.982 107.36C163.476 107.573 163.882 107.88 164.202 108.28C164.536 108.68 164.789 109.16 164.962 109.72C165.136 110.28 165.222 110.907 165.222 111.6C165.222 111.773 165.216 111.947 165.202 112.12C165.202 112.28 165.189 112.42 165.162 112.54H158.602C158.669 113.58 158.989 114.407 159.562 115.02C160.149 115.62 160.909 115.92 161.842 115.92C162.309 115.92 162.736 115.853 163.122 115.72C163.522 115.573 163.902 115.387 164.262 115.16L164.842 116.24C164.416 116.507 163.942 116.74 163.422 116.94C162.902 117.14 162.309 117.24 161.642 117.24ZM158.582 111.36H163.782C163.782 110.373 163.569 109.627 163.142 109.12C162.729 108.6 162.142 108.34 161.382 108.34C161.036 108.34 160.702 108.407 160.382 108.54C160.076 108.673 159.796 108.873 159.542 109.14C159.289 109.393 159.076 109.707 158.902 110.08C158.742 110.453 158.636 110.88 158.582 111.36Z" fill="#69707D"/>
<path d="M174.908 121.48C174.308 121.48 173.762 121.42 173.268 121.3C172.775 121.193 172.348 121.027 171.988 120.8C171.642 120.573 171.368 120.3 171.168 119.98C170.982 119.66 170.888 119.287 170.888 118.86C170.888 118.447 171.015 118.053 171.268 117.68C171.522 117.307 171.868 116.967 172.308 116.66V116.58C172.068 116.433 171.862 116.233 171.688 115.98C171.528 115.713 171.448 115.387 171.448 115C171.448 114.587 171.562 114.227 171.788 113.92C172.015 113.613 172.255 113.373 172.508 113.2V113.12C172.188 112.853 171.895 112.5 171.628 112.06C171.375 111.607 171.248 111.087 171.248 110.5C171.248 109.967 171.342 109.487 171.528 109.06C171.728 108.633 171.995 108.273 172.328 107.98C172.662 107.673 173.048 107.44 173.488 107.28C173.942 107.12 174.415 107.04 174.908 107.04C175.175 107.04 175.422 107.067 175.648 107.12C175.888 107.16 176.102 107.213 176.288 107.28H179.668V108.54H177.668C177.895 108.767 178.082 109.053 178.228 109.4C178.388 109.747 178.468 110.127 178.468 110.54C178.468 111.06 178.375 111.533 178.188 111.96C178.002 112.373 177.748 112.727 177.428 113.02C177.108 113.3 176.728 113.52 176.288 113.68C175.862 113.84 175.402 113.92 174.908 113.92C174.668 113.92 174.422 113.893 174.168 113.84C173.915 113.773 173.675 113.687 173.448 113.58C173.275 113.727 173.128 113.893 173.008 114.08C172.888 114.253 172.828 114.473 172.828 114.74C172.828 115.047 172.948 115.3 173.188 115.5C173.428 115.7 173.882 115.8 174.548 115.8H176.428C177.562 115.8 178.408 115.987 178.968 116.36C179.542 116.72 179.828 117.307 179.828 118.12C179.828 118.573 179.715 119 179.488 119.4C179.262 119.813 178.935 120.173 178.508 120.48C178.082 120.787 177.562 121.027 176.948 121.2C176.348 121.387 175.668 121.48 174.908 121.48ZM174.908 112.82C175.188 112.82 175.448 112.767 175.688 112.66C175.942 112.553 176.162 112.4 176.348 112.2C176.548 112 176.702 111.76 176.808 111.48C176.915 111.187 176.968 110.86 176.968 110.5C176.968 109.78 176.768 109.227 176.368 108.84C175.968 108.44 175.482 108.24 174.908 108.24C174.335 108.24 173.848 108.44 173.448 108.84C173.048 109.227 172.848 109.78 172.848 110.5C172.848 110.86 172.902 111.187 173.008 111.48C173.115 111.76 173.262 112 173.448 112.2C173.648 112.4 173.868 112.553 174.108 112.66C174.362 112.767 174.628 112.82 174.908 112.82ZM175.148 120.34C175.615 120.34 176.035 120.28 176.408 120.16C176.795 120.053 177.122 119.907 177.388 119.72C177.655 119.547 177.862 119.34 178.008 119.1C178.155 118.86 178.228 118.613 178.228 118.36C178.228 117.907 178.062 117.593 177.728 117.42C177.395 117.247 176.908 117.16 176.268 117.16H174.588C174.402 117.16 174.195 117.147 173.968 117.12C173.755 117.107 173.542 117.067 173.328 117C172.982 117.253 172.728 117.52 172.568 117.8C172.408 118.08 172.328 118.36 172.328 118.64C172.328 119.16 172.575 119.573 173.068 119.88C173.575 120.187 174.268 120.34 175.148 120.34Z" fill="#69707D"/>
<path d="M185.213 117.24C184.613 117.24 184.04 117.127 183.493 116.9C182.96 116.673 182.486 116.347 182.073 115.92C181.66 115.48 181.326 114.947 181.073 114.32C180.833 113.68 180.713 112.96 180.713 112.16C180.713 111.347 180.833 110.627 181.073 110C181.326 109.36 181.66 108.82 182.073 108.38C182.486 107.94 182.96 107.607 183.493 107.38C184.04 107.153 184.613 107.04 185.213 107.04C185.813 107.04 186.38 107.153 186.913 107.38C187.46 107.607 187.94 107.94 188.353 108.38C188.766 108.82 189.093 109.36 189.333 110C189.586 110.627 189.713 111.347 189.713 112.16C189.713 112.96 189.586 113.68 189.333 114.32C189.093 114.947 188.766 115.48 188.353 115.92C187.94 116.347 187.46 116.673 186.913 116.9C186.38 117.127 185.813 117.24 185.213 117.24ZM185.213 115.88C185.626 115.88 186.006 115.793 186.353 115.62C186.7 115.433 186.993 115.18 187.233 114.86C187.486 114.527 187.68 114.133 187.813 113.68C187.946 113.227 188.013 112.72 188.013 112.16C188.013 111.6 187.946 111.093 187.813 110.64C187.68 110.173 187.486 109.773 187.233 109.44C186.993 109.107 186.7 108.853 186.353 108.68C186.006 108.493 185.626 108.4 185.213 108.4C184.8 108.4 184.42 108.493 184.073 108.68C183.726 108.853 183.426 109.107 183.173 109.44C182.933 109.773 182.746 110.173 182.613 110.64C182.48 111.093 182.413 111.6 182.413 112.16C182.413 112.72 182.48 113.227 182.613 113.68C182.746 114.133 182.933 114.527 183.173 114.86C183.426 115.18 183.726 115.433 184.073 115.62C184.42 115.793 184.8 115.88 185.213 115.88Z" fill="#69707D"/>
<path d="M196.053 117.24C195.453 117.24 194.879 117.127 194.333 116.9C193.799 116.673 193.326 116.347 192.913 115.92C192.499 115.48 192.166 114.947 191.913 114.32C191.673 113.68 191.553 112.96 191.553 112.16C191.553 111.347 191.673 110.627 191.913 110C192.166 109.36 192.499 108.82 192.913 108.38C193.326 107.94 193.799 107.607 194.333 107.38C194.879 107.153 195.453 107.04 196.053 107.04C196.653 107.04 197.219 107.153 197.753 107.38C198.299 107.607 198.779 107.94 199.193 108.38C199.606 108.82 199.933 109.36 200.173 110C200.426 110.627 200.553 111.347 200.553 112.16C200.553 112.96 200.426 113.68 200.173 114.32C199.933 114.947 199.606 115.48 199.193 115.92C198.779 116.347 198.299 116.673 197.753 116.9C197.219 117.127 196.653 117.24 196.053 117.24ZM196.053 115.88C196.466 115.88 196.846 115.793 197.193 115.62C197.539 115.433 197.833 115.18 198.073 114.86C198.326 114.527 198.519 114.133 198.653 113.68C198.786 113.227 198.853 112.72 198.853 112.16C198.853 111.6 198.786 111.093 198.653 110.64C198.519 110.173 198.326 109.773 198.073 109.44C197.833 109.107 197.539 108.853 197.193 108.68C196.846 108.493 196.466 108.4 196.053 108.4C195.639 108.4 195.259 108.493 194.913 108.68C194.566 108.853 194.266 109.107 194.013 109.44C193.773 109.773 193.586 110.173 193.453 110.64C193.319 111.093 193.253 111.6 193.253 112.16C193.253 112.72 193.319 113.227 193.453 113.68C193.586 114.133 193.773 114.527 194.013 114.86C194.266 115.18 194.566 115.433 194.913 115.62C195.259 115.793 195.639 115.88 196.053 115.88Z" fill="#69707D"/>
<path d="M206.433 117.24C205.206 117.24 204.226 116.8 203.493 115.92C202.773 115.04 202.413 113.787 202.413 112.16C202.413 111.373 202.526 110.667 202.753 110.04C202.993 109.4 203.306 108.86 203.693 108.42C204.079 107.98 204.526 107.64 205.033 107.4C205.539 107.16 206.073 107.04 206.633 107.04C207.193 107.04 207.679 107.14 208.093 107.34C208.506 107.54 208.926 107.813 209.353 108.16L209.273 106.5V102.76H210.933V117H209.573L209.433 115.86H209.373C208.986 116.233 208.539 116.56 208.033 116.84C207.539 117.107 207.006 117.24 206.433 117.24ZM206.793 115.86C207.246 115.86 207.673 115.753 208.073 115.54C208.473 115.313 208.873 114.973 209.273 114.52V109.44C208.859 109.067 208.459 108.807 208.073 108.66C207.699 108.5 207.313 108.42 206.913 108.42C206.526 108.42 206.159 108.513 205.813 108.7C205.479 108.873 205.186 109.127 204.933 109.46C204.679 109.78 204.479 110.167 204.333 110.62C204.186 111.073 204.113 111.58 204.113 112.14C204.113 113.313 204.346 114.227 204.813 114.88C205.279 115.533 205.939 115.86 206.793 115.86Z" fill="#69707D"/>
<path d="M220.45 117.24C219.637 117.24 218.957 117 218.41 116.52C217.877 116.04 217.61 115.36 217.61 114.48C217.61 113.413 218.084 112.6 219.03 112.04C219.977 111.467 221.49 111.067 223.57 110.84C223.57 110.533 223.537 110.233 223.47 109.94C223.417 109.647 223.317 109.387 223.17 109.16C223.024 108.933 222.817 108.753 222.55 108.62C222.297 108.473 221.97 108.4 221.57 108.4C221.01 108.4 220.484 108.507 219.99 108.72C219.497 108.933 219.057 109.173 218.67 109.44L218.03 108.3C218.484 108.007 219.037 107.727 219.69 107.46C220.344 107.18 221.064 107.04 221.85 107.04C223.037 107.04 223.897 107.407 224.43 108.14C224.964 108.86 225.23 109.827 225.23 111.04V117H223.87L223.73 115.84H223.67C223.204 116.227 222.704 116.56 222.17 116.84C221.637 117.107 221.064 117.24 220.45 117.24ZM220.93 115.92C221.397 115.92 221.837 115.813 222.25 115.6C222.664 115.373 223.104 115.047 223.57 114.62V111.92C222.757 112.027 222.07 112.153 221.51 112.3C220.964 112.447 220.517 112.62 220.17 112.82C219.837 113.02 219.59 113.253 219.43 113.52C219.284 113.773 219.21 114.053 219.21 114.36C219.21 114.92 219.377 115.32 219.71 115.56C220.044 115.8 220.45 115.92 220.93 115.92Z" fill="#69707D"/>
<path d="M231.075 117.24C230.555 117.24 230.115 117.16 229.755 117C229.408 116.84 229.122 116.62 228.895 116.34C228.682 116.06 228.528 115.72 228.435 115.32C228.342 114.92 228.295 114.48 228.295 114V108.62H226.855V107.38L228.375 107.28L228.575 104.56H229.955V107.28H232.575V108.62H229.955V114.02C229.955 114.62 230.062 115.087 230.275 115.42C230.502 115.74 230.895 115.9 231.455 115.9C231.628 115.9 231.815 115.873 232.015 115.82C232.215 115.767 232.395 115.707 232.555 115.64L232.875 116.88C232.608 116.973 232.315 117.053 231.995 117.12C231.688 117.2 231.382 117.24 231.075 117.24Z" fill="#69707D"/>
<path d="M241.837 117.24C241.317 117.24 240.877 117.16 240.517 117C240.17 116.84 239.883 116.62 239.657 116.34C239.443 116.06 239.29 115.72 239.197 115.32C239.103 114.92 239.057 114.48 239.057 114V108.62H237.617V107.38L239.137 107.28L239.337 104.56H240.717V107.28H243.337V108.62H240.717V114.02C240.717 114.62 240.823 115.087 241.037 115.42C241.263 115.74 241.657 115.9 242.217 115.9C242.39 115.9 242.577 115.873 242.777 115.82C242.977 115.767 243.157 115.707 243.317 115.64L243.637 116.88C243.37 116.973 243.077 117.053 242.757 117.12C242.45 117.2 242.143 117.24 241.837 117.24Z" fill="#69707D"/>
<path d="M245.535 117V102.76H247.175V106.64L247.115 108.64C247.581 108.2 248.068 107.827 248.575 107.52C249.081 107.2 249.675 107.04 250.355 107.04C251.381 107.04 252.128 107.36 252.595 108C253.075 108.64 253.315 109.587 253.315 110.84V117H251.675V111.06C251.675 110.14 251.528 109.48 251.235 109.08C250.941 108.667 250.475 108.46 249.835 108.46C249.328 108.46 248.881 108.587 248.495 108.84C248.108 109.093 247.668 109.467 247.175 109.96V117H245.535Z" fill="#69707D"/>
<path d="M256.413 117V107.28H258.053V117H256.413ZM257.253 105.28C256.933 105.28 256.66 105.18 256.433 104.98C256.22 104.78 256.113 104.527 256.113 104.22C256.113 103.9 256.22 103.647 256.433 103.46C256.66 103.26 256.933 103.16 257.253 103.16C257.573 103.16 257.84 103.26 258.053 103.46C258.28 103.647 258.393 103.9 258.393 104.22C258.393 104.527 258.28 104.78 258.053 104.98C257.84 105.18 257.573 105.28 257.253 105.28Z" fill="#69707D"/>
<path d="M261.335 117V107.28H262.695L262.835 108.68H262.895C263.362 108.213 263.849 107.827 264.355 107.52C264.875 107.2 265.475 107.04 266.155 107.04C267.182 107.04 267.929 107.36 268.395 108C268.875 108.64 269.115 109.587 269.115 110.84V117H267.475V111.06C267.475 110.14 267.329 109.48 267.035 109.08C266.742 108.667 266.275 108.46 265.635 108.46C265.129 108.46 264.682 108.587 264.295 108.84C263.909 109.093 263.469 109.467 262.975 109.96V117H261.335Z" fill="#69707D"/>
<path d="M275.553 121.48C274.953 121.48 274.406 121.42 273.913 121.3C273.419 121.193 272.993 121.027 272.633 120.8C272.286 120.573 272.013 120.3 271.813 119.98C271.626 119.66 271.533 119.287 271.533 118.86C271.533 118.447 271.659 118.053 271.913 117.68C272.166 117.307 272.513 116.967 272.953 116.66V116.58C272.713 116.433 272.506 116.233 272.333 115.98C272.173 115.713 272.093 115.387 272.093 115C272.093 114.587 272.206 114.227 272.433 113.92C272.659 113.613 272.899 113.373 273.153 113.2V113.12C272.833 112.853 272.539 112.5 272.273 112.06C272.019 111.607 271.893 111.087 271.893 110.5C271.893 109.967 271.986 109.487 272.173 109.06C272.373 108.633 272.639 108.273 272.973 107.98C273.306 107.673 273.693 107.44 274.133 107.28C274.586 107.12 275.059 107.04 275.553 107.04C275.819 107.04 276.066 107.067 276.293 107.12C276.533 107.16 276.746 107.213 276.933 107.28H280.313V108.54H278.313C278.539 108.767 278.726 109.053 278.873 109.4C279.033 109.747 279.113 110.127 279.113 110.54C279.113 111.06 279.019 111.533 278.833 111.96C278.646 112.373 278.393 112.727 278.073 113.02C277.753 113.3 277.373 113.52 276.933 113.68C276.506 113.84 276.046 113.92 275.553 113.92C275.313 113.92 275.066 113.893 274.813 113.84C274.559 113.773 274.319 113.687 274.093 113.58C273.919 113.727 273.773 113.893 273.653 114.08C273.533 114.253 273.473 114.473 273.473 114.74C273.473 115.047 273.593 115.3 273.833 115.5C274.073 115.7 274.526 115.8 275.193 115.8H277.073C278.206 115.8 279.053 115.987 279.613 116.36C280.186 116.72 280.473 117.307 280.473 118.12C280.473 118.573 280.359 119 280.133 119.4C279.906 119.813 279.579 120.173 279.153 120.48C278.726 120.787 278.206 121.027 277.593 121.2C276.993 121.387 276.313 121.48 275.553 121.48ZM275.553 112.82C275.833 112.82 276.093 112.767 276.333 112.66C276.586 112.553 276.806 112.4 276.993 112.2C277.193 112 277.346 111.76 277.453 111.48C277.559 111.187 277.613 110.86 277.613 110.5C277.613 109.78 277.413 109.227 277.013 108.84C276.613 108.44 276.126 108.24 275.553 108.24C274.979 108.24 274.493 108.44 274.093 108.84C273.693 109.227 273.493 109.78 273.493 110.5C273.493 110.86 273.546 111.187 273.653 111.48C273.759 111.76 273.906 112 274.093 112.2C274.293 112.4 274.513 112.553 274.753 112.66C275.006 112.767 275.273 112.82 275.553 112.82ZM275.793 120.34C276.259 120.34 276.679 120.28 277.053 120.16C277.439 120.053 277.766 119.907 278.033 119.72C278.299 119.547 278.506 119.34 278.653 119.1C278.799 118.86 278.873 118.613 278.873 118.36C278.873 117.907 278.706 117.593 278.373 117.42C278.039 117.247 277.553 117.16 276.913 117.16H275.233C275.046 117.16 274.839 117.147 274.613 117.12C274.399 117.107 274.186 117.067 273.973 117C273.626 117.253 273.373 117.52 273.213 117.8C273.053 118.08 272.973 118.36 272.973 118.64C272.973 119.16 273.219 119.573 273.713 119.88C274.219 120.187 274.913 120.34 275.793 120.34Z" fill="#69707D"/>
<path d="M284.891 117.24C284.198 117.24 283.538 117.113 282.911 116.86C282.284 116.607 281.738 116.287 281.271 115.9L282.091 114.8C282.518 115.147 282.951 115.427 283.391 115.64C283.844 115.853 284.364 115.96 284.951 115.96C285.591 115.96 286.071 115.813 286.391 115.52C286.711 115.227 286.871 114.867 286.871 114.44C286.871 114.187 286.804 113.967 286.671 113.78C286.538 113.593 286.364 113.433 286.151 113.3C285.951 113.153 285.718 113.027 285.451 112.92C285.184 112.813 284.918 112.707 284.651 112.6C284.304 112.48 283.958 112.347 283.611 112.2C283.264 112.04 282.951 111.853 282.671 111.64C282.404 111.413 282.184 111.153 282.011 110.86C281.838 110.567 281.751 110.213 281.751 109.8C281.751 109.413 281.824 109.053 281.971 108.72C282.131 108.373 282.351 108.08 282.631 107.84C282.924 107.587 283.278 107.393 283.691 107.26C284.104 107.113 284.571 107.04 285.091 107.04C285.704 107.04 286.264 107.147 286.771 107.36C287.291 107.573 287.738 107.833 288.111 108.14L287.331 109.18C286.998 108.927 286.651 108.72 286.291 108.56C285.931 108.4 285.538 108.32 285.111 108.32C284.498 108.32 284.044 108.46 283.751 108.74C283.471 109.02 283.331 109.347 283.331 109.72C283.331 109.947 283.391 110.147 283.511 110.32C283.631 110.48 283.791 110.627 283.991 110.76C284.191 110.88 284.418 110.993 284.671 111.1C284.938 111.193 285.211 111.293 285.491 111.4C285.838 111.533 286.184 111.673 286.531 111.82C286.891 111.967 287.211 112.153 287.491 112.38C287.771 112.593 287.998 112.86 288.171 113.18C288.358 113.5 288.451 113.887 288.451 114.34C288.451 114.74 288.371 115.113 288.211 115.46C288.064 115.807 287.838 116.113 287.531 116.38C287.238 116.647 286.864 116.853 286.411 117C285.971 117.16 285.464 117.24 284.891 117.24Z" fill="#69707D"/>
<path d="M297.794 117.24C297.274 117.24 296.834 117.16 296.474 117C296.127 116.84 295.84 116.62 295.614 116.34C295.4 116.06 295.247 115.72 295.154 115.32C295.06 114.92 295.014 114.48 295.014 114V108.62H293.574V107.38L295.094 107.28L295.294 104.56H296.674V107.28H299.294V108.62H296.674V114.02C296.674 114.62 296.78 115.087 296.994 115.42C297.22 115.74 297.614 115.9 298.174 115.9C298.347 115.9 298.534 115.873 298.734 115.82C298.934 115.767 299.114 115.707 299.274 115.64L299.594 116.88C299.327 116.973 299.034 117.053 298.714 117.12C298.407 117.2 298.1 117.24 297.794 117.24Z" fill="#69707D"/>
<path d="M301.492 117V102.76H303.132V106.64L303.072 108.64C303.538 108.2 304.025 107.827 304.532 107.52C305.038 107.2 305.632 107.04 306.312 107.04C307.338 107.04 308.085 107.36 308.552 108C309.032 108.64 309.272 109.587 309.272 110.84V117H307.632V111.06C307.632 110.14 307.485 109.48 307.192 109.08C306.898 108.667 306.432 108.46 305.792 108.46C305.285 108.46 304.838 108.587 304.452 108.84C304.065 109.093 303.625 109.467 303.132 109.96V117H301.492Z" fill="#69707D"/>
<path d="M314.61 117.24C313.797 117.24 313.117 117 312.57 116.52C312.037 116.04 311.77 115.36 311.77 114.48C311.77 113.413 312.244 112.6 313.19 112.04C314.137 111.467 315.65 111.067 317.73 110.84C317.73 110.533 317.697 110.233 317.63 109.94C317.577 109.647 317.477 109.387 317.33 109.16C317.184 108.933 316.977 108.753 316.71 108.62C316.457 108.473 316.13 108.4 315.73 108.4C315.17 108.4 314.644 108.507 314.15 108.72C313.657 108.933 313.217 109.173 312.83 109.44L312.19 108.3C312.644 108.007 313.197 107.727 313.85 107.46C314.504 107.18 315.224 107.04 316.01 107.04C317.197 107.04 318.057 107.407 318.59 108.14C319.124 108.86 319.39 109.827 319.39 111.04V117H318.03L317.89 115.84H317.83C317.364 116.227 316.864 116.56 316.33 116.84C315.797 117.107 315.224 117.24 314.61 117.24ZM315.09 115.92C315.557 115.92 315.997 115.813 316.41 115.6C316.824 115.373 317.264 115.047 317.73 114.62V111.92C316.917 112.027 316.23 112.153 315.67 112.3C315.124 112.447 314.677 112.62 314.33 112.82C313.997 113.02 313.75 113.253 313.59 113.52C313.444 113.773 313.37 114.053 313.37 114.36C313.37 114.92 313.537 115.32 313.87 115.56C314.204 115.8 314.61 115.92 315.09 115.92Z" fill="#69707D"/>
<path d="M325.235 117.24C324.715 117.24 324.275 117.16 323.915 117C323.568 116.84 323.282 116.62 323.055 116.34C322.842 116.06 322.688 115.72 322.595 115.32C322.502 114.92 322.455 114.48 322.455 114V108.62H321.015V107.38L322.535 107.28L322.735 104.56H324.115V107.28H326.735V108.62H324.115V114.02C324.115 114.62 324.222 115.087 324.435 115.42C324.662 115.74 325.055 115.9 325.615 115.9C325.788 115.9 325.975 115.873 326.175 115.82C326.375 115.767 326.555 115.707 326.715 115.64L327.035 116.88C326.768 116.973 326.475 117.053 326.155 117.12C325.848 117.2 325.542 117.24 325.235 117.24Z" fill="#69707D"/>
<path d="M98.0736 142V127.76H99.7136V131.64L99.6536 133.64C100.12 133.2 100.607 132.827 101.114 132.52C101.62 132.2 102.214 132.04 102.894 132.04C103.92 132.04 104.667 132.36 105.134 133C105.614 133.64 105.854 134.587 105.854 135.84V142H104.214V136.06C104.214 135.14 104.067 134.48 103.774 134.08C103.48 133.667 103.014 133.46 102.374 133.46C101.867 133.46 101.42 133.587 101.034 133.84C100.647 134.093 100.207 134.467 99.7136 134.96V142H98.0736Z" fill="#69707D"/>
<path d="M111.792 142.24C110.752 142.24 109.992 141.92 109.512 141.28C109.046 140.64 108.812 139.693 108.812 138.44V132.28H110.472V138.22C110.472 139.14 110.612 139.807 110.892 140.22C111.186 140.62 111.652 140.82 112.292 140.82C112.799 140.82 113.246 140.693 113.632 140.44C114.019 140.173 114.446 139.753 114.912 139.18V132.28H116.552V142H115.192L115.052 140.48H114.992C114.539 141.013 114.059 141.44 113.552 141.76C113.059 142.08 112.472 142.24 111.792 142.24Z" fill="#69707D"/>
<path d="M119.831 142V132.28H121.191L121.331 133.68H121.391C121.818 133.213 122.278 132.827 122.771 132.52C123.278 132.2 123.825 132.04 124.411 132.04C125.158 132.04 125.738 132.207 126.151 132.54C126.578 132.86 126.891 133.313 127.091 133.9C127.598 133.34 128.105 132.893 128.611 132.56C129.131 132.213 129.691 132.04 130.291 132.04C131.291 132.04 132.031 132.36 132.511 133C133.005 133.64 133.251 134.587 133.251 135.84V142H131.611V136.06C131.611 135.14 131.465 134.48 131.171 134.08C130.878 133.667 130.425 133.46 129.811 133.46C129.078 133.46 128.265 133.96 127.371 134.96V142H125.731V136.06C125.731 135.14 125.585 134.48 125.291 134.08C124.998 133.667 124.538 133.46 123.911 133.46C123.178 133.46 122.365 133.96 121.471 134.96V142H119.831Z" fill="#69707D"/>
<path d="M138.653 142.24C137.84 142.24 137.16 142 136.613 141.52C136.08 141.04 135.813 140.36 135.813 139.48C135.813 138.413 136.287 137.6 137.233 137.04C138.18 136.467 139.693 136.067 141.773 135.84C141.773 135.533 141.74 135.233 141.673 134.94C141.62 134.647 141.52 134.387 141.373 134.16C141.227 133.933 141.02 133.753 140.753 133.62C140.5 133.473 140.173 133.4 139.773 133.4C139.213 133.4 138.687 133.507 138.193 133.72C137.7 133.933 137.26 134.173 136.873 134.44L136.233 133.3C136.687 133.007 137.24 132.727 137.893 132.46C138.547 132.18 139.267 132.04 140.053 132.04C141.24 132.04 142.1 132.407 142.633 133.14C143.167 133.86 143.433 134.827 143.433 136.04V142H142.073L141.933 140.84H141.873C141.407 141.227 140.907 141.56 140.373 141.84C139.84 142.107 139.267 142.24 138.653 142.24ZM139.133 140.92C139.6 140.92 140.04 140.813 140.453 140.6C140.867 140.373 141.307 140.047 141.773 139.62V136.92C140.96 137.027 140.273 137.153 139.713 137.3C139.167 137.447 138.72 137.62 138.373 137.82C138.04 138.02 137.793 138.253 137.633 138.52C137.487 138.773 137.413 139.053 137.413 139.36C137.413 139.92 137.58 140.32 137.913 140.56C138.247 140.8 138.653 140.92 139.133 140.92Z" fill="#69707D"/>
<path d="M146.492 142V132.28H147.852L147.992 133.68H148.052C148.518 133.213 149.005 132.827 149.512 132.52C150.032 132.2 150.632 132.04 151.312 132.04C152.338 132.04 153.085 132.36 153.552 133C154.032 133.64 154.272 134.587 154.272 135.84V142H152.632V136.06C152.632 135.14 152.485 134.48 152.192 134.08C151.898 133.667 151.432 133.46 150.792 133.46C150.285 133.46 149.838 133.587 149.452 133.84C149.065 134.093 148.625 134.467 148.132 134.96V142H146.492Z" fill="#69707D"/>
<path d="M159.969 142.24C159.276 142.24 158.616 142.113 157.989 141.86C157.362 141.607 156.816 141.287 156.349 140.9L157.169 139.8C157.596 140.147 158.029 140.427 158.469 140.64C158.922 140.853 159.442 140.96 160.029 140.96C160.669 140.96 161.149 140.813 161.469 140.52C161.789 140.227 161.949 139.867 161.949 139.44C161.949 139.187 161.882 138.967 161.749 138.78C161.616 138.593 161.442 138.433 161.229 138.3C161.029 138.153 160.796 138.027 160.529 137.92C160.262 137.813 159.996 137.707 159.729 137.6C159.382 137.48 159.036 137.347 158.689 137.2C158.342 137.04 158.029 136.853 157.749 136.64C157.482 136.413 157.262 136.153 157.089 135.86C156.916 135.567 156.829 135.213 156.829 134.8C156.829 134.413 156.902 134.053 157.049 133.72C157.209 133.373 157.429 133.08 157.709 132.84C158.002 132.587 158.356 132.393 158.769 132.26C159.182 132.113 159.649 132.04 160.169 132.04C160.782 132.04 161.342 132.147 161.849 132.36C162.369 132.573 162.816 132.833 163.189 133.14L162.409 134.18C162.076 133.927 161.729 133.72 161.369 133.56C161.009 133.4 160.616 133.32 160.189 133.32C159.576 133.32 159.122 133.46 158.829 133.74C158.549 134.02 158.409 134.347 158.409 134.72C158.409 134.947 158.469 135.147 158.589 135.32C158.709 135.48 158.869 135.627 159.069 135.76C159.269 135.88 159.496 135.993 159.749 136.1C160.016 136.193 160.289 136.293 160.569 136.4C160.916 136.533 161.262 136.673 161.609 136.82C161.969 136.967 162.289 137.153 162.569 137.38C162.849 137.593 163.076 137.86 163.249 138.18C163.436 138.5 163.529 138.887 163.529 139.34C163.529 139.74 163.449 140.113 163.289 140.46C163.142 140.807 162.916 141.113 162.609 141.38C162.316 141.647 161.942 141.853 161.489 142C161.049 142.16 160.542 142.24 159.969 142.24Z" fill="#69707D"/>
<path d="M172.052 142.24C171.239 142.24 170.559 142 170.012 141.52C169.479 141.04 169.212 140.36 169.212 139.48C169.212 138.413 169.685 137.6 170.632 137.04C171.579 136.467 173.092 136.067 175.172 135.84C175.172 135.533 175.139 135.233 175.072 134.94C175.019 134.647 174.919 134.387 174.772 134.16C174.625 133.933 174.419 133.753 174.152 133.62C173.899 133.473 173.572 133.4 173.172 133.4C172.612 133.4 172.085 133.507 171.592 133.72C171.099 133.933 170.659 134.173 170.272 134.44L169.632 133.3C170.085 133.007 170.639 132.727 171.292 132.46C171.945 132.18 172.665 132.04 173.452 132.04C174.639 132.04 175.499 132.407 176.032 133.14C176.565 133.86 176.832 134.827 176.832 136.04V142H175.472L175.332 140.84H175.272C174.805 141.227 174.305 141.56 173.772 141.84C173.239 142.107 172.665 142.24 172.052 142.24ZM172.532 140.92C172.999 140.92 173.439 140.813 173.852 140.6C174.265 140.373 174.705 140.047 175.172 139.62V136.92C174.359 137.027 173.672 137.153 173.112 137.3C172.565 137.447 172.119 137.62 171.772 137.82C171.439 138.02 171.192 138.253 171.032 138.52C170.885 138.773 170.812 139.053 170.812 139.36C170.812 139.92 170.979 140.32 171.312 140.56C171.645 140.8 172.052 140.92 172.532 140.92Z" fill="#69707D"/>
<path d="M179.89 142V132.28H181.25L181.39 134.04H181.45C181.783 133.427 182.183 132.94 182.65 132.58C183.13 132.22 183.65 132.04 184.21 132.04C184.597 132.04 184.943 132.107 185.25 132.24L184.93 133.68C184.77 133.627 184.623 133.587 184.49 133.56C184.357 133.533 184.19 133.52 183.99 133.52C183.577 133.52 183.143 133.687 182.69 134.02C182.25 134.353 181.863 134.933 181.53 135.76V142H179.89Z" fill="#69707D"/>
<path d="M190.568 142.24C189.915 142.24 189.302 142.127 188.728 141.9C188.168 141.66 187.675 141.327 187.248 140.9C186.835 140.46 186.508 139.927 186.268 139.3C186.028 138.673 185.908 137.96 185.908 137.16C185.908 136.36 186.028 135.647 186.268 135.02C186.522 134.38 186.848 133.84 187.248 133.4C187.662 132.96 188.128 132.627 188.648 132.4C189.168 132.16 189.708 132.04 190.268 132.04C190.882 132.04 191.428 132.147 191.908 132.36C192.402 132.573 192.808 132.88 193.128 133.28C193.462 133.68 193.715 134.16 193.888 134.72C194.062 135.28 194.148 135.907 194.148 136.6C194.148 136.773 194.142 136.947 194.128 137.12C194.128 137.28 194.115 137.42 194.088 137.54H187.528C187.595 138.58 187.915 139.407 188.488 140.02C189.075 140.62 189.835 140.92 190.768 140.92C191.235 140.92 191.662 140.853 192.048 140.72C192.448 140.573 192.828 140.387 193.188 140.16L193.768 141.24C193.342 141.507 192.868 141.74 192.348 141.94C191.828 142.14 191.235 142.24 190.568 142.24ZM187.508 136.36H192.708C192.708 135.373 192.495 134.627 192.068 134.12C191.655 133.6 191.068 133.34 190.308 133.34C189.962 133.34 189.628 133.407 189.308 133.54C189.002 133.673 188.722 133.873 188.468 134.14C188.215 134.393 188.002 134.707 187.828 135.08C187.668 135.453 187.562 135.88 187.508 136.36Z" fill="#69707D"/>
<path d="M196.55 142V132.28H197.91L198.05 133.68H198.11C198.577 133.213 199.063 132.827 199.57 132.52C200.09 132.2 200.69 132.04 201.37 132.04C202.397 132.04 203.143 132.36 203.61 133C204.09 133.64 204.33 134.587 204.33 135.84V142H202.69V136.06C202.69 135.14 202.543 134.48 202.25 134.08C201.957 133.667 201.49 133.46 200.85 133.46C200.343 133.46 199.897 133.587 199.51 133.84C199.123 134.093 198.683 134.467 198.19 134.96V142H196.55Z" fill="#69707D"/>
<path d="M207.177 133.38L206.717 132.62C207.224 132.287 207.597 131.933 207.837 131.56C208.09 131.173 208.217 130.693 208.217 130.12C208.177 130.133 208.124 130.14 208.057 130.14C207.777 130.14 207.53 130.053 207.317 129.88C207.104 129.707 206.997 129.46 206.997 129.14C206.997 128.793 207.097 128.52 207.297 128.32C207.497 128.12 207.75 128.02 208.057 128.02C208.444 128.02 208.75 128.18 208.977 128.5C209.204 128.807 209.317 129.253 209.317 129.84C209.317 130.64 209.13 131.333 208.757 131.92C208.397 132.493 207.87 132.98 207.177 133.38Z" fill="#69707D"/>
<path d="M215.137 142.24C214.617 142.24 214.177 142.16 213.817 142C213.471 141.84 213.184 141.62 212.957 141.34C212.744 141.06 212.591 140.72 212.497 140.32C212.404 139.92 212.357 139.48 212.357 139V133.62H210.917V132.38L212.437 132.28L212.637 129.56H214.017V132.28H216.637V133.62H214.017V139.02C214.017 139.62 214.124 140.087 214.337 140.42C214.564 140.74 214.957 140.9 215.517 140.9C215.691 140.9 215.877 140.873 216.077 140.82C216.277 140.767 216.457 140.707 216.617 140.64L216.937 141.88C216.671 141.973 216.377 142.053 216.057 142.12C215.751 142.2 215.444 142.24 215.137 142.24Z" fill="#69707D"/>
<path d="M225.379 142.24C224.686 142.24 224.026 142.113 223.399 141.86C222.773 141.607 222.226 141.287 221.759 140.9L222.579 139.8C223.006 140.147 223.439 140.427 223.879 140.64C224.333 140.853 224.853 140.96 225.439 140.96C226.079 140.96 226.559 140.813 226.879 140.52C227.199 140.227 227.359 139.867 227.359 139.44C227.359 139.187 227.293 138.967 227.159 138.78C227.026 138.593 226.853 138.433 226.639 138.3C226.439 138.153 226.206 138.027 225.939 137.92C225.673 137.813 225.406 137.707 225.139 137.6C224.793 137.48 224.446 137.347 224.099 137.2C223.753 137.04 223.439 136.853 223.159 136.64C222.893 136.413 222.673 136.153 222.499 135.86C222.326 135.567 222.239 135.213 222.239 134.8C222.239 134.413 222.313 134.053 222.459 133.72C222.619 133.373 222.839 133.08 223.119 132.84C223.413 132.587 223.766 132.393 224.179 132.26C224.593 132.113 225.059 132.04 225.579 132.04C226.193 132.04 226.753 132.147 227.259 132.36C227.779 132.573 228.226 132.833 228.599 133.14L227.819 134.18C227.486 133.927 227.139 133.72 226.779 133.56C226.419 133.4 226.026 133.32 225.599 133.32C224.986 133.32 224.533 133.46 224.239 133.74C223.959 134.02 223.819 134.347 223.819 134.72C223.819 134.947 223.879 135.147 223.999 135.32C224.119 135.48 224.279 135.627 224.479 135.76C224.679 135.88 224.906 135.993 225.159 136.1C225.426 136.193 225.699 136.293 225.979 136.4C226.326 136.533 226.673 136.673 227.019 136.82C227.379 136.967 227.699 137.153 227.979 137.38C228.259 137.593 228.486 137.86 228.659 138.18C228.846 138.5 228.939 138.887 228.939 139.34C228.939 139.74 228.859 140.113 228.699 140.46C228.553 140.807 228.326 141.113 228.019 141.38C227.726 141.647 227.353 141.853 226.899 142C226.459 142.16 225.953 142.24 225.379 142.24Z" fill="#69707D"/>
<path d="M234.998 142.24C234.398 142.24 233.825 142.127 233.278 141.9C232.745 141.673 232.271 141.347 231.858 140.92C231.445 140.48 231.111 139.947 230.858 139.32C230.618 138.68 230.498 137.96 230.498 137.16C230.498 136.347 230.618 135.627 230.858 135C231.111 134.36 231.445 133.82 231.858 133.38C232.271 132.94 232.745 132.607 233.278 132.38C233.825 132.153 234.398 132.04 234.998 132.04C235.598 132.04 236.165 132.153 236.698 132.38C237.245 132.607 237.725 132.94 238.138 133.38C238.551 133.82 238.878 134.36 239.118 135C239.371 135.627 239.498 136.347 239.498 137.16C239.498 137.96 239.371 138.68 239.118 139.32C238.878 139.947 238.551 140.48 238.138 140.92C237.725 141.347 237.245 141.673 236.698 141.9C236.165 142.127 235.598 142.24 234.998 142.24ZM234.998 140.88C235.411 140.88 235.791 140.793 236.138 140.62C236.485 140.433 236.778 140.18 237.018 139.86C237.271 139.527 237.465 139.133 237.598 138.68C237.731 138.227 237.798 137.72 237.798 137.16C237.798 136.6 237.731 136.093 237.598 135.64C237.465 135.173 237.271 134.773 237.018 134.44C236.778 134.107 236.485 133.853 236.138 133.68C235.791 133.493 235.411 133.4 234.998 133.4C234.585 133.4 234.205 133.493 233.858 133.68C233.511 133.853 233.211 134.107 232.958 134.44C232.718 134.773 232.531 135.173 232.398 135.64C232.265 136.093 232.198 136.6 232.198 137.16C232.198 137.72 232.265 138.227 232.398 138.68C232.531 139.133 232.718 139.527 232.958 139.86C233.211 140.18 233.511 140.433 233.858 140.62C234.205 140.793 234.585 140.88 234.998 140.88Z" fill="#69707D"/>
<path d="M249.342 146.48C248.742 146.48 248.195 146.42 247.702 146.3C247.209 146.193 246.782 146.027 246.422 145.8C246.075 145.573 245.802 145.3 245.602 144.98C245.415 144.66 245.322 144.287 245.322 143.86C245.322 143.447 245.449 143.053 245.702 142.68C245.955 142.307 246.302 141.967 246.742 141.66V141.58C246.502 141.433 246.295 141.233 246.122 140.98C245.962 140.713 245.882 140.387 245.882 140C245.882 139.587 245.995 139.227 246.222 138.92C246.449 138.613 246.689 138.373 246.942 138.2V138.12C246.622 137.853 246.329 137.5 246.062 137.06C245.809 136.607 245.682 136.087 245.682 135.5C245.682 134.967 245.775 134.487 245.962 134.06C246.162 133.633 246.429 133.273 246.762 132.98C247.095 132.673 247.482 132.44 247.922 132.28C248.375 132.12 248.849 132.04 249.342 132.04C249.609 132.04 249.855 132.067 250.082 132.12C250.322 132.16 250.535 132.213 250.722 132.28H254.102V133.54H252.102C252.329 133.767 252.515 134.053 252.662 134.4C252.822 134.747 252.902 135.127 252.902 135.54C252.902 136.06 252.809 136.533 252.622 136.96C252.435 137.373 252.182 137.727 251.862 138.02C251.542 138.3 251.162 138.52 250.722 138.68C250.295 138.84 249.835 138.92 249.342 138.92C249.102 138.92 248.855 138.893 248.602 138.84C248.349 138.773 248.109 138.687 247.882 138.58C247.709 138.727 247.562 138.893 247.442 139.08C247.322 139.253 247.262 139.473 247.262 139.74C247.262 140.047 247.382 140.3 247.622 140.5C247.862 140.7 248.315 140.8 248.982 140.8H250.862C251.995 140.8 252.842 140.987 253.402 141.36C253.975 141.72 254.262 142.307 254.262 143.12C254.262 143.573 254.149 144 253.922 144.4C253.695 144.813 253.369 145.173 252.942 145.48C252.515 145.787 251.995 146.027 251.382 146.2C250.782 146.387 250.102 146.48 249.342 146.48ZM249.342 137.82C249.622 137.82 249.882 137.767 250.122 137.66C250.375 137.553 250.595 137.4 250.782 137.2C250.982 137 251.135 136.76 251.242 136.48C251.349 136.187 251.402 135.86 251.402 135.5C251.402 134.78 251.202 134.227 250.802 133.84C250.402 133.44 249.915 133.24 249.342 133.24C248.769 133.24 248.282 133.44 247.882 133.84C247.482 134.227 247.282 134.78 247.282 135.5C247.282 135.86 247.335 136.187 247.442 136.48C247.549 136.76 247.695 137 247.882 137.2C248.082 137.4 248.302 137.553 248.542 137.66C248.795 137.767 249.062 137.82 249.342 137.82ZM249.582 145.34C250.049 145.34 250.469 145.28 250.842 145.16C251.229 145.053 251.555 144.907 251.822 144.72C252.089 144.547 252.295 144.34 252.442 144.1C252.589 143.86 252.662 143.613 252.662 143.36C252.662 142.907 252.495 142.593 252.162 142.42C251.829 142.247 251.342 142.16 250.702 142.16H249.022C248.835 142.16 248.629 142.147 248.402 142.12C248.189 142.107 247.975 142.067 247.762 142C247.415 142.253 247.162 142.52 247.002 142.8C246.842 143.08 246.762 143.36 246.762 143.64C246.762 144.16 247.009 144.573 247.502 144.88C248.009 145.187 248.702 145.34 249.582 145.34Z" fill="#69707D"/>
<path d="M259.647 142.24C259.047 142.24 258.473 142.127 257.927 141.9C257.393 141.673 256.92 141.347 256.507 140.92C256.093 140.48 255.76 139.947 255.507 139.32C255.267 138.68 255.147 137.96 255.147 137.16C255.147 136.347 255.267 135.627 255.507 135C255.76 134.36 256.093 133.82 256.507 133.38C256.92 132.94 257.393 132.607 257.927 132.38C258.473 132.153 259.047 132.04 259.647 132.04C260.247 132.04 260.813 132.153 261.347 132.38C261.893 132.607 262.373 132.94 262.787 133.38C263.2 133.82 263.527 134.36 263.767 135C264.02 135.627 264.147 136.347 264.147 137.16C264.147 137.96 264.02 138.68 263.767 139.32C263.527 139.947 263.2 140.48 262.787 140.92C262.373 141.347 261.893 141.673 261.347 141.9C260.813 142.127 260.247 142.24 259.647 142.24ZM259.647 140.88C260.06 140.88 260.44 140.793 260.787 140.62C261.133 140.433 261.427 140.18 261.667 139.86C261.92 139.527 262.113 139.133 262.247 138.68C262.38 138.227 262.447 137.72 262.447 137.16C262.447 136.6 262.38 136.093 262.247 135.64C262.113 135.173 261.92 134.773 261.667 134.44C261.427 134.107 261.133 133.853 260.787 133.68C260.44 133.493 260.06 133.4 259.647 133.4C259.233 133.4 258.853 133.493 258.507 133.68C258.16 133.853 257.86 134.107 257.607 134.44C257.367 134.773 257.18 135.173 257.047 135.64C256.913 136.093 256.847 136.6 256.847 137.16C256.847 137.72 256.913 138.227 257.047 138.68C257.18 139.133 257.367 139.527 257.607 139.86C257.86 140.18 258.16 140.433 258.507 140.62C258.853 140.793 259.233 140.88 259.647 140.88Z" fill="#69707D"/>
<path d="M270.486 142.24C269.886 142.24 269.313 142.127 268.766 141.9C268.233 141.673 267.76 141.347 267.346 140.92C266.933 140.48 266.6 139.947 266.346 139.32C266.106 138.68 265.986 137.96 265.986 137.16C265.986 136.347 266.106 135.627 266.346 135C266.6 134.36 266.933 133.82 267.346 133.38C267.76 132.94 268.233 132.607 268.766 132.38C269.313 132.153 269.886 132.04 270.486 132.04C271.086 132.04 271.653 132.153 272.186 132.38C272.733 132.607 273.213 132.94 273.626 133.38C274.04 133.82 274.366 134.36 274.606 135C274.86 135.627 274.986 136.347 274.986 137.16C274.986 137.96 274.86 138.68 274.606 139.32C274.366 139.947 274.04 140.48 273.626 140.92C273.213 141.347 272.733 141.673 272.186 141.9C271.653 142.127 271.086 142.24 270.486 142.24ZM270.486 140.88C270.9 140.88 271.28 140.793 271.626 140.62C271.973 140.433 272.266 140.18 272.506 139.86C272.76 139.527 272.953 139.133 273.086 138.68C273.22 138.227 273.286 137.72 273.286 137.16C273.286 136.6 273.22 136.093 273.086 135.64C272.953 135.173 272.76 134.773 272.506 134.44C272.266 134.107 271.973 133.853 271.626 133.68C271.28 133.493 270.9 133.4 270.486 133.4C270.073 133.4 269.693 133.493 269.346 133.68C269 133.853 268.7 134.107 268.446 134.44C268.206 134.773 268.02 135.173 267.886 135.64C267.753 136.093 267.686 136.6 267.686 137.16C267.686 137.72 267.753 138.227 267.886 138.68C268.02 139.133 268.206 139.527 268.446 139.86C268.7 140.18 269 140.433 269.346 140.62C269.693 140.793 270.073 140.88 270.486 140.88Z" fill="#69707D"/>
<path d="M280.866 142.24C279.64 142.24 278.66 141.8 277.926 140.92C277.206 140.04 276.846 138.787 276.846 137.16C276.846 136.373 276.96 135.667 277.186 135.04C277.426 134.4 277.74 133.86 278.126 133.42C278.513 132.98 278.96 132.64 279.466 132.4C279.973 132.16 280.506 132.04 281.066 132.04C281.626 132.04 282.113 132.14 282.526 132.34C282.94 132.54 283.36 132.813 283.786 133.16L283.706 131.5V127.76H285.366V142H284.006L283.866 140.86H283.806C283.42 141.233 282.973 141.56 282.466 141.84C281.973 142.107 281.44 142.24 280.866 142.24ZM281.226 140.86C281.68 140.86 282.106 140.753 282.506 140.54C282.906 140.313 283.306 139.973 283.706 139.52V134.44C283.293 134.067 282.893 133.807 282.506 133.66C282.133 133.5 281.746 133.42 281.346 133.42C280.96 133.42 280.593 133.513 280.246 133.7C279.913 133.873 279.62 134.127 279.366 134.46C279.113 134.78 278.913 135.167 278.766 135.62C278.62 136.073 278.546 136.58 278.546 137.14C278.546 138.313 278.78 139.227 279.246 139.88C279.713 140.533 280.373 140.86 281.226 140.86Z" fill="#69707D"/>
<path d="M294.884 142.24C294.071 142.24 293.391 142 292.844 141.52C292.311 141.04 292.044 140.36 292.044 139.48C292.044 138.413 292.517 137.6 293.464 137.04C294.411 136.467 295.924 136.067 298.004 135.84C298.004 135.533 297.971 135.233 297.904 134.94C297.851 134.647 297.751 134.387 297.604 134.16C297.457 133.933 297.251 133.753 296.984 133.62C296.731 133.473 296.404 133.4 296.004 133.4C295.444 133.4 294.917 133.507 294.424 133.72C293.931 133.933 293.491 134.173 293.104 134.44L292.464 133.3C292.917 133.007 293.471 132.727 294.124 132.46C294.777 132.18 295.497 132.04 296.284 132.04C297.471 132.04 298.331 132.407 298.864 133.14C299.397 133.86 299.664 134.827 299.664 136.04V142H298.304L298.164 140.84H298.104C297.637 141.227 297.137 141.56 296.604 141.84C296.071 142.107 295.497 142.24 294.884 142.24ZM295.364 140.92C295.831 140.92 296.271 140.813 296.684 140.6C297.097 140.373 297.537 140.047 298.004 139.62V136.92C297.191 137.027 296.504 137.153 295.944 137.3C295.397 137.447 294.951 137.62 294.604 137.82C294.271 138.02 294.024 138.253 293.864 138.52C293.717 138.773 293.644 139.053 293.644 139.36C293.644 139.92 293.811 140.32 294.144 140.56C294.477 140.8 294.884 140.92 295.364 140.92Z" fill="#69707D"/>
<path d="M305.509 142.24C304.989 142.24 304.549 142.16 304.189 142C303.842 141.84 303.555 141.62 303.329 141.34C303.115 141.06 302.962 140.72 302.869 140.32C302.775 139.92 302.729 139.48 302.729 139V133.62H301.289V132.38L302.809 132.28L303.009 129.56H304.389V132.28H307.009V133.62H304.389V139.02C304.389 139.62 304.495 140.087 304.709 140.42C304.935 140.74 305.329 140.9 305.889 140.9C306.062 140.9 306.249 140.873 306.449 140.82C306.649 140.767 306.829 140.707 306.989 140.64L307.309 141.88C307.042 141.973 306.749 142.053 306.429 142.12C306.122 142.2 305.815 142.24 305.509 142.24Z" fill="#69707D"/>
<path d="M197.206 45.192C196.065 45.192 195.169 44.776 194.518 43.944C193.868 43.112 193.542 41.9174 193.542 40.36C193.542 38.824 193.868 37.6507 194.518 36.84C195.169 36.0294 196.065 35.624 197.206 35.624C198.348 35.624 199.244 36.0294 199.894 36.84C200.545 37.6507 200.87 38.824 200.87 40.36C200.87 41.9174 200.545 43.112 199.894 43.944C199.244 44.776 198.348 45.192 197.206 45.192ZM197.206 36.696C196.492 36.696 195.905 36.9947 195.446 37.592C194.998 38.1787 194.774 39.1014 194.774 40.36C194.774 41.0107 194.833 41.576 194.95 42.056C195.068 42.5254 195.233 42.9147 195.446 43.224C195.67 43.5334 195.932 43.7627 196.23 43.912C196.529 44.0614 196.854 44.136 197.206 44.136C197.558 44.136 197.884 44.0614 198.182 43.912C198.481 43.7627 198.737 43.5334 198.95 43.224C199.174 42.9147 199.345 42.5254 199.462 42.056C199.58 41.576 199.638 41.0107 199.638 40.36C199.638 39.1014 199.409 38.1787 198.95 37.592C198.502 36.9947 197.921 36.696 197.206 36.696ZM197.206 41.32C196.94 41.32 196.705 41.2294 196.502 41.048C196.31 40.856 196.214 40.5894 196.214 40.248C196.214 39.9174 196.31 39.6614 196.502 39.48C196.705 39.288 196.94 39.192 197.206 39.192C197.473 39.192 197.702 39.288 197.894 39.48C198.097 39.6614 198.198 39.9174 198.198 40.248C198.198 40.5894 198.097 40.856 197.894 41.048C197.702 41.2294 197.473 41.32 197.206 41.32Z" fill="#315FCC"/>
<path d="M203.584 44.072C203.925 44.392 204.331 44.6747 204.8 44.92C205.28 45.1547 205.851 45.272 206.512 45.272C206.864 45.272 207.189 45.224 207.488 45.128C207.787 45.0427 208.043 44.92 208.256 44.76C208.48 44.5894 208.651 44.3867 208.768 44.152C208.896 43.9174 208.96 43.6507 208.96 43.352C208.96 43.0427 208.891 42.76 208.752 42.504C208.624 42.248 208.411 42.0347 208.112 41.864C207.813 41.6827 207.429 41.544 206.96 41.448C206.491 41.352 205.92 41.304 205.248 41.304V40.28C205.856 40.28 206.368 40.232 206.784 40.136C207.211 40.04 207.557 39.9067 207.824 39.736C208.091 39.5547 208.283 39.3467 208.4 39.112C208.528 38.8774 208.592 38.6214 208.592 38.344C208.592 37.8427 208.4 37.4427 208.016 37.144C207.643 36.8454 207.141 36.696 206.512 36.696C206.032 36.696 205.579 36.792 205.152 36.984C204.725 37.176 204.341 37.4267 204 37.736L203.296 36.904C203.723 36.5307 204.208 36.2267 204.752 35.992C205.296 35.7467 205.899 35.624 206.56 35.624C207.04 35.624 207.483 35.6827 207.888 35.8C208.304 35.9174 208.661 36.088 208.96 36.312C209.269 36.536 209.509 36.8134 209.68 37.144C209.851 37.464 209.936 37.832 209.936 38.248C209.936 38.8774 209.733 39.3947 209.328 39.8C208.923 40.1947 208.4 40.4987 207.76 40.712V40.776C208.101 40.8507 208.421 40.9627 208.72 41.112C209.029 41.2614 209.301 41.448 209.536 41.672C209.771 41.8854 209.952 42.136 210.08 42.424C210.219 42.712 210.288 43.0374 210.288 43.4C210.288 43.8694 210.192 44.2907 210 44.664C209.808 45.0267 209.541 45.336 209.2 45.592C208.869 45.848 208.48 46.04 208.032 46.168C207.584 46.3067 207.104 46.376 206.592 46.376C205.707 46.376 204.965 46.2267 204.368 45.928C203.771 45.64 203.285 45.3094 202.912 44.936L203.584 44.072Z" fill="#315FCC"/>
</svg>
