<svg width="404" height="176" viewBox="0 0 404 176" fill="none" xmlns="http://www.w3.org/2000/svg">
<rect width="404" height="176" rx="2" fill="white"/>
<path d="M136.948 73.7V72.41C136.948 71.15 136.948 69.89 136.948 68.63C136.948 67.35 136.928 66.07 136.888 64.79L134.368 64.52V63.11H149.578L149.788 68.36H147.688L147.058 64.7H140.878C140.838 65.96 140.818 67.22 140.818 68.48C140.818 69.72 140.818 70.89 140.818 71.99H144.868L145.258 69.38H146.788V76.46H145.258L144.838 73.58H140.818C140.818 75.02 140.818 76.36 140.818 77.6C140.818 78.84 140.838 80.07 140.878 81.29L143.608 81.59V83H134.368V81.59L136.888 81.32C136.928 80.06 136.948 78.8 136.948 77.54C136.948 76.28 136.948 75 136.948 73.7Z" fill="#2C323D"/>
<path d="M151.144 62.36L156.604 61.01L157.054 61.28L156.934 65.51V76.7C156.934 77.48 156.934 78.26 156.934 79.04C156.954 79.82 156.974 80.6 156.994 81.38L159.034 81.77V83H151.234V81.77L153.274 81.38C153.294 80.6 153.304 79.82 153.304 79.04C153.324 78.26 153.334 77.48 153.334 76.7V63.83L151.144 63.53V62.36Z" fill="#2C323D"/>
<path d="M168.141 68.21C169.021 68.21 169.821 68.36 170.541 68.66C171.281 68.94 171.901 69.34 172.401 69.86C172.921 70.38 173.321 71.02 173.601 71.78C173.881 72.52 174.021 73.34 174.021 74.24C174.021 74.9 173.961 75.45 173.841 75.89H164.661C164.741 77.63 165.191 78.93 166.011 79.79C166.851 80.63 167.901 81.05 169.161 81.05C170.061 81.05 170.811 80.88 171.411 80.54C172.011 80.18 172.561 79.72 173.061 79.16L173.931 79.94C173.351 81.06 172.551 81.92 171.531 82.52C170.531 83.12 169.331 83.42 167.931 83.42C166.871 83.42 165.911 83.25 165.051 82.91C164.191 82.57 163.441 82.08 162.801 81.44C162.181 80.78 161.701 79.99 161.361 79.07C161.021 78.13 160.851 77.07 160.851 75.89C160.851 74.69 161.051 73.62 161.451 72.68C161.851 71.72 162.391 70.91 163.071 70.25C163.751 69.59 164.531 69.09 165.411 68.75C166.291 68.39 167.201 68.21 168.141 68.21ZM167.931 69.65C167.571 69.65 167.211 69.74 166.851 69.92C166.491 70.08 166.161 70.35 165.861 70.73C165.561 71.11 165.301 71.61 165.081 72.23C164.881 72.83 164.751 73.58 164.691 74.48H168.801C169.521 74.48 170.001 74.33 170.241 74.03C170.481 73.73 170.601 73.31 170.601 72.77C170.601 71.85 170.341 71.1 169.821 70.52C169.301 69.94 168.671 69.65 167.931 69.65Z" fill="#2C323D"/>
<path d="M181.213 81.77V83H175.363V81.77L177.343 81.41L181.333 76.25L177.403 70.19L175.513 69.89V68.63H183.043V69.89L181.483 70.16L184.033 74L186.733 70.22L185.023 69.89V68.63H190.453V69.89L188.713 70.22L184.813 75.23L188.923 81.41L190.903 81.77V83H182.983V81.77L184.783 81.47L182.143 77.48L179.323 81.41L181.213 81.77Z" fill="#2C323D"/>
<path d="M195.946 65.42C195.306 65.42 194.766 65.22 194.326 64.82C193.886 64.42 193.666 63.91 193.666 63.29C193.666 62.65 193.886 62.13 194.326 61.73C194.766 61.33 195.306 61.13 195.946 61.13C196.586 61.13 197.116 61.33 197.536 61.73C197.976 62.13 198.196 62.65 198.196 63.29C198.196 63.91 197.976 64.42 197.536 64.82C197.116 65.22 196.586 65.42 195.946 65.42ZM199.606 83H192.166V81.77L194.146 81.38C194.166 80.64 194.176 79.84 194.176 78.98C194.176 78.1 194.176 77.34 194.176 76.7V75.29C194.176 74.47 194.166 73.79 194.146 73.25C194.126 72.69 194.106 72.11 194.086 71.51L191.956 71.24V70.1L197.356 68.21L197.836 68.51L197.746 72.74V76.7C197.746 77.34 197.746 78.1 197.746 78.98C197.746 79.84 197.756 80.65 197.776 81.41L199.606 81.77V83Z" fill="#2C323D"/>
<path d="M201.275 83V81.77L203.255 81.38C203.275 80.64 203.285 79.84 203.285 78.98C203.285 78.1 203.285 77.34 203.285 76.7V63.8L201.095 63.53V62.36L206.465 61.01L206.915 61.28L206.795 65.51V70.34C208.095 68.92 209.585 68.21 211.265 68.21C212.065 68.21 212.815 68.38 213.515 68.72C214.235 69.04 214.855 69.52 215.375 70.16C215.895 70.78 216.305 71.56 216.605 72.5C216.905 73.42 217.055 74.48 217.055 75.68C217.055 76.86 216.885 77.93 216.545 78.89C216.225 79.85 215.775 80.67 215.195 81.35C214.635 82.01 213.975 82.52 213.215 82.88C212.455 83.24 211.645 83.42 210.785 83.42C209.985 83.42 209.255 83.27 208.595 82.97C207.935 82.65 207.315 82.14 206.735 81.44L206.345 83.36L201.275 83ZM209.705 81.32C210.685 81.32 211.515 80.87 212.195 79.97C212.875 79.07 213.215 77.7 213.215 75.86C213.215 73.98 212.905 72.59 212.285 71.69C211.665 70.79 210.845 70.34 209.825 70.34C209.365 70.34 208.885 70.46 208.385 70.7C207.905 70.94 207.405 71.28 206.885 71.72V80.03C207.805 80.89 208.745 81.32 209.705 81.32Z" fill="#2C323D"/>
<path d="M222.928 65.42C222.288 65.42 221.748 65.22 221.308 64.82C220.868 64.42 220.648 63.91 220.648 63.29C220.648 62.65 220.868 62.13 221.308 61.73C221.748 61.33 222.288 61.13 222.928 61.13C223.568 61.13 224.098 61.33 224.518 61.73C224.958 62.13 225.178 62.65 225.178 63.29C225.178 63.91 224.958 64.42 224.518 64.82C224.098 65.22 223.568 65.42 222.928 65.42ZM226.588 83H219.148V81.77L221.128 81.38C221.148 80.64 221.158 79.84 221.158 78.98C221.158 78.1 221.158 77.34 221.158 76.7V75.29C221.158 74.47 221.148 73.79 221.128 73.25C221.108 72.69 221.088 72.11 221.068 71.51L218.938 71.24V70.1L224.338 68.21L224.818 68.51L224.728 72.74V76.7C224.728 77.34 224.728 78.1 224.728 78.98C224.728 79.84 224.738 80.65 224.758 81.41L226.588 81.77V83Z" fill="#2C323D"/>
<path d="M228.078 62.36L233.538 61.01L233.988 61.28L233.868 65.51V76.7C233.868 77.48 233.868 78.26 233.868 79.04C233.888 79.82 233.908 80.6 233.928 81.38L235.968 81.77V83H228.168V81.77L230.208 81.38C230.228 80.6 230.238 79.82 230.238 79.04C230.258 78.26 230.268 77.48 230.268 76.7V63.83L228.078 63.53V62.36Z" fill="#2C323D"/>
<path d="M241.415 65.42C240.775 65.42 240.235 65.22 239.795 64.82C239.355 64.42 239.135 63.91 239.135 63.29C239.135 62.65 239.355 62.13 239.795 61.73C240.235 61.33 240.775 61.13 241.415 61.13C242.055 61.13 242.585 61.33 243.005 61.73C243.445 62.13 243.665 62.65 243.665 63.29C243.665 63.91 243.445 64.42 243.005 64.82C242.585 65.22 242.055 65.42 241.415 65.42ZM245.075 83H237.635V81.77L239.615 81.38C239.635 80.64 239.645 79.84 239.645 78.98C239.645 78.1 239.645 77.34 239.645 76.7V75.29C239.645 74.47 239.635 73.79 239.615 73.25C239.595 72.69 239.575 72.11 239.555 71.51L237.425 71.24V70.1L242.825 68.21L243.305 68.51L243.215 72.74V76.7C243.215 77.34 243.215 78.1 243.215 78.98C243.215 79.84 243.225 80.65 243.245 81.41L245.075 81.77V83Z" fill="#2C323D"/>
<path d="M252.024 79.31C252.024 80.05 252.164 80.59 252.444 80.93C252.744 81.27 253.134 81.44 253.614 81.44C253.914 81.44 254.204 81.38 254.484 81.26C254.784 81.14 255.104 80.95 255.444 80.69L256.164 81.44C255.764 82.08 255.234 82.57 254.574 82.91C253.934 83.25 253.144 83.42 252.204 83.42C251.004 83.42 250.064 83.12 249.384 82.52C248.704 81.92 248.364 80.96 248.364 79.64C248.364 79.18 248.364 78.75 248.364 78.35C248.384 77.93 248.394 77.43 248.394 76.85V70.46H246.174V68.9L248.604 68.6L249.744 64.49H252.174L252.054 68.63H255.654V70.46H252.024V79.31Z" fill="#2C323D"/>
<path d="M259.039 90.29C258.259 90.29 257.579 90.09 256.999 89.69C256.439 89.29 256.139 88.79 256.099 88.19C256.219 87.65 256.489 87.24 256.909 86.96C257.349 86.7 257.829 86.57 258.349 86.57C258.749 86.57 259.139 86.65 259.519 86.81C259.919 86.99 260.319 87.33 260.719 87.83L260.899 88.07C261.439 87.55 261.899 86.95 262.279 86.27C262.679 85.61 263.019 84.9 263.299 84.14L263.359 83.96L257.659 70.07L256.129 69.83V68.63H263.989V69.83L261.619 70.16L264.979 79.37L268.249 70.19L265.969 69.83V68.63H271.729V69.83L270.049 70.16L264.919 83.54C264.479 84.68 264.049 85.67 263.629 86.51C263.209 87.37 262.769 88.08 262.309 88.64C261.849 89.2 261.349 89.61 260.809 89.87C260.289 90.15 259.699 90.29 259.039 90.29Z" fill="#2C323D"/>
<path d="M94.9143 117.24C94.0876 117.24 93.3276 117.087 92.6343 116.78C91.9409 116.473 91.3343 116.033 90.8143 115.46C90.3076 114.873 89.9076 114.16 89.6143 113.32C89.3343 112.467 89.1943 111.507 89.1943 110.44C89.1943 109.387 89.3409 108.44 89.6343 107.6C89.9276 106.76 90.3343 106.047 90.8543 105.46C91.3743 104.873 91.9876 104.427 92.6943 104.12C93.4009 103.8 94.1743 103.64 95.0143 103.64C95.8143 103.64 96.5143 103.807 97.1143 104.14C97.7276 104.46 98.2276 104.833 98.6143 105.26L97.7143 106.34C97.3676 105.967 96.9743 105.667 96.5343 105.44C96.0943 105.213 95.5943 105.1 95.0343 105.1C94.4076 105.1 93.8409 105.227 93.3343 105.48C92.8276 105.72 92.3943 106.073 92.0343 106.54C91.6743 106.993 91.3943 107.547 91.1943 108.2C91.0076 108.853 90.9143 109.587 90.9143 110.4C90.9143 111.227 91.0076 111.973 91.1943 112.64C91.3943 113.293 91.6676 113.853 92.0143 114.32C92.3609 114.787 92.7809 115.147 93.2743 115.4C93.7809 115.653 94.3476 115.78 94.9743 115.78C95.6143 115.78 96.1743 115.653 96.6543 115.4C97.1343 115.133 97.5876 114.767 98.0143 114.3L98.9343 115.34C98.4143 115.94 97.8276 116.407 97.1743 116.74C96.5209 117.073 95.7676 117.24 94.9143 117.24Z" fill="#69707D"/>
<path d="M101.22 117V102.76H102.86V106.64L102.8 108.64C103.267 108.2 103.753 107.827 104.26 107.52C104.767 107.2 105.36 107.04 106.04 107.04C107.067 107.04 107.813 107.36 108.28 108C108.76 108.64 109 109.587 109 110.84V117H107.36V111.06C107.36 110.14 107.213 109.48 106.92 109.08C106.627 108.667 106.16 108.46 105.52 108.46C105.013 108.46 104.567 108.587 104.18 108.84C103.793 109.093 103.353 109.467 102.86 109.96V117H101.22Z" fill="#69707D"/>
<path d="M114.339 117.24C113.526 117.24 112.846 117 112.299 116.52C111.766 116.04 111.499 115.36 111.499 114.48C111.499 113.413 111.972 112.6 112.919 112.04C113.866 111.467 115.379 111.067 117.459 110.84C117.459 110.533 117.426 110.233 117.359 109.94C117.306 109.647 117.206 109.387 117.059 109.16C116.912 108.933 116.706 108.753 116.439 108.62C116.186 108.473 115.859 108.4 115.459 108.4C114.899 108.4 114.372 108.507 113.879 108.72C113.386 108.933 112.946 109.173 112.559 109.44L111.919 108.3C112.372 108.007 112.926 107.727 113.579 107.46C114.232 107.18 114.952 107.04 115.739 107.04C116.926 107.04 117.786 107.407 118.319 108.14C118.852 108.86 119.119 109.827 119.119 111.04V117H117.759L117.619 115.84H117.559C117.092 116.227 116.592 116.56 116.059 116.84C115.526 117.107 114.952 117.24 114.339 117.24ZM114.819 115.92C115.286 115.92 115.726 115.813 116.139 115.6C116.552 115.373 116.992 115.047 117.459 114.62V111.92C116.646 112.027 115.959 112.153 115.399 112.3C114.852 112.447 114.406 112.62 114.059 112.82C113.726 113.02 113.479 113.253 113.319 113.52C113.172 113.773 113.099 114.053 113.099 114.36C113.099 114.92 113.266 115.32 113.599 115.56C113.932 115.8 114.339 115.92 114.819 115.92Z" fill="#69707D"/>
<path d="M122.177 117V107.28H123.537L123.677 108.68H123.737C124.204 108.213 124.69 107.827 125.197 107.52C125.717 107.2 126.317 107.04 126.997 107.04C128.024 107.04 128.77 107.36 129.237 108C129.717 108.64 129.957 109.587 129.957 110.84V117H128.317V111.06C128.317 110.14 128.17 109.48 127.877 109.08C127.584 108.667 127.117 108.46 126.477 108.46C125.97 108.46 125.524 108.587 125.137 108.84C124.75 109.093 124.31 109.467 123.817 109.96V117H122.177Z" fill="#69707D"/>
<path d="M136.395 121.48C135.795 121.48 135.248 121.42 134.755 121.3C134.261 121.193 133.835 121.027 133.475 120.8C133.128 120.573 132.855 120.3 132.655 119.98C132.468 119.66 132.375 119.287 132.375 118.86C132.375 118.447 132.501 118.053 132.755 117.68C133.008 117.307 133.355 116.967 133.795 116.66V116.58C133.555 116.433 133.348 116.233 133.175 115.98C133.015 115.713 132.935 115.387 132.935 115C132.935 114.587 133.048 114.227 133.275 113.92C133.501 113.613 133.741 113.373 133.995 113.2V113.12C133.675 112.853 133.381 112.5 133.115 112.06C132.861 111.607 132.735 111.087 132.735 110.5C132.735 109.967 132.828 109.487 133.015 109.06C133.215 108.633 133.481 108.273 133.815 107.98C134.148 107.673 134.535 107.44 134.975 107.28C135.428 107.12 135.901 107.04 136.395 107.04C136.661 107.04 136.908 107.067 137.135 107.12C137.375 107.16 137.588 107.213 137.775 107.28H141.155V108.54H139.155C139.381 108.767 139.568 109.053 139.715 109.4C139.875 109.747 139.955 110.127 139.955 110.54C139.955 111.06 139.861 111.533 139.675 111.96C139.488 112.373 139.235 112.727 138.915 113.02C138.595 113.3 138.215 113.52 137.775 113.68C137.348 113.84 136.888 113.92 136.395 113.92C136.155 113.92 135.908 113.893 135.655 113.84C135.401 113.773 135.161 113.687 134.935 113.58C134.761 113.727 134.615 113.893 134.495 114.08C134.375 114.253 134.315 114.473 134.315 114.74C134.315 115.047 134.435 115.3 134.675 115.5C134.915 115.7 135.368 115.8 136.035 115.8H137.915C139.048 115.8 139.895 115.987 140.455 116.36C141.028 116.72 141.315 117.307 141.315 118.12C141.315 118.573 141.201 119 140.975 119.4C140.748 119.813 140.421 120.173 139.995 120.48C139.568 120.787 139.048 121.027 138.435 121.2C137.835 121.387 137.155 121.48 136.395 121.48ZM136.395 112.82C136.675 112.82 136.935 112.767 137.175 112.66C137.428 112.553 137.648 112.4 137.835 112.2C138.035 112 138.188 111.76 138.295 111.48C138.401 111.187 138.455 110.86 138.455 110.5C138.455 109.78 138.255 109.227 137.855 108.84C137.455 108.44 136.968 108.24 136.395 108.24C135.821 108.24 135.335 108.44 134.935 108.84C134.535 109.227 134.335 109.78 134.335 110.5C134.335 110.86 134.388 111.187 134.495 111.48C134.601 111.76 134.748 112 134.935 112.2C135.135 112.4 135.355 112.553 135.595 112.66C135.848 112.767 136.115 112.82 136.395 112.82ZM136.635 120.34C137.101 120.34 137.521 120.28 137.895 120.16C138.281 120.053 138.608 119.907 138.875 119.72C139.141 119.547 139.348 119.34 139.495 119.1C139.641 118.86 139.715 118.613 139.715 118.36C139.715 117.907 139.548 117.593 139.215 117.42C138.881 117.247 138.395 117.16 137.755 117.16H136.075C135.888 117.16 135.681 117.147 135.455 117.12C135.241 117.107 135.028 117.067 134.815 117C134.468 117.253 134.215 117.52 134.055 117.8C133.895 118.08 133.815 118.36 133.815 118.64C133.815 119.16 134.061 119.573 134.555 119.88C135.061 120.187 135.755 120.34 136.635 120.34Z" fill="#69707D"/>
<path d="M146.859 117.24C146.206 117.24 145.593 117.127 145.019 116.9C144.459 116.66 143.966 116.327 143.539 115.9C143.126 115.46 142.799 114.927 142.559 114.3C142.319 113.673 142.199 112.96 142.199 112.16C142.199 111.36 142.319 110.647 142.559 110.02C142.813 109.38 143.139 108.84 143.539 108.4C143.953 107.96 144.419 107.627 144.939 107.4C145.459 107.16 145.999 107.04 146.559 107.04C147.173 107.04 147.719 107.147 148.199 107.36C148.693 107.573 149.099 107.88 149.419 108.28C149.753 108.68 150.006 109.16 150.179 109.72C150.353 110.28 150.439 110.907 150.439 111.6C150.439 111.773 150.433 111.947 150.419 112.12C150.419 112.28 150.406 112.42 150.379 112.54H143.819C143.886 113.58 144.206 114.407 144.779 115.02C145.366 115.62 146.126 115.92 147.059 115.92C147.526 115.92 147.953 115.853 148.339 115.72C148.739 115.573 149.119 115.387 149.479 115.16L150.059 116.24C149.633 116.507 149.159 116.74 148.639 116.94C148.119 117.14 147.526 117.24 146.859 117.24ZM143.799 111.36H148.999C148.999 110.373 148.786 109.627 148.359 109.12C147.946 108.6 147.359 108.34 146.599 108.34C146.253 108.34 145.919 108.407 145.599 108.54C145.293 108.673 145.013 108.873 144.759 109.14C144.506 109.393 144.293 109.707 144.119 110.08C143.959 110.453 143.853 110.88 143.799 111.36Z" fill="#69707D"/>
<path d="M156.845 117V107.28H158.485V117H156.845ZM157.685 105.28C157.365 105.28 157.092 105.18 156.865 104.98C156.652 104.78 156.545 104.527 156.545 104.22C156.545 103.9 156.652 103.647 156.865 103.46C157.092 103.26 157.365 103.16 157.685 103.16C158.005 103.16 158.272 103.26 158.485 103.46C158.712 103.647 158.825 103.9 158.825 104.22C158.825 104.527 158.712 104.78 158.485 104.98C158.272 105.18 158.005 105.28 157.685 105.28Z" fill="#69707D"/>
<path d="M164.307 117.24C163.614 117.24 162.954 117.113 162.327 116.86C161.7 116.607 161.154 116.287 160.687 115.9L161.507 114.8C161.934 115.147 162.367 115.427 162.807 115.64C163.26 115.853 163.78 115.96 164.367 115.96C165.007 115.96 165.487 115.813 165.807 115.52C166.127 115.227 166.287 114.867 166.287 114.44C166.287 114.187 166.22 113.967 166.087 113.78C165.954 113.593 165.78 113.433 165.567 113.3C165.367 113.153 165.134 113.027 164.867 112.92C164.6 112.813 164.334 112.707 164.067 112.6C163.72 112.48 163.374 112.347 163.027 112.2C162.68 112.04 162.367 111.853 162.087 111.64C161.82 111.413 161.6 111.153 161.427 110.86C161.254 110.567 161.167 110.213 161.167 109.8C161.167 109.413 161.24 109.053 161.387 108.72C161.547 108.373 161.767 108.08 162.047 107.84C162.34 107.587 162.694 107.393 163.107 107.26C163.52 107.113 163.987 107.04 164.507 107.04C165.12 107.04 165.68 107.147 166.187 107.36C166.707 107.573 167.154 107.833 167.527 108.14L166.747 109.18C166.414 108.927 166.067 108.72 165.707 108.56C165.347 108.4 164.954 108.32 164.527 108.32C163.914 108.32 163.46 108.46 163.167 108.74C162.887 109.02 162.747 109.347 162.747 109.72C162.747 109.947 162.807 110.147 162.927 110.32C163.047 110.48 163.207 110.627 163.407 110.76C163.607 110.88 163.834 110.993 164.087 111.1C164.354 111.193 164.627 111.293 164.907 111.4C165.254 111.533 165.6 111.673 165.947 111.82C166.307 111.967 166.627 112.153 166.907 112.38C167.187 112.593 167.414 112.86 167.587 113.18C167.774 113.5 167.867 113.887 167.867 114.34C167.867 114.74 167.787 115.113 167.627 115.46C167.48 115.807 167.254 116.113 166.947 116.38C166.654 116.647 166.28 116.853 165.827 117C165.387 117.16 164.88 117.24 164.307 117.24Z" fill="#69707D"/>
<path d="M177.21 117.24C176.69 117.24 176.25 117.16 175.89 117C175.543 116.84 175.256 116.62 175.03 116.34C174.816 116.06 174.663 115.72 174.57 115.32C174.476 114.92 174.43 114.48 174.43 114V108.62H172.99V107.38L174.51 107.28L174.71 104.56H176.09V107.28H178.71V108.62H176.09V114.02C176.09 114.62 176.196 115.087 176.41 115.42C176.636 115.74 177.03 115.9 177.59 115.9C177.763 115.9 177.95 115.873 178.15 115.82C178.35 115.767 178.53 115.707 178.69 115.64L179.01 116.88C178.743 116.973 178.45 117.053 178.13 117.12C177.823 117.2 177.516 117.24 177.21 117.24Z" fill="#69707D"/>
<path d="M180.908 117V102.76H182.548V106.64L182.488 108.64C182.954 108.2 183.441 107.827 183.948 107.52C184.454 107.2 185.048 107.04 185.728 107.04C186.754 107.04 187.501 107.36 187.968 108C188.448 108.64 188.688 109.587 188.688 110.84V117H187.048V111.06C187.048 110.14 186.901 109.48 186.608 109.08C186.314 108.667 185.848 108.46 185.208 108.46C184.701 108.46 184.254 108.587 183.868 108.84C183.481 109.093 183.041 109.467 182.548 109.96V117H180.908Z" fill="#69707D"/>
<path d="M195.726 117.24C195.073 117.24 194.46 117.127 193.886 116.9C193.326 116.66 192.833 116.327 192.406 115.9C191.993 115.46 191.666 114.927 191.426 114.3C191.186 113.673 191.066 112.96 191.066 112.16C191.066 111.36 191.186 110.647 191.426 110.02C191.68 109.38 192.006 108.84 192.406 108.4C192.82 107.96 193.286 107.627 193.806 107.4C194.326 107.16 194.866 107.04 195.426 107.04C196.04 107.04 196.586 107.147 197.066 107.36C197.56 107.573 197.966 107.88 198.286 108.28C198.62 108.68 198.873 109.16 199.046 109.72C199.22 110.28 199.306 110.907 199.306 111.6C199.306 111.773 199.3 111.947 199.286 112.12C199.286 112.28 199.273 112.42 199.246 112.54H192.686C192.753 113.58 193.073 114.407 193.646 115.02C194.233 115.62 194.993 115.92 195.926 115.92C196.393 115.92 196.82 115.853 197.206 115.72C197.606 115.573 197.986 115.387 198.346 115.16L198.926 116.24C198.5 116.507 198.026 116.74 197.506 116.94C196.986 117.14 196.393 117.24 195.726 117.24ZM192.666 111.36H197.866C197.866 110.373 197.653 109.627 197.226 109.12C196.813 108.6 196.226 108.34 195.466 108.34C195.12 108.34 194.786 108.407 194.466 108.54C194.16 108.673 193.88 108.873 193.626 109.14C193.373 109.393 193.16 109.707 192.986 110.08C192.826 110.453 192.72 110.88 192.666 111.36Z" fill="#69707D"/>
<path d="M209.492 117.24C208.892 117.24 208.319 117.127 207.772 116.9C207.239 116.673 206.766 116.347 206.352 115.92C205.939 115.48 205.606 114.947 205.352 114.32C205.112 113.68 204.992 112.96 204.992 112.16C204.992 111.347 205.112 110.627 205.352 110C205.606 109.36 205.939 108.82 206.352 108.38C206.766 107.94 207.239 107.607 207.772 107.38C208.319 107.153 208.892 107.04 209.492 107.04C210.092 107.04 210.659 107.153 211.192 107.38C211.739 107.607 212.219 107.94 212.632 108.38C213.046 108.82 213.372 109.36 213.612 110C213.866 110.627 213.992 111.347 213.992 112.16C213.992 112.96 213.866 113.68 213.612 114.32C213.372 114.947 213.046 115.48 212.632 115.92C212.219 116.347 211.739 116.673 211.192 116.9C210.659 117.127 210.092 117.24 209.492 117.24ZM209.492 115.88C209.906 115.88 210.286 115.793 210.632 115.62C210.979 115.433 211.272 115.18 211.512 114.86C211.766 114.527 211.959 114.133 212.092 113.68C212.226 113.227 212.292 112.72 212.292 112.16C212.292 111.6 212.226 111.093 212.092 110.64C211.959 110.173 211.766 109.773 211.512 109.44C211.272 109.107 210.979 108.853 210.632 108.68C210.286 108.493 209.906 108.4 209.492 108.4C209.079 108.4 208.699 108.493 208.352 108.68C208.006 108.853 207.706 109.107 207.452 109.44C207.212 109.773 207.026 110.173 206.892 110.64C206.759 111.093 206.692 111.6 206.692 112.16C206.692 112.72 206.759 113.227 206.892 113.68C207.026 114.133 207.212 114.527 207.452 114.86C207.706 115.18 208.006 115.433 208.352 115.62C208.699 115.793 209.079 115.88 209.492 115.88Z" fill="#69707D"/>
<path d="M216.552 117V107.28H217.912L218.052 108.68H218.112C218.579 108.213 219.065 107.827 219.572 107.52C220.092 107.2 220.692 107.04 221.372 107.04C222.399 107.04 223.145 107.36 223.612 108C224.092 108.64 224.332 109.587 224.332 110.84V117H222.692V111.06C222.692 110.14 222.545 109.48 222.252 109.08C221.959 108.667 221.492 108.46 220.852 108.46C220.345 108.46 219.899 108.587 219.512 108.84C219.125 109.093 218.685 109.467 218.192 109.96V117H216.552Z" fill="#69707D"/>
<path d="M229.23 117.24C228.603 117.24 228.156 117.053 227.89 116.68C227.623 116.307 227.49 115.76 227.49 115.04V102.76H229.13V115.16C229.13 115.427 229.176 115.613 229.27 115.72C229.363 115.827 229.47 115.88 229.59 115.88C229.643 115.88 229.69 115.88 229.73 115.88C229.783 115.88 229.856 115.867 229.95 115.84L230.17 117.08C230.063 117.133 229.936 117.173 229.79 117.2C229.643 117.227 229.456 117.24 229.23 117.24Z" fill="#69707D"/>
<path d="M232.747 121.18C232.521 121.18 232.314 121.16 232.127 121.12C231.941 121.093 231.767 121.047 231.607 120.98L231.927 119.68C232.034 119.707 232.154 119.733 232.287 119.76C232.421 119.8 232.547 119.82 232.667 119.82C233.227 119.82 233.681 119.62 234.027 119.22C234.387 118.833 234.667 118.34 234.867 117.74L235.087 117.02L231.187 107.28H232.887L234.867 112.66C235.014 113.087 235.167 113.54 235.327 114.02C235.501 114.487 235.661 114.947 235.807 115.4H235.887C236.034 114.96 236.174 114.5 236.307 114.02C236.441 113.54 236.574 113.087 236.707 112.66L238.447 107.28H240.047L236.387 117.8C236.214 118.28 236.021 118.727 235.807 119.14C235.594 119.553 235.341 119.907 235.047 120.2C234.754 120.507 234.421 120.747 234.047 120.92C233.674 121.093 233.241 121.18 232.747 121.18Z" fill="#69707D"/>
<path d="M249.767 117.24C249.127 117.24 248.527 117.127 247.967 116.9C247.407 116.673 246.92 116.347 246.507 115.92C246.107 115.48 245.787 114.947 245.547 114.32C245.32 113.68 245.207 112.96 245.207 112.16C245.207 111.347 245.334 110.627 245.587 110C245.84 109.36 246.18 108.82 246.607 108.38C247.034 107.94 247.527 107.607 248.087 107.38C248.66 107.153 249.26 107.04 249.887 107.04C250.527 107.04 251.074 107.153 251.527 107.38C251.98 107.607 252.38 107.873 252.727 108.18L251.887 109.26C251.607 109.007 251.307 108.8 250.987 108.64C250.68 108.48 250.334 108.4 249.947 108.4C249.507 108.4 249.1 108.493 248.727 108.68C248.354 108.853 248.034 109.107 247.767 109.44C247.5 109.773 247.287 110.173 247.127 110.64C246.98 111.093 246.907 111.6 246.907 112.16C246.907 112.72 246.98 113.227 247.127 113.68C247.274 114.133 247.474 114.527 247.727 114.86C247.994 115.18 248.314 115.433 248.687 115.62C249.06 115.793 249.467 115.88 249.907 115.88C250.36 115.88 250.774 115.787 251.147 115.6C251.534 115.4 251.88 115.167 252.187 114.9L252.907 116C252.467 116.387 251.98 116.693 251.447 116.92C250.914 117.133 250.354 117.24 249.767 117.24Z" fill="#69707D"/>
<path d="M258.398 117.24C257.798 117.24 257.225 117.127 256.678 116.9C256.145 116.673 255.672 116.347 255.258 115.92C254.845 115.48 254.512 114.947 254.258 114.32C254.018 113.68 253.898 112.96 253.898 112.16C253.898 111.347 254.018 110.627 254.258 110C254.512 109.36 254.845 108.82 255.258 108.38C255.672 107.94 256.145 107.607 256.678 107.38C257.225 107.153 257.798 107.04 258.398 107.04C258.998 107.04 259.565 107.153 260.098 107.38C260.645 107.607 261.125 107.94 261.538 108.38C261.952 108.82 262.278 109.36 262.518 110C262.772 110.627 262.898 111.347 262.898 112.16C262.898 112.96 262.772 113.68 262.518 114.32C262.278 114.947 261.952 115.48 261.538 115.92C261.125 116.347 260.645 116.673 260.098 116.9C259.565 117.127 258.998 117.24 258.398 117.24ZM258.398 115.88C258.812 115.88 259.192 115.793 259.538 115.62C259.885 115.433 260.178 115.18 260.418 114.86C260.672 114.527 260.865 114.133 260.999 113.68C261.132 113.227 261.198 112.72 261.198 112.16C261.198 111.6 261.132 111.093 260.999 110.64C260.865 110.173 260.672 109.773 260.418 109.44C260.178 109.107 259.885 108.853 259.538 108.68C259.192 108.493 258.812 108.4 258.398 108.4C257.985 108.4 257.605 108.493 257.258 108.68C256.912 108.853 256.612 109.107 256.358 109.44C256.118 109.773 255.932 110.173 255.798 110.64C255.665 111.093 255.598 111.6 255.598 112.16C255.598 112.72 255.665 113.227 255.798 113.68C255.932 114.133 256.118 114.527 256.358 114.86C256.612 115.18 256.912 115.433 257.258 115.62C257.605 115.793 257.985 115.88 258.398 115.88Z" fill="#69707D"/>
<path d="M265.458 117V107.28H266.818L266.958 108.68H267.018C267.485 108.213 267.972 107.827 268.478 107.52C268.998 107.2 269.598 107.04 270.278 107.04C271.305 107.04 272.052 107.36 272.518 108C272.998 108.64 273.238 109.587 273.238 110.84V117H271.598V111.06C271.598 110.14 271.452 109.48 271.158 109.08C270.865 108.667 270.398 108.46 269.758 108.46C269.252 108.46 268.805 108.587 268.418 108.84C268.032 109.093 267.592 109.467 267.098 109.96V117H265.458Z" fill="#69707D"/>
<path d="M278.936 117.24C278.242 117.24 277.583 117.113 276.956 116.86C276.329 116.607 275.782 116.287 275.316 115.9L276.136 114.8C276.563 115.147 276.996 115.427 277.436 115.64C277.889 115.853 278.409 115.96 278.996 115.96C279.636 115.96 280.116 115.813 280.436 115.52C280.756 115.227 280.916 114.867 280.916 114.44C280.916 114.187 280.849 113.967 280.716 113.78C280.583 113.593 280.409 113.433 280.196 113.3C279.996 113.153 279.763 113.027 279.496 112.92C279.229 112.813 278.962 112.707 278.696 112.6C278.349 112.48 278.002 112.347 277.656 112.2C277.309 112.04 276.996 111.853 276.716 111.64C276.449 111.413 276.229 111.153 276.056 110.86C275.883 110.567 275.796 110.213 275.796 109.8C275.796 109.413 275.869 109.053 276.016 108.72C276.176 108.373 276.396 108.08 276.676 107.84C276.969 107.587 277.323 107.393 277.736 107.26C278.149 107.113 278.616 107.04 279.136 107.04C279.749 107.04 280.309 107.147 280.816 107.36C281.336 107.573 281.782 107.833 282.156 108.14L281.376 109.18C281.042 108.927 280.696 108.72 280.336 108.56C279.976 108.4 279.582 108.32 279.156 108.32C278.542 108.32 278.089 108.46 277.796 108.74C277.516 109.02 277.376 109.347 277.376 109.72C277.376 109.947 277.436 110.147 277.556 110.32C277.676 110.48 277.836 110.627 278.036 110.76C278.236 110.88 278.463 110.993 278.716 111.1C278.983 111.193 279.256 111.293 279.536 111.4C279.882 111.533 280.229 111.673 280.576 111.82C280.936 111.967 281.256 112.153 281.536 112.38C281.816 112.593 282.043 112.86 282.216 113.18C282.403 113.5 282.496 113.887 282.496 114.34C282.496 114.74 282.416 115.113 282.256 115.46C282.109 115.807 281.883 116.113 281.576 116.38C281.283 116.647 280.909 116.853 280.456 117C280.016 117.16 279.509 117.24 278.936 117.24Z" fill="#69707D"/>
<path d="M287.444 117.24C286.924 117.24 286.484 117.16 286.124 117C285.777 116.84 285.491 116.62 285.264 116.34C285.051 116.06 284.897 115.72 284.804 115.32C284.711 114.92 284.664 114.48 284.664 114V108.62H283.224V107.38L284.744 107.28L284.944 104.56H286.324V107.28H288.944V108.62H286.324V114.02C286.324 114.62 286.431 115.087 286.644 115.42C286.871 115.74 287.264 115.9 287.824 115.9C287.997 115.9 288.184 115.873 288.384 115.82C288.584 115.767 288.764 115.707 288.924 115.64L289.244 116.88C288.977 116.973 288.684 117.053 288.364 117.12C288.057 117.2 287.751 117.24 287.444 117.24Z" fill="#69707D"/>
<path d="M292.952 117.24C292.139 117.24 291.459 117 290.912 116.52C290.379 116.04 290.112 115.36 290.112 114.48C290.112 113.413 290.586 112.6 291.532 112.04C292.479 111.467 293.992 111.067 296.072 110.84C296.072 110.533 296.039 110.233 295.972 109.94C295.919 109.647 295.819 109.387 295.672 109.16C295.526 108.933 295.319 108.753 295.052 108.62C294.799 108.473 294.472 108.4 294.072 108.4C293.512 108.4 292.986 108.507 292.492 108.72C291.999 108.933 291.559 109.173 291.172 109.44L290.532 108.3C290.986 108.007 291.539 107.727 292.192 107.46C292.846 107.18 293.566 107.04 294.352 107.04C295.539 107.04 296.399 107.407 296.932 108.14C297.466 108.86 297.732 109.827 297.732 111.04V117H296.372L296.232 115.84H296.172C295.706 116.227 295.206 116.56 294.672 116.84C294.139 117.107 293.566 117.24 292.952 117.24ZM293.432 115.92C293.899 115.92 294.339 115.813 294.752 115.6C295.166 115.373 295.606 115.047 296.072 114.62V111.92C295.259 112.027 294.572 112.153 294.012 112.3C293.466 112.447 293.019 112.62 292.672 112.82C292.339 113.02 292.092 113.253 291.932 113.52C291.786 113.773 291.712 114.053 291.712 114.36C291.712 114.92 291.879 115.32 292.212 115.56C292.546 115.8 292.952 115.92 293.432 115.92Z" fill="#69707D"/>
<path d="M300.79 117V107.28H302.15L302.29 108.68H302.35C302.817 108.213 303.304 107.827 303.81 107.52C304.33 107.2 304.93 107.04 305.61 107.04C306.637 107.04 307.384 107.36 307.85 108C308.33 108.64 308.57 109.587 308.57 110.84V117H306.93V111.06C306.93 110.14 306.784 109.48 306.49 109.08C306.197 108.667 305.73 108.46 305.09 108.46C304.584 108.46 304.137 108.587 303.75 108.84C303.364 109.093 302.924 109.467 302.43 109.96V117H300.79Z" fill="#69707D"/>
<path d="M314.788 117.24C314.268 117.24 313.828 117.16 313.468 117C313.121 116.84 312.835 116.62 312.608 116.34C312.395 116.06 312.241 115.72 312.148 115.32C312.055 114.92 312.008 114.48 312.008 114V108.62H310.568V107.38L312.088 107.28L312.288 104.56H313.668V107.28H316.288V108.62H313.668V114.02C313.668 114.62 313.775 115.087 313.988 115.42C314.215 115.74 314.608 115.9 315.168 115.9C315.341 115.9 315.528 115.873 315.728 115.82C315.928 115.767 316.108 115.707 316.268 115.64L316.588 116.88C316.321 116.973 316.028 117.053 315.708 117.12C315.401 117.2 315.095 117.24 314.788 117.24Z" fill="#69707D"/>
<path d="M197.206 45.192C196.065 45.192 195.169 44.776 194.518 43.944C193.868 43.112 193.542 41.9174 193.542 40.36C193.542 38.824 193.868 37.6507 194.518 36.84C195.169 36.0294 196.065 35.624 197.206 35.624C198.348 35.624 199.244 36.0294 199.894 36.84C200.545 37.6507 200.87 38.824 200.87 40.36C200.87 41.9174 200.545 43.112 199.894 43.944C199.244 44.776 198.348 45.192 197.206 45.192ZM197.206 36.696C196.492 36.696 195.905 36.9947 195.446 37.592C194.998 38.1787 194.774 39.1014 194.774 40.36C194.774 41.0107 194.833 41.576 194.95 42.056C195.068 42.5254 195.233 42.9147 195.446 43.224C195.67 43.5334 195.932 43.7627 196.23 43.912C196.529 44.0614 196.854 44.136 197.206 44.136C197.558 44.136 197.884 44.0614 198.182 43.912C198.481 43.7627 198.737 43.5334 198.95 43.224C199.174 42.9147 199.345 42.5254 199.462 42.056C199.58 41.576 199.638 41.0107 199.638 40.36C199.638 39.1014 199.409 38.1787 198.95 37.592C198.502 36.9947 197.921 36.696 197.206 36.696ZM197.206 41.32C196.94 41.32 196.705 41.2294 196.502 41.048C196.31 40.856 196.214 40.5894 196.214 40.248C196.214 39.9174 196.31 39.6614 196.502 39.48C196.705 39.288 196.94 39.192 197.206 39.192C197.473 39.192 197.702 39.288 197.894 39.48C198.097 39.6614 198.198 39.9174 198.198 40.248C198.198 40.5894 198.097 40.856 197.894 41.048C197.702 41.2294 197.473 41.32 197.206 41.32Z" fill="#315FCC"/>
<path d="M207.888 42.424V38.984C207.899 38.7067 207.909 38.408 207.92 38.088C207.931 37.7574 207.947 37.4534 207.968 37.176H207.888C207.728 37.4427 207.557 37.7094 207.376 37.976C207.205 38.232 207.035 38.4827 206.864 38.728L204.064 42.424H207.888ZM210.72 43.496H209.136V46.184H207.888V43.496H202.624V42.616L207.728 35.816H209.136V42.424H210.72V43.496Z" fill="#315FCC"/>
</svg>
