<svg width="404" height="176" viewBox="0 0 404 176" fill="none" xmlns="http://www.w3.org/2000/svg">
<rect width="404" height="176" rx="2" fill="white"/>
<path d="M131.819 73.7V72.41C131.819 71.15 131.819 69.89 131.819 68.63C131.819 67.35 131.799 66.07 131.759 64.79L129.239 64.52V63.11H137.339C138.739 63.11 139.949 63.26 140.969 63.56C142.009 63.84 142.859 64.24 143.519 64.76C144.199 65.28 144.699 65.91 145.019 66.65C145.339 67.37 145.499 68.17 145.499 69.05C145.499 69.89 145.349 70.69 145.049 71.45C144.749 72.21 144.259 72.87 143.579 73.43C142.899 73.99 142.009 74.44 140.909 74.78C139.829 75.1 138.499 75.26 136.919 75.26H135.689C135.689 76.22 135.689 77.2 135.689 78.2C135.689 79.2 135.709 80.23 135.749 81.29L138.479 81.59V83H129.239V81.59L131.759 81.32C131.799 80.06 131.819 78.8 131.819 77.54C131.819 76.28 131.819 75 131.819 73.7ZM135.689 72.41V73.73H137.159C138.739 73.73 139.889 73.3 140.609 72.44C141.329 71.58 141.689 70.45 141.689 69.05C141.689 67.61 141.299 66.52 140.519 65.78C139.759 65.02 138.599 64.64 137.039 64.64H135.749C135.709 65.92 135.689 67.21 135.689 68.51C135.689 69.79 135.689 71.09 135.689 72.41Z" fill="#2C323D"/>
<path d="M157.373 68.21C158.693 68.21 159.703 68.64 160.403 69.5C161.123 70.34 161.483 71.7 161.483 73.58V76.7C161.483 77.38 161.483 78.15 161.483 79.01C161.483 79.87 161.493 80.67 161.513 81.41L163.343 81.77V83H155.933V81.77L157.853 81.38C157.873 80.64 157.883 79.85 157.883 79.01C157.883 78.15 157.883 77.38 157.883 76.7V73.85C157.883 72.67 157.723 71.86 157.403 71.42C157.103 70.96 156.573 70.73 155.813 70.73C154.693 70.73 153.533 71.3 152.333 72.44V76.7C152.333 77.36 152.333 78.12 152.333 78.98C152.333 79.84 152.343 80.65 152.363 81.41L154.133 81.77V83H146.723V81.77L148.703 81.38C148.723 80.64 148.733 79.84 148.733 78.98C148.733 78.1 148.733 77.34 148.733 76.7V63.83L146.543 63.53V62.36L151.913 61.01L152.363 61.28L152.243 65.51V70.88C153.023 69.98 153.843 69.31 154.703 68.87C155.583 68.43 156.473 68.21 157.373 68.21Z" fill="#2C323D"/>
<path d="M166.166 90.29C165.386 90.29 164.706 90.09 164.126 89.69C163.566 89.29 163.266 88.79 163.226 88.19C163.346 87.65 163.616 87.24 164.036 86.96C164.476 86.7 164.956 86.57 165.476 86.57C165.876 86.57 166.266 86.65 166.646 86.81C167.046 86.99 167.446 87.33 167.846 87.83L168.026 88.07C168.566 87.55 169.026 86.95 169.406 86.27C169.806 85.61 170.146 84.9 170.426 84.14L170.486 83.96L164.786 70.07L163.256 69.83V68.63H171.116V69.83L168.746 70.16L172.106 79.37L175.376 70.19L173.096 69.83V68.63H178.856V69.83L177.176 70.16L172.046 83.54C171.606 84.68 171.176 85.67 170.756 86.51C170.336 87.37 169.896 88.08 169.436 88.64C168.976 89.2 168.476 89.61 167.936 89.87C167.416 90.15 166.826 90.29 166.166 90.29Z" fill="#2C323D"/>
<path d="M184.579 83.42C183.659 83.42 182.809 83.31 182.029 83.09C181.269 82.89 180.509 82.58 179.749 82.16L179.719 78.68H181.729L182.269 81.47C182.989 81.77 183.769 81.92 184.609 81.92C185.629 81.92 186.389 81.74 186.889 81.38C187.389 81.02 187.639 80.52 187.639 79.88C187.639 79.32 187.439 78.87 187.039 78.53C186.639 78.17 185.959 77.83 184.999 77.51L183.499 77C182.359 76.64 181.469 76.12 180.829 75.44C180.189 74.74 179.869 73.85 179.869 72.77C179.869 72.15 179.989 71.57 180.229 71.03C180.489 70.47 180.859 69.98 181.339 69.56C181.819 69.14 182.409 68.81 183.109 68.57C183.829 68.33 184.649 68.21 185.569 68.21C186.429 68.21 187.209 68.32 187.909 68.54C188.629 68.74 189.339 69.04 190.039 69.44L189.889 72.59H187.909L187.369 70.07C187.089 69.95 186.799 69.86 186.499 69.8C186.199 69.74 185.869 69.71 185.509 69.71C184.709 69.71 184.089 69.88 183.649 70.22C183.209 70.56 182.989 71.02 182.989 71.6C182.989 72.14 183.169 72.58 183.529 72.92C183.909 73.24 184.609 73.57 185.629 73.91L186.829 74.27C188.289 74.77 189.329 75.39 189.949 76.13C190.569 76.87 190.879 77.76 190.879 78.8C190.879 80.16 190.339 81.27 189.259 82.13C188.179 82.99 186.619 83.42 184.579 83.42Z" fill="#2C323D"/>
<path d="M196.589 65.42C195.949 65.42 195.409 65.22 194.969 64.82C194.529 64.42 194.309 63.91 194.309 63.29C194.309 62.65 194.529 62.13 194.969 61.73C195.409 61.33 195.949 61.13 196.589 61.13C197.229 61.13 197.759 61.33 198.179 61.73C198.619 62.13 198.839 62.65 198.839 63.29C198.839 63.91 198.619 64.42 198.179 64.82C197.759 65.22 197.229 65.42 196.589 65.42ZM200.249 83H192.809V81.77L194.789 81.38C194.809 80.64 194.819 79.84 194.819 78.98C194.819 78.1 194.819 77.34 194.819 76.7V75.29C194.819 74.47 194.809 73.79 194.789 73.25C194.769 72.69 194.749 72.11 194.729 71.51L192.599 71.24V70.1L197.999 68.21L198.479 68.51L198.389 72.74V76.7C198.389 77.34 198.389 78.1 198.389 78.98C198.389 79.84 198.399 80.65 198.419 81.41L200.249 81.77V83Z" fill="#2C323D"/>
<path d="M209.928 69.65C209.388 69.65 208.868 69.77 208.368 70.01C207.888 70.23 207.458 70.58 207.078 71.06C206.718 71.54 206.428 72.15 206.208 72.89C205.988 73.61 205.878 74.46 205.878 75.44C205.878 77.26 206.288 78.65 207.108 79.61C207.948 80.57 209.038 81.05 210.378 81.05C211.178 81.05 211.888 80.88 212.508 80.54C213.148 80.18 213.698 79.68 214.158 79.04L215.058 79.7C214.558 80.94 213.808 81.87 212.808 82.49C211.828 83.11 210.628 83.42 209.208 83.42C208.188 83.42 207.238 83.26 206.358 82.94C205.498 82.6 204.748 82.11 204.108 81.47C203.488 80.81 202.998 80.01 202.638 79.07C202.278 78.13 202.098 77.06 202.098 75.86C202.098 74.66 202.298 73.59 202.698 72.65C203.098 71.69 203.638 70.88 204.318 70.22C205.018 69.56 205.818 69.06 206.718 68.72C207.638 68.38 208.598 68.21 209.598 68.21C210.338 68.21 211.018 68.32 211.638 68.54C212.278 68.74 212.838 69.03 213.318 69.41C213.798 69.79 214.188 70.23 214.488 70.73C214.788 71.23 214.978 71.77 215.058 72.35C214.818 73.23 214.248 73.67 213.348 73.67C212.228 73.67 211.578 72.97 211.398 71.57L211.008 69.77C210.688 69.69 210.328 69.65 209.928 69.65Z" fill="#2C323D"/>
<path d="M222.711 81.23C223.111 81.23 223.481 81.15 223.821 80.99C224.181 80.81 224.681 80.49 225.321 80.03V75.26C224.901 75.4 224.501 75.53 224.121 75.65C223.761 75.77 223.451 75.88 223.191 75.98C222.191 76.38 221.501 76.85 221.121 77.39C220.761 77.91 220.581 78.45 220.581 79.01C220.581 79.79 220.781 80.36 221.181 80.72C221.601 81.06 222.111 81.23 222.711 81.23ZM228.381 83.36C227.581 83.36 226.931 83.16 226.431 82.76C225.931 82.36 225.591 81.81 225.411 81.11C225.051 81.49 224.711 81.83 224.391 82.13C224.071 82.41 223.741 82.65 223.401 82.85C223.081 83.03 222.731 83.17 222.351 83.27C221.971 83.37 221.541 83.42 221.061 83.42C220.501 83.42 219.971 83.34 219.471 83.18C218.991 83.02 218.571 82.78 218.211 82.46C217.851 82.14 217.571 81.75 217.371 81.29C217.171 80.81 217.071 80.26 217.071 79.64C217.071 79.16 217.141 78.71 217.281 78.29C217.441 77.87 217.721 77.47 218.121 77.09C218.541 76.69 219.091 76.31 219.771 75.95C220.471 75.59 221.361 75.24 222.441 74.9C222.841 74.76 223.291 74.62 223.791 74.48C224.291 74.34 224.801 74.2 225.321 74.06V73.22C225.321 72.52 225.271 71.94 225.171 71.48C225.091 71.02 224.941 70.66 224.721 70.4C224.521 70.12 224.251 69.93 223.911 69.83C223.571 69.71 223.161 69.65 222.681 69.65C222.501 69.65 222.301 69.66 222.081 69.68C221.881 69.7 221.671 69.73 221.451 69.77L221.091 71.42C220.991 72.14 220.771 72.67 220.431 73.01C220.111 73.35 219.701 73.52 219.201 73.52C218.241 73.52 217.681 73.07 217.521 72.17C217.701 70.97 218.341 70.01 219.441 69.29C220.541 68.57 222.011 68.21 223.851 68.21C225.611 68.21 226.881 68.63 227.661 69.47C228.461 70.29 228.861 71.68 228.861 73.64V80.18C228.861 80.66 228.931 81.01 229.071 81.23C229.231 81.43 229.451 81.53 229.731 81.53C230.111 81.53 230.461 81.31 230.781 80.87L231.471 81.47C231.111 82.17 230.681 82.66 230.181 82.94C229.701 83.22 229.101 83.36 228.381 83.36Z" fill="#2C323D"/>
<path d="M232.207 62.36L237.667 61.01L238.117 61.28L237.997 65.51V76.7C237.997 77.48 237.997 78.26 237.997 79.04C238.017 79.82 238.037 80.6 238.057 81.38L240.097 81.77V83H232.297V81.77L234.337 81.38C234.357 80.6 234.367 79.82 234.367 79.04C234.387 78.26 234.397 77.48 234.397 76.7V63.83L232.207 63.53V62.36Z" fill="#2C323D"/>
<path d="M245.544 65.42C244.904 65.42 244.364 65.22 243.924 64.82C243.484 64.42 243.264 63.91 243.264 63.29C243.264 62.65 243.484 62.13 243.924 61.73C244.364 61.33 244.904 61.13 245.544 61.13C246.184 61.13 246.714 61.33 247.134 61.73C247.574 62.13 247.794 62.65 247.794 63.29C247.794 63.91 247.574 64.42 247.134 64.82C246.714 65.22 246.184 65.42 245.544 65.42ZM249.204 83H241.764V81.77L243.744 81.38C243.764 80.64 243.774 79.84 243.774 78.98C243.774 78.1 243.774 77.34 243.774 76.7V75.29C243.774 74.47 243.764 73.79 243.744 73.25C243.724 72.69 243.704 72.11 243.684 71.51L241.554 71.24V70.1L246.954 68.21L247.434 68.51L247.344 72.74V76.7C247.344 77.34 247.344 78.1 247.344 78.98C247.344 79.84 247.354 80.65 247.374 81.41L249.204 81.77V83Z" fill="#2C323D"/>
<path d="M256.153 79.31C256.153 80.05 256.293 80.59 256.573 80.93C256.873 81.27 257.263 81.44 257.743 81.44C258.043 81.44 258.333 81.38 258.613 81.26C258.913 81.14 259.233 80.95 259.573 80.69L260.293 81.44C259.893 82.08 259.363 82.57 258.703 82.91C258.063 83.25 257.273 83.42 256.333 83.42C255.133 83.42 254.193 83.12 253.513 82.52C252.833 81.92 252.493 80.96 252.493 79.64C252.493 79.18 252.493 78.75 252.493 78.35C252.513 77.93 252.523 77.43 252.523 76.85V70.46H250.303V68.9L252.733 68.6L253.873 64.49H256.303L256.183 68.63H259.783V70.46H256.153V79.31Z" fill="#2C323D"/>
<path d="M263.168 90.29C262.388 90.29 261.708 90.09 261.128 89.69C260.568 89.29 260.268 88.79 260.228 88.19C260.348 87.65 260.618 87.24 261.038 86.96C261.478 86.7 261.958 86.57 262.478 86.57C262.878 86.57 263.268 86.65 263.648 86.81C264.048 86.99 264.448 87.33 264.848 87.83L265.028 88.07C265.568 87.55 266.028 86.95 266.408 86.27C266.808 85.61 267.148 84.9 267.428 84.14L267.488 83.96L261.788 70.07L260.258 69.83V68.63H268.118V69.83L265.748 70.16L269.108 79.37L272.378 70.19L270.098 69.83V68.63H275.858V69.83L274.178 70.16L269.048 83.54C268.608 84.68 268.178 85.67 267.758 86.51C267.338 87.37 266.898 88.08 266.438 88.64C265.978 89.2 265.478 89.61 264.938 89.87C264.418 90.15 263.828 90.29 263.168 90.29Z" fill="#2C323D"/>
<path d="M97.4978 117L94.7178 103.88H96.4378L97.8178 111.02C97.9378 111.74 98.0645 112.447 98.1978 113.14C98.3312 113.833 98.4578 114.54 98.5778 115.26H98.6578C98.8045 114.54 98.9578 113.833 99.1178 113.14C99.2778 112.433 99.4312 111.727 99.5778 111.02L101.398 103.88H102.918L104.738 111.02C104.898 111.713 105.058 112.413 105.218 113.12C105.378 113.827 105.538 114.54 105.698 115.26H105.778C105.898 114.54 106.018 113.833 106.138 113.14C106.258 112.433 106.384 111.727 106.518 111.02L107.898 103.88H109.498L106.778 117H104.778L102.798 109.1C102.678 108.593 102.564 108.1 102.458 107.62C102.364 107.127 102.264 106.627 102.158 106.12H102.078C101.971 106.627 101.858 107.127 101.738 107.62C101.631 108.1 101.524 108.593 101.418 109.1L99.4778 117H97.4978Z" fill="#69707D"/>
<path d="M115.56 117.24C114.907 117.24 114.294 117.127 113.72 116.9C113.16 116.66 112.667 116.327 112.24 115.9C111.827 115.46 111.5 114.927 111.26 114.3C111.02 113.673 110.9 112.96 110.9 112.16C110.9 111.36 111.02 110.647 111.26 110.02C111.514 109.38 111.84 108.84 112.24 108.4C112.654 107.96 113.12 107.627 113.64 107.4C114.16 107.16 114.7 107.04 115.26 107.04C115.874 107.04 116.42 107.147 116.9 107.36C117.394 107.573 117.8 107.88 118.12 108.28C118.454 108.68 118.707 109.16 118.88 109.72C119.054 110.28 119.14 110.907 119.14 111.6C119.14 111.773 119.134 111.947 119.12 112.12C119.12 112.28 119.107 112.42 119.08 112.54H112.52C112.587 113.58 112.907 114.407 113.48 115.02C114.067 115.62 114.827 115.92 115.76 115.92C116.227 115.92 116.654 115.853 117.04 115.72C117.44 115.573 117.82 115.387 118.18 115.16L118.76 116.24C118.334 116.507 117.86 116.74 117.34 116.94C116.82 117.14 116.227 117.24 115.56 117.24ZM112.5 111.36H117.7C117.7 110.373 117.487 109.627 117.06 109.12C116.647 108.6 116.06 108.34 115.3 108.34C114.954 108.34 114.62 108.407 114.3 108.54C113.994 108.673 113.714 108.873 113.46 109.14C113.207 109.393 112.994 109.707 112.82 110.08C112.66 110.453 112.554 110.88 112.5 111.36Z" fill="#69707D"/>
<path d="M127.786 117.24C126.973 117.24 126.293 117 125.746 116.52C125.213 116.04 124.946 115.36 124.946 114.48C124.946 113.413 125.42 112.6 126.366 112.04C127.313 111.467 128.826 111.067 130.906 110.84C130.906 110.533 130.873 110.233 130.806 109.94C130.753 109.647 130.653 109.387 130.506 109.16C130.36 108.933 130.153 108.753 129.886 108.62C129.633 108.473 129.306 108.4 128.906 108.4C128.346 108.4 127.82 108.507 127.326 108.72C126.833 108.933 126.393 109.173 126.006 109.44L125.366 108.3C125.82 108.007 126.373 107.727 127.026 107.46C127.68 107.18 128.4 107.04 129.186 107.04C130.373 107.04 131.233 107.407 131.766 108.14C132.3 108.86 132.566 109.827 132.566 111.04V117H131.206L131.066 115.84H131.006C130.54 116.227 130.04 116.56 129.506 116.84C128.973 117.107 128.4 117.24 127.786 117.24ZM128.266 115.92C128.733 115.92 129.173 115.813 129.586 115.6C130 115.373 130.44 115.047 130.906 114.62V111.92C130.093 112.027 129.406 112.153 128.846 112.3C128.3 112.447 127.853 112.62 127.506 112.82C127.173 113.02 126.926 113.253 126.766 113.52C126.62 113.773 126.546 114.053 126.546 114.36C126.546 114.92 126.713 115.32 127.046 115.56C127.38 115.8 127.786 115.92 128.266 115.92Z" fill="#69707D"/>
<path d="M135.624 117V107.28H136.984L137.124 109.04H137.184C137.518 108.427 137.918 107.94 138.384 107.58C138.864 107.22 139.384 107.04 139.944 107.04C140.331 107.04 140.678 107.107 140.984 107.24L140.664 108.68C140.504 108.627 140.358 108.587 140.224 108.56C140.091 108.533 139.924 108.52 139.724 108.52C139.311 108.52 138.878 108.687 138.424 109.02C137.984 109.353 137.598 109.933 137.264 110.76V117H135.624Z" fill="#69707D"/>
<path d="M146.303 117.24C145.649 117.24 145.036 117.127 144.463 116.9C143.903 116.66 143.409 116.327 142.983 115.9C142.569 115.46 142.243 114.927 142.003 114.3C141.763 113.673 141.643 112.96 141.643 112.16C141.643 111.36 141.763 110.647 142.003 110.02C142.256 109.38 142.583 108.84 142.983 108.4C143.396 107.96 143.863 107.627 144.383 107.4C144.903 107.16 145.443 107.04 146.003 107.04C146.616 107.04 147.163 107.147 147.643 107.36C148.136 107.573 148.543 107.88 148.863 108.28C149.196 108.68 149.449 109.16 149.623 109.72C149.796 110.28 149.883 110.907 149.883 111.6C149.883 111.773 149.876 111.947 149.863 112.12C149.863 112.28 149.849 112.42 149.823 112.54H143.263C143.329 113.58 143.649 114.407 144.223 115.02C144.809 115.62 145.569 115.92 146.503 115.92C146.969 115.92 147.396 115.853 147.783 115.72C148.183 115.573 148.563 115.387 148.923 115.16L149.503 116.24C149.076 116.507 148.603 116.74 148.083 116.94C147.563 117.14 146.969 117.24 146.303 117.24ZM143.243 111.36H148.443C148.443 110.373 148.229 109.627 147.803 109.12C147.389 108.6 146.803 108.34 146.043 108.34C145.696 108.34 145.363 108.407 145.043 108.54C144.736 108.673 144.456 108.873 144.203 109.14C143.949 109.393 143.736 109.707 143.563 110.08C143.403 110.453 143.296 110.88 143.243 111.36Z" fill="#69707D"/>
<path d="M160.128 117.24C159.488 117.24 158.888 117.127 158.328 116.9C157.768 116.673 157.282 116.347 156.868 115.92C156.468 115.48 156.148 114.947 155.908 114.32C155.682 113.68 155.568 112.96 155.568 112.16C155.568 111.347 155.695 110.627 155.948 110C156.202 109.36 156.542 108.82 156.968 108.38C157.395 107.94 157.888 107.607 158.448 107.38C159.022 107.153 159.622 107.04 160.248 107.04C160.888 107.04 161.435 107.153 161.888 107.38C162.342 107.607 162.742 107.873 163.088 108.18L162.248 109.26C161.968 109.007 161.668 108.8 161.348 108.64C161.042 108.48 160.695 108.4 160.308 108.4C159.868 108.4 159.462 108.493 159.088 108.68C158.715 108.853 158.395 109.107 158.128 109.44C157.862 109.773 157.648 110.173 157.488 110.64C157.342 111.093 157.268 111.6 157.268 112.16C157.268 112.72 157.342 113.227 157.488 113.68C157.635 114.133 157.835 114.527 158.088 114.86C158.355 115.18 158.675 115.433 159.048 115.62C159.422 115.793 159.828 115.88 160.268 115.88C160.722 115.88 161.135 115.787 161.508 115.6C161.895 115.4 162.242 115.167 162.548 114.9L163.268 116C162.828 116.387 162.342 116.693 161.808 116.92C161.275 117.133 160.715 117.24 160.128 117.24Z" fill="#69707D"/>
<path d="M165.41 117V107.28H166.77L166.91 109.04H166.97C167.303 108.427 167.703 107.94 168.17 107.58C168.65 107.22 169.17 107.04 169.73 107.04C170.116 107.04 170.463 107.107 170.77 107.24L170.45 108.68C170.29 108.627 170.143 108.587 170.01 108.56C169.876 108.533 169.71 108.52 169.51 108.52C169.096 108.52 168.663 108.687 168.21 109.02C167.77 109.353 167.383 109.933 167.05 110.76V117H165.41Z" fill="#69707D"/>
<path d="M176.088 117.24C175.434 117.24 174.821 117.127 174.248 116.9C173.688 116.66 173.194 116.327 172.768 115.9C172.354 115.46 172.028 114.927 171.788 114.3C171.548 113.673 171.428 112.96 171.428 112.16C171.428 111.36 171.548 110.647 171.788 110.02C172.041 109.38 172.368 108.84 172.768 108.4C173.181 107.96 173.648 107.627 174.168 107.4C174.688 107.16 175.228 107.04 175.788 107.04C176.401 107.04 176.948 107.147 177.428 107.36C177.921 107.573 178.328 107.88 178.648 108.28C178.981 108.68 179.234 109.16 179.408 109.72C179.581 110.28 179.668 110.907 179.668 111.6C179.668 111.773 179.661 111.947 179.648 112.12C179.648 112.28 179.634 112.42 179.608 112.54H173.048C173.114 113.58 173.434 114.407 174.008 115.02C174.594 115.62 175.354 115.92 176.288 115.92C176.754 115.92 177.181 115.853 177.568 115.72C177.968 115.573 178.348 115.387 178.708 115.16L179.288 116.24C178.861 116.507 178.388 116.74 177.868 116.94C177.348 117.14 176.754 117.24 176.088 117.24ZM173.028 111.36H178.228C178.228 110.373 178.014 109.627 177.588 109.12C177.174 108.6 176.588 108.34 175.828 108.34C175.481 108.34 175.148 108.407 174.828 108.54C174.521 108.673 174.241 108.873 173.988 109.14C173.734 109.393 173.521 109.707 173.348 110.08C173.188 110.453 173.081 110.88 173.028 111.36Z" fill="#69707D"/>
<path d="M184.036 117.24C183.223 117.24 182.543 117 181.996 116.52C181.463 116.04 181.196 115.36 181.196 114.48C181.196 113.413 181.67 112.6 182.616 112.04C183.563 111.467 185.076 111.067 187.156 110.84C187.156 110.533 187.123 110.233 187.056 109.94C187.003 109.647 186.903 109.387 186.756 109.16C186.61 108.933 186.403 108.753 186.136 108.62C185.883 108.473 185.556 108.4 185.156 108.4C184.596 108.4 184.07 108.507 183.576 108.72C183.083 108.933 182.643 109.173 182.256 109.44L181.616 108.3C182.07 108.007 182.623 107.727 183.276 107.46C183.93 107.18 184.65 107.04 185.436 107.04C186.623 107.04 187.483 107.407 188.016 108.14C188.55 108.86 188.816 109.827 188.816 111.04V117H187.456L187.316 115.84H187.256C186.79 116.227 186.29 116.56 185.756 116.84C185.223 117.107 184.65 117.24 184.036 117.24ZM184.516 115.92C184.983 115.92 185.423 115.813 185.836 115.6C186.25 115.373 186.69 115.047 187.156 114.62V111.92C186.343 112.027 185.656 112.153 185.096 112.3C184.55 112.447 184.103 112.62 183.756 112.82C183.423 113.02 183.176 113.253 183.016 113.52C182.87 113.773 182.796 114.053 182.796 114.36C182.796 114.92 182.963 115.32 183.296 115.56C183.63 115.8 184.036 115.92 184.516 115.92Z" fill="#69707D"/>
<path d="M194.661 117.24C194.141 117.24 193.701 117.16 193.341 117C192.994 116.84 192.708 116.62 192.481 116.34C192.268 116.06 192.114 115.72 192.021 115.32C191.928 114.92 191.881 114.48 191.881 114V108.62H190.441V107.38L191.961 107.28L192.161 104.56H193.541V107.28H196.161V108.62H193.541V114.02C193.541 114.62 193.648 115.087 193.861 115.42C194.088 115.74 194.481 115.9 195.041 115.9C195.214 115.9 195.401 115.873 195.601 115.82C195.801 115.767 195.981 115.707 196.141 115.64L196.461 116.88C196.194 116.973 195.901 117.053 195.581 117.12C195.274 117.2 194.968 117.24 194.661 117.24Z" fill="#69707D"/>
<path d="M198.359 117V107.28H199.999V117H198.359ZM199.199 105.28C198.879 105.28 198.605 105.18 198.379 104.98C198.165 104.78 198.059 104.527 198.059 104.22C198.059 103.9 198.165 103.647 198.379 103.46C198.605 103.26 198.879 103.16 199.199 103.16C199.519 103.16 199.785 103.26 199.999 103.46C200.225 103.647 200.339 103.9 200.339 104.22C200.339 104.527 200.225 104.78 199.999 104.98C199.785 105.18 199.519 105.28 199.199 105.28Z" fill="#69707D"/>
<path d="M203.281 117V107.28H204.641L204.781 108.68H204.841C205.307 108.213 205.794 107.827 206.301 107.52C206.821 107.2 207.421 107.04 208.101 107.04C209.127 107.04 209.874 107.36 210.341 108C210.821 108.64 211.061 109.587 211.061 110.84V117H209.421V111.06C209.421 110.14 209.274 109.48 208.981 109.08C208.687 108.667 208.221 108.46 207.581 108.46C207.074 108.46 206.627 108.587 206.241 108.84C205.854 109.093 205.414 109.467 204.921 109.96V117H203.281Z" fill="#69707D"/>
<path d="M217.498 121.48C216.898 121.48 216.351 121.42 215.858 121.3C215.365 121.193 214.938 121.027 214.578 120.8C214.231 120.573 213.958 120.3 213.758 119.98C213.571 119.66 213.478 119.287 213.478 118.86C213.478 118.447 213.605 118.053 213.858 117.68C214.111 117.307 214.458 116.967 214.898 116.66V116.58C214.658 116.433 214.451 116.233 214.278 115.98C214.118 115.713 214.038 115.387 214.038 115C214.038 114.587 214.151 114.227 214.378 113.92C214.605 113.613 214.845 113.373 215.098 113.2V113.12C214.778 112.853 214.485 112.5 214.218 112.06C213.965 111.607 213.838 111.087 213.838 110.5C213.838 109.967 213.931 109.487 214.118 109.06C214.318 108.633 214.585 108.273 214.918 107.98C215.251 107.673 215.638 107.44 216.078 107.28C216.531 107.12 217.005 107.04 217.498 107.04C217.765 107.04 218.011 107.067 218.238 107.12C218.478 107.16 218.691 107.213 218.878 107.28H222.258V108.54H220.258C220.485 108.767 220.671 109.053 220.818 109.4C220.978 109.747 221.058 110.127 221.058 110.54C221.058 111.06 220.965 111.533 220.778 111.96C220.591 112.373 220.338 112.727 220.018 113.02C219.698 113.3 219.318 113.52 218.878 113.68C218.451 113.84 217.991 113.92 217.498 113.92C217.258 113.92 217.011 113.893 216.758 113.84C216.505 113.773 216.265 113.687 216.038 113.58C215.865 113.727 215.718 113.893 215.598 114.08C215.478 114.253 215.418 114.473 215.418 114.74C215.418 115.047 215.538 115.3 215.778 115.5C216.018 115.7 216.471 115.8 217.138 115.8H219.018C220.151 115.8 220.998 115.987 221.558 116.36C222.131 116.72 222.418 117.307 222.418 118.12C222.418 118.573 222.305 119 222.078 119.4C221.851 119.813 221.525 120.173 221.098 120.48C220.671 120.787 220.151 121.027 219.538 121.2C218.938 121.387 218.258 121.48 217.498 121.48ZM217.498 112.82C217.778 112.82 218.038 112.767 218.278 112.66C218.531 112.553 218.751 112.4 218.938 112.2C219.138 112 219.291 111.76 219.398 111.48C219.505 111.187 219.558 110.86 219.558 110.5C219.558 109.78 219.358 109.227 218.958 108.84C218.558 108.44 218.071 108.24 217.498 108.24C216.925 108.24 216.438 108.44 216.038 108.84C215.638 109.227 215.438 109.78 215.438 110.5C215.438 110.86 215.491 111.187 215.598 111.48C215.705 111.76 215.851 112 216.038 112.2C216.238 112.4 216.458 112.553 216.698 112.66C216.951 112.767 217.218 112.82 217.498 112.82ZM217.738 120.34C218.205 120.34 218.625 120.28 218.998 120.16C219.385 120.053 219.711 119.907 219.978 119.72C220.245 119.547 220.451 119.34 220.598 119.1C220.745 118.86 220.818 118.613 220.818 118.36C220.818 117.907 220.651 117.593 220.318 117.42C219.985 117.247 219.498 117.16 218.858 117.16H217.178C216.991 117.16 216.785 117.147 216.558 117.12C216.345 117.107 216.131 117.067 215.918 117C215.571 117.253 215.318 117.52 215.158 117.8C214.998 118.08 214.918 118.36 214.918 118.64C214.918 119.16 215.165 119.573 215.658 119.88C216.165 120.187 216.858 120.34 217.738 120.34Z" fill="#69707D"/>
<path d="M231.36 117.24C230.84 117.24 230.4 117.16 230.04 117C229.694 116.84 229.407 116.62 229.18 116.34C228.967 116.06 228.814 115.72 228.72 115.32C228.627 114.92 228.58 114.48 228.58 114V108.62H227.14V107.38L228.66 107.28L228.86 104.56H230.24V107.28H232.86V108.62H230.24V114.02C230.24 114.62 230.347 115.087 230.56 115.42C230.787 115.74 231.18 115.9 231.74 115.9C231.914 115.9 232.1 115.873 232.3 115.82C232.5 115.767 232.68 115.707 232.84 115.64L233.16 116.88C232.894 116.973 232.6 117.053 232.28 117.12C231.973 117.2 231.667 117.24 231.36 117.24Z" fill="#69707D"/>
<path d="M235.058 117V102.76H236.698V106.64L236.638 108.64C237.105 108.2 237.591 107.827 238.098 107.52C238.605 107.2 239.198 107.04 239.878 107.04C240.905 107.04 241.651 107.36 242.118 108C242.598 108.64 242.838 109.587 242.838 110.84V117H241.198V111.06C241.198 110.14 241.051 109.48 240.758 109.08C240.465 108.667 239.998 108.46 239.358 108.46C238.851 108.46 238.405 108.587 238.018 108.84C237.631 109.093 237.191 109.467 236.698 109.96V117H235.058Z" fill="#69707D"/>
<path d="M249.877 117.24C249.224 117.24 248.61 117.127 248.037 116.9C247.477 116.66 246.984 116.327 246.557 115.9C246.144 115.46 245.817 114.927 245.577 114.3C245.337 113.673 245.217 112.96 245.217 112.16C245.217 111.36 245.337 110.647 245.577 110.02C245.83 109.38 246.157 108.84 246.557 108.4C246.97 107.96 247.437 107.627 247.957 107.4C248.477 107.16 249.017 107.04 249.577 107.04C250.19 107.04 250.737 107.147 251.217 107.36C251.71 107.573 252.117 107.88 252.437 108.28C252.77 108.68 253.024 109.16 253.197 109.72C253.37 110.28 253.457 110.907 253.457 111.6C253.457 111.773 253.45 111.947 253.437 112.12C253.437 112.28 253.424 112.42 253.397 112.54H246.837C246.904 113.58 247.224 114.407 247.797 115.02C248.384 115.62 249.144 115.92 250.077 115.92C250.544 115.92 250.97 115.853 251.357 115.72C251.757 115.573 252.137 115.387 252.497 115.16L253.077 116.24C252.65 116.507 252.177 116.74 251.657 116.94C251.137 117.14 250.544 117.24 249.877 117.24ZM246.817 111.36H252.017C252.017 110.373 251.804 109.627 251.377 109.12C250.964 108.6 250.377 108.34 249.617 108.34C249.27 108.34 248.937 108.407 248.617 108.54C248.31 108.673 248.03 108.873 247.777 109.14C247.524 109.393 247.31 109.707 247.137 110.08C246.977 110.453 246.87 110.88 246.817 111.36Z" fill="#69707D"/>
<path d="M263.183 117.24C261.956 117.24 260.976 116.8 260.243 115.92C259.523 115.04 259.163 113.787 259.163 112.16C259.163 111.373 259.276 110.667 259.503 110.04C259.743 109.4 260.056 108.86 260.443 108.42C260.829 107.98 261.276 107.64 261.783 107.4C262.289 107.16 262.823 107.04 263.383 107.04C263.943 107.04 264.429 107.14 264.843 107.34C265.256 107.54 265.676 107.813 266.103 108.16L266.023 106.5V102.76H267.683V117H266.323L266.183 115.86H266.123C265.736 116.233 265.289 116.56 264.783 116.84C264.289 117.107 263.756 117.24 263.183 117.24ZM263.543 115.86C263.996 115.86 264.423 115.753 264.823 115.54C265.223 115.313 265.623 114.973 266.023 114.52V109.44C265.609 109.067 265.209 108.807 264.823 108.66C264.449 108.5 264.063 108.42 263.663 108.42C263.276 108.42 262.909 108.513 262.563 108.7C262.229 108.873 261.936 109.127 261.683 109.46C261.429 109.78 261.229 110.167 261.083 110.62C260.936 111.073 260.863 111.58 260.863 112.14C260.863 113.313 261.096 114.227 261.563 114.88C262.029 115.533 262.689 115.86 263.543 115.86Z" fill="#69707D"/>
<path d="M270.956 117V107.28H272.596V117H270.956ZM271.796 105.28C271.476 105.28 271.203 105.18 270.976 104.98C270.763 104.78 270.656 104.527 270.656 104.22C270.656 103.9 270.763 103.647 270.976 103.46C271.203 103.26 271.476 103.16 271.796 103.16C272.116 103.16 272.383 103.26 272.596 103.46C272.823 103.647 272.936 103.9 272.936 104.22C272.936 104.527 272.823 104.78 272.596 104.98C272.383 105.18 272.116 105.28 271.796 105.28Z" fill="#69707D"/>
<path d="M279.158 121.48C278.558 121.48 278.012 121.42 277.518 121.3C277.025 121.193 276.598 121.027 276.238 120.8C275.892 120.573 275.618 120.3 275.418 119.98C275.232 119.66 275.138 119.287 275.138 118.86C275.138 118.447 275.265 118.053 275.518 117.68C275.772 117.307 276.118 116.967 276.558 116.66V116.58C276.318 116.433 276.112 116.233 275.938 115.98C275.778 115.713 275.698 115.387 275.698 115C275.698 114.587 275.812 114.227 276.038 113.92C276.265 113.613 276.505 113.373 276.758 113.2V113.12C276.438 112.853 276.145 112.5 275.878 112.06C275.625 111.607 275.498 111.087 275.498 110.5C275.498 109.967 275.592 109.487 275.778 109.06C275.978 108.633 276.245 108.273 276.578 107.98C276.912 107.673 277.298 107.44 277.738 107.28C278.192 107.12 278.665 107.04 279.158 107.04C279.425 107.04 279.672 107.067 279.898 107.12C280.138 107.16 280.352 107.213 280.538 107.28H283.918V108.54H281.918C282.145 108.767 282.332 109.053 282.478 109.4C282.638 109.747 282.718 110.127 282.718 110.54C282.718 111.06 282.625 111.533 282.438 111.96C282.252 112.373 281.998 112.727 281.678 113.02C281.358 113.3 280.978 113.52 280.538 113.68C280.112 113.84 279.652 113.92 279.158 113.92C278.918 113.92 278.672 113.893 278.418 113.84C278.165 113.773 277.925 113.687 277.698 113.58C277.525 113.727 277.378 113.893 277.258 114.08C277.138 114.253 277.078 114.473 277.078 114.74C277.078 115.047 277.198 115.3 277.438 115.5C277.678 115.7 278.132 115.8 278.798 115.8H280.678C281.812 115.8 282.658 115.987 283.218 116.36C283.792 116.72 284.078 117.307 284.078 118.12C284.078 118.573 283.965 119 283.738 119.4C283.512 119.813 283.185 120.173 282.758 120.48C282.332 120.787 281.812 121.027 281.198 121.2C280.598 121.387 279.918 121.48 279.158 121.48ZM279.158 112.82C279.438 112.82 279.698 112.767 279.938 112.66C280.192 112.553 280.412 112.4 280.598 112.2C280.798 112 280.952 111.76 281.058 111.48C281.165 111.187 281.218 110.86 281.218 110.5C281.218 109.78 281.018 109.227 280.618 108.84C280.218 108.44 279.732 108.24 279.158 108.24C278.585 108.24 278.098 108.44 277.698 108.84C277.298 109.227 277.098 109.78 277.098 110.5C277.098 110.86 277.152 111.187 277.258 111.48C277.365 111.76 277.512 112 277.698 112.2C277.898 112.4 278.118 112.553 278.358 112.66C278.612 112.767 278.878 112.82 279.158 112.82ZM279.398 120.34C279.865 120.34 280.285 120.28 280.658 120.16C281.045 120.053 281.372 119.907 281.638 119.72C281.905 119.547 282.112 119.34 282.258 119.1C282.405 118.86 282.478 118.613 282.478 118.36C282.478 117.907 282.312 117.593 281.978 117.42C281.645 117.247 281.158 117.16 280.518 117.16H278.838C278.652 117.16 278.445 117.147 278.218 117.12C278.005 117.107 277.792 117.067 277.578 117C277.232 117.253 276.978 117.52 276.818 117.8C276.658 118.08 276.578 118.36 276.578 118.64C276.578 119.16 276.825 119.573 277.318 119.88C277.825 120.187 278.518 120.34 279.398 120.34Z" fill="#69707D"/>
<path d="M285.956 117V107.28H287.596V117H285.956ZM286.796 105.28C286.476 105.28 286.203 105.18 285.976 104.98C285.763 104.78 285.656 104.527 285.656 104.22C285.656 103.9 285.763 103.647 285.976 103.46C286.203 103.26 286.476 103.16 286.796 103.16C287.116 103.16 287.383 103.26 287.596 103.46C287.823 103.647 287.936 103.9 287.936 104.22C287.936 104.527 287.823 104.78 287.596 104.98C287.383 105.18 287.116 105.28 286.796 105.28Z" fill="#69707D"/>
<path d="M293.938 117.24C293.418 117.24 292.978 117.16 292.618 117C292.272 116.84 291.985 116.62 291.758 116.34C291.545 116.06 291.392 115.72 291.298 115.32C291.205 114.92 291.158 114.48 291.158 114V108.62H289.718V107.38L291.238 107.28L291.438 104.56H292.818V107.28H295.438V108.62H292.818V114.02C292.818 114.62 292.925 115.087 293.138 115.42C293.365 115.74 293.758 115.9 294.318 115.9C294.492 115.9 294.678 115.873 294.878 115.82C295.078 115.767 295.258 115.707 295.418 115.64L295.738 116.88C295.472 116.973 295.178 117.053 294.858 117.12C294.552 117.2 294.245 117.24 293.938 117.24Z" fill="#69707D"/>
<path d="M299.446 117.24C298.633 117.24 297.953 117 297.406 116.52C296.873 116.04 296.606 115.36 296.606 114.48C296.606 113.413 297.08 112.6 298.026 112.04C298.973 111.467 300.486 111.067 302.566 110.84C302.566 110.533 302.533 110.233 302.466 109.94C302.413 109.647 302.313 109.387 302.166 109.16C302.02 108.933 301.813 108.753 301.546 108.62C301.293 108.473 300.966 108.4 300.566 108.4C300.006 108.4 299.48 108.507 298.986 108.72C298.493 108.933 298.053 109.173 297.666 109.44L297.026 108.3C297.48 108.007 298.033 107.727 298.686 107.46C299.34 107.18 300.06 107.04 300.846 107.04C302.033 107.04 302.893 107.407 303.426 108.14C303.96 108.86 304.226 109.827 304.226 111.04V117H302.866L302.726 115.84H302.666C302.2 116.227 301.7 116.56 301.166 116.84C300.633 117.107 300.06 117.24 299.446 117.24ZM299.926 115.92C300.393 115.92 300.833 115.813 301.246 115.6C301.66 115.373 302.1 115.047 302.566 114.62V111.92C301.753 112.027 301.066 112.153 300.506 112.3C299.96 112.447 299.513 112.62 299.166 112.82C298.833 113.02 298.586 113.253 298.426 113.52C298.28 113.773 298.206 114.053 298.206 114.36C298.206 114.92 298.373 115.32 298.706 115.56C299.04 115.8 299.446 115.92 299.926 115.92Z" fill="#69707D"/>
<path d="M309.025 117.24C308.398 117.24 307.951 117.053 307.685 116.68C307.418 116.307 307.285 115.76 307.285 115.04V102.76H308.925V115.16C308.925 115.427 308.971 115.613 309.065 115.72C309.158 115.827 309.265 115.88 309.385 115.88C309.438 115.88 309.485 115.88 309.525 115.88C309.578 115.88 309.651 115.867 309.745 115.84L309.965 117.08C309.858 117.133 309.731 117.173 309.585 117.2C309.438 117.227 309.251 117.24 309.025 117.24Z" fill="#69707D"/>
<path d="M94.2474 146.1V132.28H95.6074L95.7474 133.4H95.8074C96.2474 133.027 96.7274 132.707 97.2474 132.44C97.7808 132.173 98.3341 132.04 98.9074 132.04C99.5341 132.04 100.087 132.16 100.567 132.4C101.047 132.627 101.447 132.96 101.767 133.4C102.087 133.827 102.327 134.347 102.487 134.96C102.661 135.56 102.747 136.24 102.747 137C102.747 137.827 102.634 138.567 102.407 139.22C102.181 139.86 101.874 140.407 101.487 140.86C101.101 141.313 100.654 141.66 100.147 141.9C99.6408 142.127 99.1074 142.24 98.5474 142.24C98.0941 142.24 97.6408 142.14 97.1874 141.94C96.7474 141.74 96.3008 141.467 95.8474 141.12L95.8874 142.82V146.1H94.2474ZM98.2674 140.86C98.6674 140.86 99.0341 140.773 99.3674 140.6C99.7141 140.413 100.007 140.16 100.247 139.84C100.501 139.507 100.694 139.1 100.827 138.62C100.974 138.14 101.047 137.6 101.047 137C101.047 136.467 101.001 135.98 100.907 135.54C100.814 135.1 100.661 134.727 100.447 134.42C100.247 134.1 99.9808 133.853 99.6474 133.68C99.3274 133.507 98.9408 133.42 98.4874 133.42C98.0741 133.42 97.6541 133.533 97.2274 133.76C96.8141 133.987 96.3674 134.313 95.8874 134.74V139.84C96.3274 140.213 96.7541 140.48 97.1674 140.64C97.5808 140.787 97.9474 140.86 98.2674 140.86Z" fill="#69707D"/>
<path d="M107.081 142.24C106.455 142.24 106.008 142.053 105.741 141.68C105.475 141.307 105.341 140.76 105.341 140.04V127.76H106.981V140.16C106.981 140.427 107.028 140.613 107.121 140.72C107.215 140.827 107.321 140.88 107.441 140.88C107.495 140.88 107.541 140.88 107.581 140.88C107.635 140.88 107.708 140.867 107.801 140.84L108.021 142.08C107.915 142.133 107.788 142.173 107.641 142.2C107.495 142.227 107.308 142.24 107.081 142.24Z" fill="#69707D"/>
<path d="M112.679 142.24C111.866 142.24 111.186 142 110.639 141.52C110.106 141.04 109.839 140.36 109.839 139.48C109.839 138.413 110.312 137.6 111.259 137.04C112.206 136.467 113.719 136.067 115.799 135.84C115.799 135.533 115.766 135.233 115.699 134.94C115.646 134.647 115.546 134.387 115.399 134.16C115.252 133.933 115.046 133.753 114.779 133.62C114.526 133.473 114.199 133.4 113.799 133.4C113.239 133.4 112.712 133.507 112.219 133.72C111.726 133.933 111.286 134.173 110.899 134.44L110.259 133.3C110.712 133.007 111.266 132.727 111.919 132.46C112.572 132.18 113.292 132.04 114.079 132.04C115.266 132.04 116.126 132.407 116.659 133.14C117.192 133.86 117.459 134.827 117.459 136.04V142H116.099L115.959 140.84H115.899C115.432 141.227 114.932 141.56 114.399 141.84C113.866 142.107 113.292 142.24 112.679 142.24ZM113.159 140.92C113.626 140.92 114.066 140.813 114.479 140.6C114.892 140.373 115.332 140.047 115.799 139.62V136.92C114.986 137.027 114.299 137.153 113.739 137.3C113.192 137.447 112.746 137.62 112.399 137.82C112.066 138.02 111.819 138.253 111.659 138.52C111.512 138.773 111.439 139.053 111.439 139.36C111.439 139.92 111.606 140.32 111.939 140.56C112.272 140.8 112.679 140.92 113.159 140.92Z" fill="#69707D"/>
<path d="M123.304 142.24C122.784 142.24 122.344 142.16 121.984 142C121.637 141.84 121.35 141.62 121.124 141.34C120.91 141.06 120.757 140.72 120.664 140.32C120.57 139.92 120.524 139.48 120.524 139V133.62H119.084V132.38L120.604 132.28L120.804 129.56H122.184V132.28H124.804V133.62H122.184V139.02C122.184 139.62 122.29 140.087 122.504 140.42C122.73 140.74 123.124 140.9 123.684 140.9C123.857 140.9 124.044 140.873 124.244 140.82C124.444 140.767 124.624 140.707 124.784 140.64L125.104 141.88C124.837 141.973 124.544 142.053 124.224 142.12C123.917 142.2 123.61 142.24 123.304 142.24Z" fill="#69707D"/>
<path d="M127.281 142V133.62H125.961V132.38L127.281 132.28V130.74C127.281 129.74 127.508 128.953 127.961 128.38C128.428 127.807 129.148 127.52 130.121 127.52C130.428 127.52 130.715 127.553 130.981 127.62C131.261 127.673 131.515 127.747 131.741 127.84L131.381 129.1C131.021 128.94 130.655 128.86 130.281 128.86C129.375 128.86 128.921 129.487 128.921 130.74V132.28H130.981V133.62H128.921V142H127.281Z" fill="#69707D"/>
<path d="M136.426 142.24C135.826 142.24 135.253 142.127 134.706 141.9C134.173 141.673 133.699 141.347 133.286 140.92C132.873 140.48 132.539 139.947 132.286 139.32C132.046 138.68 131.926 137.96 131.926 137.16C131.926 136.347 132.046 135.627 132.286 135C132.539 134.36 132.873 133.82 133.286 133.38C133.699 132.94 134.173 132.607 134.706 132.38C135.253 132.153 135.826 132.04 136.426 132.04C137.026 132.04 137.593 132.153 138.126 132.38C138.673 132.607 139.153 132.94 139.566 133.38C139.979 133.82 140.306 134.36 140.546 135C140.799 135.627 140.926 136.347 140.926 137.16C140.926 137.96 140.799 138.68 140.546 139.32C140.306 139.947 139.979 140.48 139.566 140.92C139.153 141.347 138.673 141.673 138.126 141.9C137.593 142.127 137.026 142.24 136.426 142.24ZM136.426 140.88C136.839 140.88 137.219 140.793 137.566 140.62C137.913 140.433 138.206 140.18 138.446 139.86C138.699 139.527 138.893 139.133 139.026 138.68C139.159 138.227 139.226 137.72 139.226 137.16C139.226 136.6 139.159 136.093 139.026 135.64C138.893 135.173 138.699 134.773 138.446 134.44C138.206 134.107 137.913 133.853 137.566 133.68C137.219 133.493 136.839 133.4 136.426 133.4C136.013 133.4 135.633 133.493 135.286 133.68C134.939 133.853 134.639 134.107 134.386 134.44C134.146 134.773 133.959 135.173 133.826 135.64C133.693 136.093 133.626 136.6 133.626 137.16C133.626 137.72 133.693 138.227 133.826 138.68C133.959 139.133 134.146 139.527 134.386 139.86C134.639 140.18 134.939 140.433 135.286 140.62C135.633 140.793 136.013 140.88 136.426 140.88Z" fill="#69707D"/>
<path d="M143.486 142V132.28H144.846L144.986 134.04H145.046C145.379 133.427 145.779 132.94 146.246 132.58C146.726 132.22 147.246 132.04 147.806 132.04C148.192 132.04 148.539 132.107 148.846 132.24L148.526 133.68C148.366 133.627 148.219 133.587 148.086 133.56C147.952 133.533 147.786 133.52 147.586 133.52C147.172 133.52 146.739 133.687 146.286 134.02C145.846 134.353 145.459 134.933 145.126 135.76V142H143.486Z" fill="#69707D"/>
<path d="M150.419 142V132.28H151.779L151.919 133.68H151.979C152.406 133.213 152.866 132.827 153.359 132.52C153.866 132.2 154.413 132.04 154.999 132.04C155.746 132.04 156.326 132.207 156.739 132.54C157.166 132.86 157.479 133.313 157.679 133.9C158.186 133.34 158.693 132.893 159.199 132.56C159.719 132.213 160.279 132.04 160.879 132.04C161.879 132.04 162.619 132.36 163.099 133C163.593 133.64 163.839 134.587 163.839 135.84V142H162.199V136.06C162.199 135.14 162.053 134.48 161.759 134.08C161.466 133.667 161.013 133.46 160.399 133.46C159.666 133.46 158.853 133.96 157.959 134.96V142H156.319V136.06C156.319 135.14 156.173 134.48 155.879 134.08C155.586 133.667 155.126 133.46 154.499 133.46C153.766 133.46 152.953 133.96 152.059 134.96V142H150.419Z" fill="#69707D"/>
<path d="M171.285 142V133.62H169.965V132.38L171.285 132.28V130.74C171.285 129.74 171.512 128.953 171.965 128.38C172.432 127.807 173.152 127.52 174.125 127.52C174.432 127.52 174.719 127.553 174.985 127.62C175.265 127.673 175.519 127.747 175.745 127.84L175.385 129.1C175.025 128.94 174.659 128.86 174.285 128.86C173.379 128.86 172.925 129.487 172.925 130.74V132.28H174.985V133.62H172.925V142H171.285Z" fill="#69707D"/>
<path d="M180.43 142.24C179.83 142.24 179.256 142.127 178.71 141.9C178.176 141.673 177.703 141.347 177.29 140.92C176.876 140.48 176.543 139.947 176.29 139.32C176.05 138.68 175.93 137.96 175.93 137.16C175.93 136.347 176.05 135.627 176.29 135C176.543 134.36 176.876 133.82 177.29 133.38C177.703 132.94 178.176 132.607 178.71 132.38C179.256 132.153 179.83 132.04 180.43 132.04C181.03 132.04 181.596 132.153 182.13 132.38C182.676 132.607 183.156 132.94 183.57 133.38C183.983 133.82 184.31 134.36 184.55 135C184.803 135.627 184.93 136.347 184.93 137.16C184.93 137.96 184.803 138.68 184.55 139.32C184.31 139.947 183.983 140.48 183.57 140.92C183.156 141.347 182.676 141.673 182.13 141.9C181.596 142.127 181.03 142.24 180.43 142.24ZM180.43 140.88C180.843 140.88 181.223 140.793 181.57 140.62C181.916 140.433 182.21 140.18 182.45 139.86C182.703 139.527 182.896 139.133 183.03 138.68C183.163 138.227 183.23 137.72 183.23 137.16C183.23 136.6 183.163 136.093 183.03 135.64C182.896 135.173 182.703 134.773 182.45 134.44C182.21 134.107 181.916 133.853 181.57 133.68C181.223 133.493 180.843 133.4 180.43 133.4C180.016 133.4 179.636 133.493 179.29 133.68C178.943 133.853 178.643 134.107 178.39 134.44C178.15 134.773 177.963 135.173 177.83 135.64C177.696 136.093 177.63 136.6 177.63 137.16C177.63 137.72 177.696 138.227 177.83 138.68C177.963 139.133 178.15 139.527 178.39 139.86C178.643 140.18 178.943 140.433 179.29 140.62C179.636 140.793 180.016 140.88 180.43 140.88Z" fill="#69707D"/>
<path d="M187.49 142V132.28H188.85L188.99 134.04H189.05C189.383 133.427 189.783 132.94 190.25 132.58C190.73 132.22 191.25 132.04 191.81 132.04C192.196 132.04 192.543 132.107 192.85 132.24L192.53 133.68C192.37 133.627 192.223 133.587 192.09 133.56C191.956 133.533 191.79 133.52 191.59 133.52C191.176 133.52 190.743 133.687 190.29 134.02C189.85 134.353 189.463 134.933 189.13 135.76V142H187.49Z" fill="#69707D"/>
<path d="M198.427 146.1V132.28H199.787L199.927 133.4H199.987C200.427 133.027 200.907 132.707 201.427 132.44C201.96 132.173 202.514 132.04 203.087 132.04C203.714 132.04 204.267 132.16 204.747 132.4C205.227 132.627 205.627 132.96 205.947 133.4C206.267 133.827 206.507 134.347 206.667 134.96C206.84 135.56 206.927 136.24 206.927 137C206.927 137.827 206.814 138.567 206.587 139.22C206.36 139.86 206.054 140.407 205.667 140.86C205.28 141.313 204.834 141.66 204.327 141.9C203.82 142.127 203.287 142.24 202.727 142.24C202.274 142.24 201.82 142.14 201.367 141.94C200.927 141.74 200.48 141.467 200.027 141.12L200.067 142.82V146.1H198.427ZM202.447 140.86C202.847 140.86 203.214 140.773 203.547 140.6C203.894 140.413 204.187 140.16 204.427 139.84C204.68 139.507 204.874 139.1 205.007 138.62C205.154 138.14 205.227 137.6 205.227 137C205.227 136.467 205.18 135.98 205.087 135.54C204.994 135.1 204.84 134.727 204.627 134.42C204.427 134.1 204.16 133.853 203.827 133.68C203.507 133.507 203.12 133.42 202.667 133.42C202.254 133.42 201.834 133.533 201.407 133.76C200.994 133.987 200.547 134.313 200.067 134.74V139.84C200.507 140.213 200.934 140.48 201.347 140.64C201.76 140.787 202.127 140.86 202.447 140.86Z" fill="#69707D"/>
<path d="M209.521 142V127.76H211.161V131.64L211.101 133.64C211.568 133.2 212.054 132.827 212.561 132.52C213.068 132.2 213.661 132.04 214.341 132.04C215.368 132.04 216.114 132.36 216.581 133C217.061 133.64 217.301 134.587 217.301 135.84V142H215.661V136.06C215.661 135.14 215.514 134.48 215.221 134.08C214.928 133.667 214.461 133.46 213.821 133.46C213.314 133.46 212.868 133.587 212.481 133.84C212.094 134.093 211.654 134.467 211.161 134.96V142H209.521Z" fill="#69707D"/>
<path d="M220.56 146.18C220.333 146.18 220.126 146.16 219.94 146.12C219.753 146.093 219.58 146.047 219.42 145.98L219.74 144.68C219.846 144.707 219.966 144.733 220.1 144.76C220.233 144.8 220.36 144.82 220.48 144.82C221.04 144.82 221.493 144.62 221.84 144.22C222.2 143.833 222.48 143.34 222.68 142.74L222.9 142.02L219 132.28H220.7L222.68 137.66C222.826 138.087 222.98 138.54 223.14 139.02C223.313 139.487 223.473 139.947 223.62 140.4H223.7C223.846 139.96 223.986 139.5 224.12 139.02C224.253 138.54 224.386 138.087 224.52 137.66L226.26 132.28H227.86L224.2 142.8C224.026 143.28 223.833 143.727 223.62 144.14C223.406 144.553 223.153 144.907 222.86 145.2C222.566 145.507 222.233 145.747 221.86 145.92C221.486 146.093 221.053 146.18 220.56 146.18Z" fill="#69707D"/>
<path d="M232.276 142.24C231.582 142.24 230.922 142.113 230.296 141.86C229.669 141.607 229.122 141.287 228.656 140.9L229.476 139.8C229.902 140.147 230.336 140.427 230.776 140.64C231.229 140.853 231.749 140.96 232.336 140.96C232.976 140.96 233.456 140.813 233.776 140.52C234.096 140.227 234.256 139.867 234.256 139.44C234.256 139.187 234.189 138.967 234.056 138.78C233.922 138.593 233.749 138.433 233.536 138.3C233.336 138.153 233.102 138.027 232.836 137.92C232.569 137.813 232.302 137.707 232.036 137.6C231.689 137.48 231.342 137.347 230.996 137.2C230.649 137.04 230.336 136.853 230.056 136.64C229.789 136.413 229.569 136.153 229.396 135.86C229.222 135.567 229.136 135.213 229.136 134.8C229.136 134.413 229.209 134.053 229.356 133.72C229.516 133.373 229.736 133.08 230.016 132.84C230.309 132.587 230.662 132.393 231.076 132.26C231.489 132.113 231.956 132.04 232.476 132.04C233.089 132.04 233.649 132.147 234.156 132.36C234.676 132.573 235.122 132.833 235.496 133.14L234.716 134.18C234.382 133.927 234.036 133.72 233.676 133.56C233.316 133.4 232.922 133.32 232.496 133.32C231.882 133.32 231.429 133.46 231.136 133.74C230.856 134.02 230.716 134.347 230.716 134.72C230.716 134.947 230.776 135.147 230.896 135.32C231.016 135.48 231.176 135.627 231.376 135.76C231.576 135.88 231.802 135.993 232.056 136.1C232.322 136.193 232.596 136.293 232.876 136.4C233.222 136.533 233.569 136.673 233.916 136.82C234.276 136.967 234.596 137.153 234.876 137.38C235.156 137.593 235.382 137.86 235.556 138.18C235.742 138.5 235.836 138.887 235.836 139.34C235.836 139.74 235.756 140.113 235.596 140.46C235.449 140.807 235.222 141.113 234.916 141.38C234.622 141.647 234.249 141.853 233.796 142C233.356 142.16 232.849 142.24 232.276 142.24Z" fill="#69707D"/>
<path d="M238.115 142V132.28H239.755V142H238.115ZM238.955 130.28C238.635 130.28 238.361 130.18 238.135 129.98C237.921 129.78 237.815 129.527 237.815 129.22C237.815 128.9 237.921 128.647 238.135 128.46C238.361 128.26 238.635 128.16 238.955 128.16C239.275 128.16 239.541 128.26 239.755 128.46C239.981 128.647 240.095 128.9 240.095 129.22C240.095 129.527 239.981 129.78 239.755 129.98C239.541 130.18 239.275 130.28 238.955 130.28Z" fill="#69707D"/>
<path d="M246.876 142.24C246.236 142.24 245.636 142.127 245.076 141.9C244.516 141.673 244.03 141.347 243.617 140.92C243.217 140.48 242.896 139.947 242.656 139.32C242.43 138.68 242.316 137.96 242.316 137.16C242.316 136.347 242.443 135.627 242.697 135C242.95 134.36 243.29 133.82 243.717 133.38C244.143 132.94 244.637 132.607 245.197 132.38C245.77 132.153 246.37 132.04 246.997 132.04C247.637 132.04 248.183 132.153 248.637 132.38C249.09 132.607 249.49 132.873 249.837 133.18L248.997 134.26C248.717 134.007 248.416 133.8 248.096 133.64C247.79 133.48 247.443 133.4 247.057 133.4C246.617 133.4 246.21 133.493 245.837 133.68C245.463 133.853 245.143 134.107 244.876 134.44C244.61 134.773 244.396 135.173 244.236 135.64C244.09 136.093 244.016 136.6 244.016 137.16C244.016 137.72 244.09 138.227 244.236 138.68C244.383 139.133 244.583 139.527 244.837 139.86C245.103 140.18 245.423 140.433 245.796 140.62C246.17 140.793 246.576 140.88 247.016 140.88C247.47 140.88 247.883 140.787 248.257 140.6C248.643 140.4 248.99 140.167 249.296 139.9L250.016 141C249.576 141.387 249.09 141.693 248.557 141.92C248.023 142.133 247.463 142.24 246.876 142.24Z" fill="#69707D"/>
<path d="M254.202 142.24C253.389 142.24 252.709 142 252.162 141.52C251.629 141.04 251.362 140.36 251.362 139.48C251.362 138.413 251.836 137.6 252.782 137.04C253.729 136.467 255.242 136.067 257.322 135.84C257.322 135.533 257.289 135.233 257.222 134.94C257.169 134.647 257.069 134.387 256.922 134.16C256.776 133.933 256.569 133.753 256.302 133.62C256.049 133.473 255.722 133.4 255.322 133.4C254.762 133.4 254.236 133.507 253.742 133.72C253.249 133.933 252.809 134.173 252.422 134.44L251.782 133.3C252.236 133.007 252.789 132.727 253.442 132.46C254.096 132.18 254.816 132.04 255.602 132.04C256.789 132.04 257.649 132.407 258.182 133.14C258.716 133.86 258.982 134.827 258.982 136.04V142H257.622L257.482 140.84H257.422C256.956 141.227 256.456 141.56 255.922 141.84C255.389 142.107 254.816 142.24 254.202 142.24ZM254.682 140.92C255.149 140.92 255.589 140.813 256.002 140.6C256.416 140.373 256.856 140.047 257.322 139.62V136.92C256.509 137.027 255.822 137.153 255.262 137.3C254.716 137.447 254.269 137.62 253.922 137.82C253.589 138.02 253.342 138.253 253.182 138.52C253.036 138.773 252.962 139.053 252.962 139.36C252.962 139.92 253.129 140.32 253.462 140.56C253.796 140.8 254.202 140.92 254.682 140.92Z" fill="#69707D"/>
<path d="M263.78 142.24C263.154 142.24 262.707 142.053 262.44 141.68C262.174 141.307 262.04 140.76 262.04 140.04V127.76H263.68V140.16C263.68 140.427 263.727 140.613 263.82 140.72C263.914 140.827 264.02 140.88 264.14 140.88C264.194 140.88 264.24 140.88 264.28 140.88C264.334 140.88 264.407 140.867 264.5 140.84L264.72 142.08C264.614 142.133 264.487 142.173 264.34 142.2C264.194 142.227 264.007 142.24 263.78 142.24Z" fill="#69707D"/>
<path d="M271.142 142V132.28H272.502L272.642 134.04H272.702C273.035 133.427 273.435 132.94 273.902 132.58C274.382 132.22 274.902 132.04 275.462 132.04C275.849 132.04 276.195 132.107 276.502 132.24L276.182 133.68C276.022 133.627 275.875 133.587 275.742 133.56C275.609 133.533 275.442 133.52 275.242 133.52C274.829 133.52 274.395 133.687 273.942 134.02C273.502 134.353 273.115 134.933 272.782 135.76V142H271.142Z" fill="#69707D"/>
<path d="M281.82 142.24C281.167 142.24 280.554 142.127 279.98 141.9C279.42 141.66 278.927 141.327 278.5 140.9C278.087 140.46 277.76 139.927 277.52 139.3C277.28 138.673 277.16 137.96 277.16 137.16C277.16 136.36 277.28 135.647 277.52 135.02C277.774 134.38 278.1 133.84 278.5 133.4C278.914 132.96 279.38 132.627 279.9 132.4C280.42 132.16 280.96 132.04 281.52 132.04C282.134 132.04 282.68 132.147 283.16 132.36C283.654 132.573 284.06 132.88 284.38 133.28C284.714 133.68 284.967 134.16 285.14 134.72C285.314 135.28 285.4 135.907 285.4 136.6C285.4 136.773 285.394 136.947 285.38 137.12C285.38 137.28 285.367 137.42 285.34 137.54H278.78C278.847 138.58 279.167 139.407 279.74 140.02C280.327 140.62 281.087 140.92 282.02 140.92C282.487 140.92 282.914 140.853 283.3 140.72C283.7 140.573 284.08 140.387 284.44 140.16L285.02 141.24C284.594 141.507 284.12 141.74 283.6 141.94C283.08 142.14 282.487 142.24 281.82 142.24ZM278.76 136.36H283.96C283.96 135.373 283.747 134.627 283.32 134.12C282.907 133.6 282.32 133.34 281.56 133.34C281.214 133.34 280.88 133.407 280.56 133.54C280.254 133.673 279.974 133.873 279.72 134.14C279.467 134.393 279.254 134.707 279.08 135.08C278.92 135.453 278.814 135.88 278.76 136.36Z" fill="#69707D"/>
<path d="M290.667 142.24C290.147 142.24 289.707 142.16 289.347 142C289 141.84 288.713 141.62 288.487 141.34C288.273 141.06 288.12 140.72 288.027 140.32C287.933 139.92 287.887 139.48 287.887 139V133.62H286.447V132.38L287.967 132.28L288.167 129.56H289.547V132.28H292.167V133.62H289.547V139.02C289.547 139.62 289.653 140.087 289.867 140.42C290.093 140.74 290.487 140.9 291.047 140.9C291.22 140.9 291.407 140.873 291.607 140.82C291.807 140.767 291.987 140.707 292.147 140.64L292.467 141.88C292.2 141.973 291.907 142.053 291.587 142.12C291.28 142.2 290.973 142.24 290.667 142.24Z" fill="#69707D"/>
<path d="M296.175 142.24C295.362 142.24 294.682 142 294.135 141.52C293.602 141.04 293.335 140.36 293.335 139.48C293.335 138.413 293.808 137.6 294.755 137.04C295.702 136.467 297.215 136.067 299.295 135.84C299.295 135.533 299.262 135.233 299.195 134.94C299.142 134.647 299.042 134.387 298.895 134.16C298.748 133.933 298.542 133.753 298.275 133.62C298.022 133.473 297.695 133.4 297.295 133.4C296.735 133.4 296.208 133.507 295.715 133.72C295.222 133.933 294.782 134.173 294.395 134.44L293.755 133.3C294.208 133.007 294.762 132.727 295.415 132.46C296.068 132.18 296.788 132.04 297.575 132.04C298.762 132.04 299.622 132.407 300.155 133.14C300.688 133.86 300.955 134.827 300.955 136.04V142H299.595L299.455 140.84H299.395C298.928 141.227 298.428 141.56 297.895 141.84C297.362 142.107 296.788 142.24 296.175 142.24ZM296.655 140.92C297.122 140.92 297.562 140.813 297.975 140.6C298.388 140.373 298.828 140.047 299.295 139.62V136.92C298.482 137.027 297.795 137.153 297.235 137.3C296.688 137.447 296.242 137.62 295.895 137.82C295.562 138.02 295.315 138.253 295.155 138.52C295.008 138.773 294.935 139.053 294.935 139.36C294.935 139.92 295.102 140.32 295.435 140.56C295.768 140.8 296.175 140.92 296.655 140.92Z" fill="#69707D"/>
<path d="M304.013 142V132.28H305.653V142H304.013ZM304.853 130.28C304.533 130.28 304.26 130.18 304.033 129.98C303.82 129.78 303.713 129.527 303.713 129.22C303.713 128.9 303.82 128.647 304.033 128.46C304.26 128.26 304.533 128.16 304.853 128.16C305.173 128.16 305.44 128.26 305.653 128.46C305.88 128.647 305.993 128.9 305.993 129.22C305.993 129.527 305.88 129.78 305.653 129.98C305.44 130.18 305.173 130.28 304.853 130.28Z" fill="#69707D"/>
<path d="M310.675 142.24C310.048 142.24 309.602 142.053 309.335 141.68C309.068 141.307 308.935 140.76 308.935 140.04V127.76H310.575V140.16C310.575 140.427 310.622 140.613 310.715 140.72C310.808 140.827 310.915 140.88 311.035 140.88C311.088 140.88 311.135 140.88 311.175 140.88C311.228 140.88 311.302 140.867 311.395 140.84L311.615 142.08C311.508 142.133 311.382 142.173 311.235 142.2C311.088 142.227 310.902 142.24 310.675 142.24Z" fill="#69707D"/>
<path d="M197.206 45.192C196.065 45.192 195.169 44.776 194.518 43.944C193.868 43.112 193.542 41.9174 193.542 40.36C193.542 38.824 193.868 37.6507 194.518 36.84C195.169 36.0294 196.065 35.624 197.206 35.624C198.348 35.624 199.244 36.0294 199.894 36.84C200.545 37.6507 200.87 38.824 200.87 40.36C200.87 41.9174 200.545 43.112 199.894 43.944C199.244 44.776 198.348 45.192 197.206 45.192ZM197.206 36.696C196.492 36.696 195.905 36.9947 195.446 37.592C194.998 38.1787 194.774 39.1014 194.774 40.36C194.774 41.0107 194.833 41.576 194.95 42.056C195.068 42.5254 195.233 42.9147 195.446 43.224C195.67 43.5334 195.932 43.7627 196.23 43.912C196.529 44.0614 196.854 44.136 197.206 44.136C197.558 44.136 197.884 44.0614 198.182 43.912C198.481 43.7627 198.737 43.5334 198.95 43.224C199.174 42.9147 199.345 42.5254 199.462 42.056C199.58 41.576 199.638 41.0107 199.638 40.36C199.638 39.1014 199.409 38.1787 198.95 37.592C198.502 36.9947 197.921 36.696 197.206 36.696ZM197.206 41.32C196.94 41.32 196.705 41.2294 196.502 41.048C196.31 40.856 196.214 40.5894 196.214 40.248C196.214 39.9174 196.31 39.6614 196.502 39.48C196.705 39.288 196.94 39.192 197.206 39.192C197.473 39.192 197.702 39.288 197.894 39.48C198.097 39.6614 198.198 39.9174 198.198 40.248C198.198 40.5894 198.097 40.856 197.894 41.048C197.702 41.2294 197.473 41.32 197.206 41.32Z" fill="#315FCC"/>
<path d="M203.168 44.216C204.928 43.0427 206.261 42.0134 207.168 41.128C208.075 40.2427 208.528 39.4587 208.528 38.776C208.528 38.1574 208.347 37.656 207.984 37.272C207.621 36.888 207.061 36.696 206.304 36.696C205.824 36.696 205.376 36.8187 204.96 37.064C204.555 37.2987 204.187 37.5867 203.856 37.928L203.104 37.176C203.563 36.7067 204.053 36.3334 204.576 36.056C205.109 35.768 205.739 35.624 206.464 35.624C206.976 35.624 207.435 35.6987 207.84 35.848C208.256 35.9867 208.608 36.1947 208.896 36.472C209.184 36.7387 209.403 37.064 209.552 37.448C209.712 37.8214 209.792 38.2427 209.792 38.712C209.792 39.1174 209.685 39.528 209.472 39.944C209.269 40.36 208.976 40.7867 208.592 41.224C208.208 41.6507 207.739 42.0934 207.184 42.552C206.64 43 206.027 43.4694 205.344 43.96C205.653 43.9387 205.968 43.9174 206.288 43.896C206.619 43.8747 206.939 43.864 207.248 43.864H210.352V45H203.168V44.216Z" fill="#315FCC"/>
</svg>
