<?xml version="1.0" standalone="no"?>
<!DOCTYPE svg PUBLIC "-//W3C//DTD SVG 20010904//EN"
 "http://www.w3.org/TR/2001/REC-SVG-20010904/DTD/svg10.dtd">
<svg version="1.0" xmlns="http://www.w3.org/2000/svg"
 width="260.000000pt" height="260.000000pt" viewBox="0 0 260.000000 260.000000"
 preserveAspectRatio="xMidYMid meet">
<metadata>
Created by potrace 1.11, written by Peter Selinger 2001-2013
</metadata>
<g transform="translate(0.000000,260.000000) scale(0.100000,-0.100000)"
fill="#000000" stroke="none">
<path d="M2042 2165 c-39 -86 -185 -190 -491 -349 -321 -168 -432 -249 -486
-357 -51 -100 -25 -243 55 -296 40 -28 109 -30 151 -6 31 19 46 46 29 51 -23
8 -81 65 -97 95 -25 48 -20 117 13 177 51 95 163 173 475 335 110 57 207 110
215 116 8 7 16 10 18 8 4 -4 -133 -274 -431 -844 -213 -409 -319 -551 -461
-618 -58 -28 -78 -32 -147 -32 -91 0 -140 20 -199 81 -58 60 -80 117 -79 209
1 133 57 247 150 302 40 24 59 28 118 28 59 0 79 -5 124 -30 29 -16 60 -40 69
-53 14 -21 12 -27 -42 -105 -68 -99 -71 -125 -20 -173 19 -19 38 -34 42 -34 4
1 42 51 86 111 90 127 90 121 2 209 -71 71 -157 112 -249 118 -181 11 -338
-63 -405 -192 -23 -44 -26 -63 -27 -146 0 -84 3 -102 28 -152 33 -67 85 -117
165 -157 158 -80 397 -66 568 34 71 41 193 167 257 266 71 108 600 1107 644
1214 48 117 43 169 -17 200 -39 20 -45 19 -58 -10z"/>
</g>
</svg>
