<svg width="25" height="24" viewBox="0 0 25 24" fill="none" xmlns="http://www.w3.org/2000/svg">
<path d="M10.125 11.2773C11.8177 11.7461 12.6641 12.918 12.6641 14.793C12.6641 16.1211 12.1953 17.1237 11.2578 17.8008C10.3203 18.4779 9.16146 18.8164 7.78125 18.8164H1.0625V4.94922H7.58594C10.5286 4.94922 12 6.09505 12 8.38672C12 9.71484 11.375 10.6784 10.125 11.2773ZM4.10938 7.33203V10.5742H7.19531C8.41927 10.5742 9.03125 10.0143 9.03125 8.89453C9.03125 7.85286 8.34115 7.33203 6.96094 7.33203H4.10938ZM7.35156 16.4727C8.86198 16.4727 9.61719 15.8607 9.61719 14.6367C9.61719 13.3086 8.88802 12.6445 7.42969 12.6445H4.10938V16.4727H7.35156ZM21.375 7.05859H15.75V5.69141H21.375V7.05859ZM23.5625 13.9336C23.5625 14.0638 23.5495 14.2331 23.5234 14.4414H16.2969C16.2969 15.2747 16.5052 15.9128 16.9219 16.3555C17.3646 16.7982 17.9766 17.0195 18.7578 17.0195C19.0443 17.0195 19.3307 16.9674 19.6172 16.8633C19.9297 16.7591 20.2031 16.6159 20.4375 16.4336C20.6979 16.2253 20.8672 15.9779 20.9453 15.6914H23.3672C22.638 17.931 21.0755 19.0508 18.6797 19.0508C17.1172 19.0508 15.8672 18.569 14.9297 17.6055C14.0182 16.6419 13.5625 15.3789 13.5625 13.8164C13.5625 12.2799 14.0312 11.0169 14.9688 10.0273C15.9323 9.01172 17.1693 8.50391 18.6797 8.50391C20.1901 8.50391 21.375 9.02474 22.2344 10.0664C23.1198 11.1081 23.5625 12.3971 23.5625 13.9336ZM16.2969 12.7227H20.7891C20.6589 11.2904 19.9297 10.5742 18.6016 10.5742C17.9505 10.5742 17.4167 10.7695 17 11.1602C16.5833 11.5508 16.349 12.0716 16.2969 12.7227Z" fill="#2B313D"/>
</svg>
