<svg width="25" height="24" viewBox="0 0 25 24" fill="none" xmlns="http://www.w3.org/2000/svg">
<path d="M5.4375 5.16406C7.33854 3.26302 9.63021 2.3125 12.3125 2.3125C14.9948 2.3125 17.2734 3.26302 19.1484 5.16406C21.0495 7.03906 22 9.31771 22 12C22 14.6823 21.0495 16.974 19.1484 18.875C17.2734 20.75 14.9948 21.6875 12.3125 21.6875C9.63021 21.6875 7.33854 20.75 5.4375 18.875C3.5625 16.974 2.625 14.6823 2.625 12C2.625 9.31771 3.5625 7.03906 5.4375 5.16406ZM18.7188 6.76562C18.5625 6.97396 18.3542 7.20833 18.0938 7.46875C17.8594 7.72917 17.3646 8.13281 16.6094 8.67969C15.8542 9.22656 15.0208 9.68229 14.1094 10.0469C14.3438 10.5677 14.5781 11.1146 14.8125 11.6875C16.7135 11.4271 18.6406 11.5052 20.5938 11.9219C20.5677 9.99479 19.9427 8.27604 18.7188 6.76562ZM17.7812 5.82812C16.7656 4.91667 15.6068 4.30469 14.3047 3.99219C13.0026 3.65365 11.6875 3.64062 10.3594 3.95312C11.4792 5.4375 12.5078 7.05208 13.4453 8.79688C14.3307 8.48438 15.125 8.08073 15.8281 7.58594C16.5573 7.09115 17.026 6.72656 17.2344 6.49219C17.4688 6.23177 17.651 6.01042 17.7812 5.82812ZM8.79688 4.53906C8.01562 4.90365 7.3125 5.3724 6.6875 5.94531C6.0625 6.51823 5.52865 7.18229 5.08594 7.9375C4.66927 8.66667 4.38281 9.46094 4.22656 10.3203C6.67448 10.3464 9.21354 10.0078 11.8438 9.30469C10.9062 7.61198 9.89062 6.02344 8.79688 4.53906ZM4.03125 12C4.03125 14.1354 4.7474 15.9844 6.17969 17.5469C6.6224 16.7656 7.19531 16.0104 7.89844 15.2812C8.60156 14.5521 9.42188 13.888 10.3594 13.2891C11.2969 12.6901 12.2474 12.2604 13.2109 12C13.0286 11.5312 12.8073 11.0625 12.5469 10.5938C9.73438 11.4271 6.89583 11.8177 4.03125 11.7656C4.03125 11.8438 4.03125 11.9219 4.03125 12ZM7.23438 18.5234C8.43229 19.487 9.78646 20.0599 11.2969 20.2422C12.8073 20.4245 14.2266 20.2161 15.5547 19.6172C15.2161 17.612 14.6302 15.5286 13.7969 13.3672C12.2083 13.888 10.8281 14.6432 9.65625 15.6328C8.51042 16.5964 7.70312 17.5599 7.23438 18.5234ZM16.9219 18.875C18.9271 17.5208 20.112 15.6719 20.4766 13.3281C18.8359 12.8073 17.1172 12.6901 15.3203 12.9766C16.0755 15.0599 16.6094 17.026 16.9219 18.875Z" fill="#F0F1F5"/>
</svg>
