<svg width="25" height="24" viewBox="0 0 25 24" fill="none" xmlns="http://www.w3.org/2000/svg">
<path d="M9.10938 8.83594C9.99479 7.95052 11.0625 7.50781 12.3125 7.50781C13.5625 7.50781 14.6172 7.95052 15.4766 8.83594C16.362 9.69531 16.8047 10.75 16.8047 12C16.8047 13.25 16.362 14.3177 15.4766 15.2031C14.6172 16.0625 13.5625 16.4922 12.3125 16.4922C11.0625 16.4922 9.99479 16.0625 9.10938 15.2031C8.25 14.3177 7.82031 13.25 7.82031 12C7.82031 10.75 8.25 9.69531 9.10938 8.83594ZM10.2422 14.0703C10.8151 14.6432 11.5052 14.9297 12.3125 14.9297C13.1198 14.9297 13.8099 14.6432 14.3828 14.0703C14.9557 13.4974 15.2422 12.8073 15.2422 12C15.2422 11.1927 14.9557 10.5026 14.3828 9.92969C13.8099 9.35677 13.1198 9.07031 12.3125 9.07031C11.5052 9.07031 10.8151 9.35677 10.2422 9.92969C9.66927 10.5026 9.38281 11.1927 9.38281 12C9.38281 12.8073 9.66927 13.4974 10.2422 14.0703ZM17.7031 6.60938C17.9115 6.79167 18.0156 7.02604 18.0156 7.3125C18.0156 7.59896 17.9115 7.84635 17.7031 8.05469C17.5208 8.26302 17.2865 8.36719 17 8.36719C16.7135 8.36719 16.4661 8.26302 16.2578 8.05469C16.0495 7.84635 15.9453 7.59896 15.9453 7.3125C15.9453 7.02604 16.0495 6.79167 16.2578 6.60938C16.4661 6.40104 16.7135 6.29688 17 6.29688C17.2865 6.29688 17.5208 6.40104 17.7031 6.60938ZM21.0234 8.40625C21.0495 9.10938 21.0625 10.3073 21.0625 12C21.0625 13.6927 21.0495 14.8906 21.0234 15.5938C20.9453 17.1823 20.4635 18.4193 19.5781 19.3047C18.7188 20.1641 17.4948 20.6198 15.9062 20.6719C15.2031 20.724 14.0052 20.75 12.3125 20.75C10.6198 20.75 9.42188 20.724 8.71875 20.6719C7.13021 20.5938 5.90625 20.125 5.04688 19.2656C4.70833 18.9531 4.4349 18.5885 4.22656 18.1719C4.01823 17.7552 3.86198 17.3516 3.75781 16.9609C3.67969 16.5703 3.64062 16.1146 3.64062 15.5938C3.58854 14.8906 3.5625 13.6927 3.5625 12C3.5625 10.3073 3.58854 9.09635 3.64062 8.36719C3.71875 6.80469 4.1875 5.59375 5.04688 4.73438C5.90625 3.84896 7.13021 3.36719 8.71875 3.28906C9.42188 3.26302 10.6198 3.25 12.3125 3.25C14.0052 3.25 15.2031 3.26302 15.9062 3.28906C17.4948 3.36719 18.7188 3.84896 19.5781 4.73438C20.4635 5.59375 20.9453 6.81771 21.0234 8.40625ZM19.1484 17.1562C19.2266 16.9479 19.2917 16.6875 19.3438 16.375C19.3958 16.0365 19.4349 15.6458 19.4609 15.2031C19.487 14.7344 19.5 14.3568 19.5 14.0703C19.5 13.7839 19.5 13.3802 19.5 12.8594C19.5 12.3385 19.5 12.0521 19.5 12C19.5 11.9219 19.5 11.6354 19.5 11.1406C19.5 10.6198 19.5 10.2161 19.5 9.92969C19.5 9.64323 19.487 9.27865 19.4609 8.83594C19.4349 8.36719 19.3958 7.97656 19.3438 7.66406C19.2917 7.32552 19.2266 7.05208 19.1484 6.84375C18.8359 6.03646 18.276 5.47656 17.4688 5.16406C17.2604 5.08594 16.987 5.02083 16.6484 4.96875C16.3359 4.91667 15.9453 4.8776 15.4766 4.85156C15.0339 4.82552 14.6693 4.8125 14.3828 4.8125C14.1224 4.8125 13.7188 4.8125 13.1719 4.8125C12.651 4.8125 12.3646 4.8125 12.3125 4.8125C12.2604 4.8125 11.974 4.8125 11.4531 4.8125C10.9323 4.8125 10.5286 4.8125 10.2422 4.8125C9.95573 4.8125 9.57812 4.82552 9.10938 4.85156C8.66667 4.8776 8.27604 4.91667 7.9375 4.96875C7.625 5.02083 7.36458 5.08594 7.15625 5.16406C6.34896 5.47656 5.78906 6.03646 5.47656 6.84375C5.39844 7.05208 5.33333 7.32552 5.28125 7.66406C5.22917 7.97656 5.1901 8.36719 5.16406 8.83594C5.13802 9.27865 5.125 9.64323 5.125 9.92969C5.125 10.1901 5.125 10.5938 5.125 11.1406C5.125 11.6615 5.125 11.9479 5.125 12C5.125 12.1042 5.125 12.3516 5.125 12.7422C5.125 13.1068 5.125 13.4193 5.125 13.6797C5.125 13.9141 5.125 14.2266 5.125 14.6172C5.15104 15.0078 5.17708 15.3464 5.20312 15.6328C5.22917 15.8932 5.26823 16.1667 5.32031 16.4531C5.3724 16.7396 5.42448 16.974 5.47656 17.1562C5.8151 17.9635 6.375 18.5234 7.15625 18.8359C7.36458 18.9141 7.625 18.9792 7.9375 19.0312C8.27604 19.0833 8.66667 19.1224 9.10938 19.1484C9.57812 19.1745 9.94271 19.1875 10.2031 19.1875C10.4896 19.1875 10.8932 19.1875 11.4141 19.1875C11.9609 19.1875 12.2604 19.1875 12.3125 19.1875C12.3906 19.1875 12.6771 19.1875 13.1719 19.1875C13.6927 19.1875 14.0964 19.1875 14.3828 19.1875C14.6693 19.1875 15.0339 19.1745 15.4766 19.1484C15.9453 19.1224 16.3359 19.0833 16.6484 19.0312C16.987 18.9792 17.2604 18.9141 17.4688 18.8359C18.276 18.4974 18.8359 17.9375 19.1484 17.1562Z" fill="#2B313D"/>
</svg>
