<svg width="25" height="24" viewBox="0 0 25 24" fill="none" xmlns="http://www.w3.org/2000/svg">
<path d="M20.2422 7.9375C20.2682 8.04167 20.2812 8.21094 20.2812 8.44531C20.2812 9.82552 20.0208 11.2057 19.5 12.5859C18.9792 13.9401 18.237 15.1901 17.2734 16.3359C16.3359 17.4557 15.112 18.3672 13.6016 19.0703C12.0911 19.7734 10.4245 20.125 8.60156 20.125C6.3099 20.125 4.21354 19.513 2.3125 18.2891C2.59896 18.3151 2.92448 18.3281 3.28906 18.3281C5.1901 18.3281 6.89583 17.7422 8.40625 16.5703C7.49479 16.5703 6.6875 16.3099 5.98438 15.7891C5.30729 15.2422 4.83854 14.5651 4.57812 13.7578C4.83854 13.7839 5.08594 13.7969 5.32031 13.7969C5.6849 13.7969 6.04948 13.7578 6.41406 13.6797C5.78906 13.5495 5.22917 13.2891 4.73438 12.8984C4.23958 12.5078 3.84896 12.0391 3.5625 11.4922C3.27604 10.9193 3.13281 10.3073 3.13281 9.65625V9.57812C3.70573 9.91667 4.31771 10.099 4.96875 10.125C3.74479 9.29167 3.13281 8.14583 3.13281 6.6875C3.13281 5.95833 3.32812 5.26823 3.71875 4.61719C4.73438 5.89323 5.97135 6.90885 7.42969 7.66406C8.91406 8.41927 10.4896 8.83594 12.1562 8.91406C12.1042 8.60156 12.0781 8.28906 12.0781 7.97656C12.0781 6.85677 12.4688 5.89323 13.25 5.08594C14.0573 4.27865 15.0208 3.875 16.1406 3.875C17.3385 3.875 18.3411 4.30469 19.1484 5.16406C20.0859 4.98177 20.9583 4.65625 21.7656 4.1875C21.4531 5.15104 20.8542 5.90625 19.9688 6.45312C20.75 6.34896 21.5312 6.1276 22.3125 5.78906C21.7396 6.6224 21.0495 7.33854 20.2422 7.9375Z" fill="#2B313D"/>
</svg>
